<?xml version="1.0" encoding="UTF-8" standalone="no"?>
<svg width="402px" height="337px" viewBox="0 0 402 337" version="1.1" xmlns="http://www.w3.org/2000/svg" xmlns:xlink="http://www.w3.org/1999/xlink">
    <!-- Generator: Sketch 3.8.3 (29802) - http://www.bohemiancoding.com/sketch -->
    <title>Artboard 24</title>
    <desc>Created with Sketch.</desc>
    <defs>
        <path d="M186.61279,181.894996 C176.525966,181.894996 168.306395,173.679045 168.306395,163.596664 C168.306395,153.514283 176.525966,145.298332 186.61279,145.298332 C196.69046,145.298332 204.919185,153.514283 204.919185,163.596664 C204.919185,173.679045 196.69046,181.894996 186.61279,181.894996 L186.61279,181.894996 Z M186.61279,127 C166.429989,127 150,143.422753 150,163.596664 C150,183.770575 166.429989,200.193328 186.61279,200.193328 C206.79559,200.193328 223.22558,183.770575 223.22558,163.596664 C223.22558,143.422753 206.79559,127 186.61279,127 L186.61279,127 Z" id="path-1"></path>
        <filter x="-50%" y="-50%" width="200%" height="200%" filterUnits="objectBoundingBox" id="filter-2">
            <feOffset dx="3" dy="3" in="SourceAlpha" result="shadowOffsetOuter1"></feOffset>
            <feColorMatrix values="0 0 0 0 0.622076956   0 0 0 0 0.622076956   0 0 0 0 0.622076956  0 0 0 0.5 0" type="matrix" in="shadowOffsetOuter1"></feColorMatrix>
        </filter>
        <path d="M140.306395,218.088325 L268.451159,218.088325 L268.451159,108.298332 L140.306395,108.298332 L140.306395,218.088325 Z M131.153197,90 C126.091479,90 122,94.0896772 122,99.1491661 L122,227.237491 C122,232.29698 126.091479,236.386657 131.153197,236.386657 L277.604357,236.386657 C282.666075,236.386657 286.757554,232.29698 286.757554,227.237491 L286.757554,99.1491661 C286.757554,94.0896772 282.666075,90 277.604357,90 L131.153197,90 Z" id="path-3"></path>
        <filter x="-50%" y="-50%" width="200%" height="200%" filterUnits="objectBoundingBox" id="filter-4">
            <feOffset dx="4" dy="4" in="SourceAlpha" result="shadowOffsetOuter1"></feOffset>
            <feColorMatrix values="0 0 0 0 0.622076956   0 0 0 0 0.622076956   0 0 0 0 0.622076956  0 0 0 0.5 0" type="matrix" in="shadowOffsetOuter1"></feColorMatrix>
        </filter>
        <path d="M213.538392,159.038207 C211.002956,159.038207 208.961793,161.08762 208.961793,163.61279 C208.961793,166.13796 211.002956,168.187373 213.538392,168.187373 L277.610774,168.187373 C280.137057,168.187373 282.187373,166.13796 282.187373,163.61279 C282.187373,161.08762 280.137057,159.038207 277.610774,159.038207 L213.538392,159.038207 Z" id="path-5"></path>
        <filter x="-50%" y="-50%" width="200%" height="200%" filterUnits="objectBoundingBox" id="filter-6">
            <feOffset dx="3" dy="-3" in="SourceAlpha" result="shadowOffsetOuter1"></feOffset>
            <feColorMatrix values="0 0 0 0 0.622076956   0 0 0 0 0.622076956   0 0 0 0 0.622076956  0 0 0 0.5 0" type="matrix" in="shadowOffsetOuter1"></feColorMatrix>
        </filter>
    </defs>
    <g id="Page-1" stroke="none" stroke-width="1" fill="none" fill-rule="evenodd">
        <g id="Artboard-24">
            <path d="M370.438638,145 C359.225711,63.0979812 288.981517,0 204,0 C155.70774,0 112.174578,20.3761236 81.5288864,53 L98.5033329,53 C108.71876,53 117,61.2804856 117,71.5 C117,81.7172679 108.720501,90 98.5033329,90 L55.1662928,90 C43.6528088,111.923988 36.8415795,136.704116 36.0729808,163 L65.4057889,163 C85.6162136,163 102,179.380441 102,199.596664 C102,219.808444 85.6091224,236.193328 65.4057889,236.193328 L50.4169208,236.193328 C76.5655785,294.996679 135.49437,336 204,336 C243.240707,336 279.339146,322.546349 307.934363,300 L264.496667,300 C254.28124,300 246,291.719514 246,281.5 C246,271.282732 254.279499,263 264.496667,263 L342.579626,263 C351.935786,249.377983 359.335566,234.307332 364.373686,218.193328 L358.600418,218.193328 C338.386566,218.193328 322,201.812888 322,181.596664 C322,161.384885 338.385068,145 358.600418,145 L370.438638,145 Z" id="Combined-Shape" fill="#DAEFFF"></path>
            <rect id="Rectangle-98" fill="#D9EEFF" x="251" y="72" width="151" height="73.1933285" rx="36.5966642"></rect>
            <rect id="Rectangle-98" fill="#D9EEFF" x="0" y="90" width="151" height="73.1933285" rx="36.5966642"></rect>
            <rect id="Rectangle-97" fill="#FFFFFF" x="132" y="90" width="146" height="136"></rect>
            <g id="Fill-532">
                <use fill="black" fill-opacity="1" filter="url(#filter-2)" xlink:href="#path-1"></use>
                <use fill="#255984" fill-rule="evenodd" xlink:href="#path-1"></use>
            </g>
            <g id="Fill-697">
                <use fill="black" fill-opacity="1" filter="url(#filter-4)" xlink:href="#path-3"></use>
                <use fill="#255984" fill-rule="evenodd" xlink:href="#path-3"></use>
            </g>
            <g id="Fill-1051" transform="translate(245.574583, 163.612790) rotate(90.000000) translate(-245.574583, -163.612790) ">
                <use fill="black" fill-opacity="1" filter="url(#filter-6)" xlink:href="#path-5"></use>
                <use fill="#255984" fill-rule="evenodd" xlink:href="#path-5"></use>
            </g>
            <path d="M136.576599,245.149166 L182.342586,245.149166 C184.868869,245.149166 186.919185,243.099753 186.919185,240.574583 C186.919185,238.049413 184.868869,236 182.342586,236 L136.576599,236 C134.041163,236 132,238.049413 132,240.574583 C132,243.099753 134.041163,245.149166 136.576599,245.149166" id="Fill-1049-Copy" fill="#255984"></path>
            <path d="M227.576599,245.149166 L273.342586,245.149166 C275.868869,245.149166 277.919185,243.099753 277.919185,240.574583 C277.919185,238.049413 275.868869,236 273.342586,236 L227.576599,236 C225.041163,236 223,238.049413 223,240.574583 C223,243.099753 225.041163,245.149166 227.576599,245.149166" id="Fill-1049" fill="#255984"></path>
        </g>
    </g>
</svg>