<?xml version="1.0" encoding="UTF-8" standalone="no"?>
<svg width="52px" height="37px" viewBox="0 0 52 37" version="1.1" xmlns="http://www.w3.org/2000/svg" xmlns:xlink="http://www.w3.org/1999/xlink">
    <!-- Generator: Sketch 3.8.3 (29802) - http://www.bohemiancoding.com/sketch -->
    <title>Artboard 1</title>
    <desc>Created with Sketch.</desc>
    <defs></defs>
    <g id="Page-1" stroke="none" stroke-width="1" fill="none" fill-rule="evenodd">
        <g id="Artboard-1">
            <path d="M39.2499531,33.9998125 C37.1822462,33.9998125 35.5000313,32.3175975 35.5000313,30.2498906 C35.5000313,28.1821837 37.1822462,26.4999688 39.2499531,26.4999688 C41.31766,26.4999688 42.999875,28.1821837 42.999875,30.2498906 C42.999875,32.3175975 41.31766,33.9998125 39.2499531,33.9998125 L39.2499531,33.9998125 Z M45.7800671,35.7195267 L43.4461157,33.400575 C43.4446157,33.399075 43.4431158,33.399075 43.4416158,33.397575 C44.103102,32.5185934 44.4998438,31.431116 44.4998438,30.2498906 C44.4998438,27.3557009 42.1441428,25 39.2499531,25 C36.3550134,25 34.0000625,27.3557009 34.0000625,30.2498906 C34.0000625,33.1440803 36.3550134,35.4997813 39.2499531,35.4997813 C40.4311785,35.4997813 41.5186559,35.1030395 42.3968876,34.4423033 C42.3983875,34.4438033 42.3983875,34.4453032 42.3998875,34.4468032 L44.7195892,36.7800046 C44.8658361,36.9262515 45.0578321,36.99975 45.2498281,36.99975 C45.4418241,36.99975 45.6338201,36.9262515 45.7800671,36.7800046 C46.073311,36.4867607 46.073311,36.0127706 45.7800671,35.7195267 L45.7800671,35.7195267 Z" id="Fill-891" fill="#838383"></path>
            <path d="M2.32672248,8 L7.67306802,8 C7.97008721,8 8.08409458,8.37502424 7.93408489,8.58278767 L5.27516304,12.3157789 C5.12365325,12.5220423 4.8768873,12.5745457 4.72537751,12.3667822 L2.06645566,8.55653597 C1.91494587,8.34952259 2.03120338,8 2.32672248,8" id="Fill-99" fill="#838383"></path>
            <path d="M25.6725472,11.5003781 L20.3262017,11.5003781 C20.0299326,11.5003781 19.9159252,11.1246038 20.0659349,10.9168403 L22.7248567,7.18384912 C22.8763665,6.97683574 23.1231325,6.92433235 23.2746423,7.13209577 L25.9335641,10.943092 C26.0850739,11.1501054 25.9688164,11.5003781 25.6725472,11.5003781" id="Fill-100" fill="#838383"></path>
            <path d="M51.9080696,18.260052 L49.1480176,15.5 L51.9080696,12.739948 C52.1266435,12.5224893 52.1266435,12.1700948 51.9080696,11.951521 L51.1196426,11.163094 C50.9010688,10.9456353 50.5486743,10.9456353 50.3301005,11.163094 L47.5711636,13.923146 L44.8111116,11.163094 C44.5936529,10.9456353 44.2412584,10.9456353 44.0226846,11.163094 L43.2342576,11.951521 C43.0156838,12.1700948 43.0156838,12.5224893 43.2342576,12.739948 L45.9943096,15.5 L43.2342576,18.260052 C43.0156838,18.4775107 43.0156838,18.8299052 43.2342576,19.048479 L44.0226846,19.836906 C44.2412584,20.0543647 44.5936529,20.0543647 44.8111116,19.836906 L47.5711636,17.076854 L50.3301005,19.836906 C50.5486743,20.0543647 50.9010688,20.0543647 51.1196426,19.836906 L51.9080696,19.048479 C52.1266435,18.8299052 52.1266435,18.4775107 51.9080696,18.260052" id="Fill-101" fill="#464646"></path>
            <path d="M51.9080696,7.26005204 L49.1480176,4.5 L51.9080696,1.73994796 C52.1266435,1.52248931 52.1266435,1.17009479 51.9080696,0.951520971 L51.1196426,0.163093984 C50.9010688,-0.0543646614 50.5486743,-0.0543646614 50.3301005,0.163093984 L47.5711636,2.92314603 L44.8111116,0.163093984 C44.5936529,-0.0543646614 44.2412584,-0.0543646614 44.0226846,0.163093984 L43.2342576,0.951520971 C43.0156838,1.17009479 43.0156838,1.52248931 43.2342576,1.73994796 L45.9943096,4.5 L43.2342576,7.26005204 C43.0156838,7.47751069 43.0156838,7.82990521 43.2342576,8.04847903 L44.0226846,8.83690602 C44.2412584,9.05436466 44.5936529,9.05436466 44.8111116,8.83690602 L47.5711636,6.07685397 L50.3301005,8.83690602 C50.5486743,9.05436466 50.9010688,9.05436466 51.1196426,8.83690602 L51.9080696,8.04847903 C52.1266435,7.82990521 52.1266435,7.47751069 51.9080696,7.26005204" id="Fill-101" fill="#838383"></path>
        </g>
    </g>
</svg>