<?xml version="1.0" encoding="utf-8"?>
<!-- Generated by IcoMoon.io -->
<!DOCTYPE svg PUBLIC "-//W3C//DTD SVG 1.1//EN" "http://www.w3.org/Graphics/SVG/1.1/DTD/svg11.dtd">
<svg version="1.1" xmlns="http://www.w3.org/2000/svg" xmlns:xlink="http://www.w3.org/1999/xlink" width="32" height="32" viewBox="0 0 32 32">
<path fill="#000" d="M30 0h-28c-1.106 0-2 0.894-2 2v28c0 1.106 0.894 2 2 2h28c1.106 0 2-0.894 2-2v-28c0-1.106-0.894-2-2-2zM28 4v10h-5.070l-2.93 4.394-7.446-11.168c-0.306-0.46-0.802-0.46-1.11 0l-4.514 6.774h-2.93v-10h24zM4 28v-10h5.070l2.93-4.394 7.446 11.168c0.306 0.46 0.802 0.46 1.11 0l4.514-6.774h2.93v10h-24z"></path>
</svg>
