<?xml version="1.0" encoding="utf-8"?>
<!-- Generated by IcoMoon.io -->
<!DOCTYPE svg PUBLIC "-//W3C//DTD SVG 1.1//EN" "http://www.w3.org/Graphics/SVG/1.1/DTD/svg11.dtd">
<svg version="1.1" xmlns="http://www.w3.org/2000/svg" xmlns:xlink="http://www.w3.org/1999/xlink" width="38" height="32" viewBox="0 0 38 32">
<path fill="#000" d="M37 12h-3v-3c0-0.552-0.448-1-1-1h-2c-0.552 0-1 0.448-1 1v3h-3c-0.552 0-1 0.448-1 1v2c0 0.552 0.448 1 1 1h3v3c0 0.552 0.448 1 1 1h2c0.552 0 1-0.448 1-1v-3h3c0.552 0 1-0.448 1-1v-2c0-0.552-0.448-1-1-1z"></path>
<path d="M21.734 16.34c1.45-1.762 2.266-3.984 2.266-6.34 0-5.514-4.486-10-10-10s-10 4.486-10 10c0 2.356 0.816 4.578 2.266 6.34-3.84 2.554-6.266 6.93-6.266 11.66v2c0 1.106 0.896 2 2 2h24c1.104 0 2-0.894 2-2v-2c0-4.73-2.426-9.106-6.266-11.66zM4 28c0-4.136 2.598-7.892 6.464-9.348 0.71-0.266 1.208-0.914 1.286-1.67 0.076-0.756-0.282-1.49-0.924-1.894-1.77-1.114-2.826-3.014-2.826-5.088 0-3.308 2.692-6 6-6s6 2.692 6 6c0 2.074-1.056 3.974-2.826 5.088-0.642 0.404-1 1.138-0.924 1.894 0.078 0.756 0.576 1.404 1.286 1.67 3.866 1.456 6.464 5.212 6.464 9.348h-20z"></path>
</svg>
