<?xml version="1.0" encoding="UTF-8" standalone="no"?>
<svg width="16px" height="16px" viewBox="0 0 16 16" version="1.1" xmlns="http://www.w3.org/2000/svg" xmlns:xlink="http://www.w3.org/1999/xlink">
    <!-- Generator: Sketch 3.8.3 (29802) - http://www.bohemiancoding.com/sketch -->
    <title>Fill 104</title>
    <desc>Created with Sketch.</desc>
    <defs></defs>
    <g id="Page-1" stroke="none" stroke-width="1" fill="none" fill-rule="evenodd">
        <g id="Artboard-8" transform="translate(-69.000000, -771.000000)" fill="#7ED321">
            <g id="Solid" transform="translate(69.000000, 35.000000)">
                <g id="Group-105" transform="translate(0.000000, 581.000000)">
                    <path d="M10.892,164 L9.006,164 L9.006,165.884 C9.006,166.414 8.537,166.844 8.006,166.845 C7.476,166.845 7.006,166.414 7.006,165.884 L7.006,164 L5.124,164 C4.594,164 4.164,163.531 4.163,163 C4.164,162.469 4.594,162 5.124,162 L7.006,162 L7.006,160.116 C7.006,159.586 7.475,159.156 8.006,159.155 C8.537,159.156 9.006,159.586 9.006,160.116 L9.006,162 L10.892,162 C11.422,162 11.853,162.47 11.853,163 C11.852,163.531 11.422,164 10.892,164 L10.892,164 Z M8.006,155 C3.588,155 0.006,158.582 0.006,163 C0.006,167.418 3.588,171 8.006,171 C12.424,171 16.006,167.418 16.006,163 C16.006,158.582 12.424,155 8.006,155 L8.006,155 Z" id="Fill-104"></path>
                </g>
            </g>
        </g>
    </g>
</svg>