<?xml version="1.0" encoding="utf-8"?>
<!-- Generated by IcoMoon.io -->
<!DOCTYPE svg PUBLIC "-//W3C//DTD SVG 1.1//EN" "http://www.w3.org/Graphics/SVG/1.1/DTD/svg11.dtd">
<svg version="1.1" xmlns="http://www.w3.org/2000/svg" xmlns:xlink="http://www.w3.org/1999/xlink" width="28" height="32" viewBox="0 0 28 32">
<path fill="#000" d="M26 0h-20c-3.32 0-6 2.68-6 6v20c0 3.32 2.68 6 6 6h20c1.106 0 2-0.894 2-2v-28c0-1.106-0.894-2-2-2zM24 28h-18c-1.1 0-2-0.9-2-2s0.9-2 2-2h18v4zM24 20h-18c-0.706 0-1.372 0.144-2 0.368v-14.368c0-1.1 0.9-2 2-2h18v16z"></path>
<path d="M9 16h10c0.552 0 1-0.448 1-1v-2c0-0.552-0.448-1-1-1h-10c-0.552 0-1 0.448-1 1v2c0 0.552 0.448 1 1 1z"></path>
<path d="M9 10h10c0.552 0 1-0.448 1-1v-2c0-0.552-0.448-1-1-1h-10c-0.552 0-1 0.448-1 1v2c0 0.552 0.448 1 1 1z"></path>
</svg>
