<!-- Generated by IcoMoon.io -->
<svg version="1.1" xmlns="http://www.w3.org/2000/svg" width="33" height="32" viewBox="0 0 33 32">
<title>business-man-1</title>
<path d="M32.483 13.080c0.207 0.271 0.241 0.636 0.090 0.941s-0.463 0.499-0.804 0.499h-1.22l-0.133 7.333c-1.17-0.88-2.333-1.667-3.403-2.333l-0.090-5h-1.227c-0.338-0.006-0.643-0.202-0.791-0.506s-0.111-0.665 0.094-0.934l2.817-3.713c0.218-0.287 0.558-0.456 0.918-0.456s0.7 0.169 0.918 0.456l2.83 3.713zM10.843 20.693c-0.039-0.227-0.186-0.421-0.394-0.521s-0.451-0.093-0.653 0.018c-2.566 1.384-4.997 3.003-7.263 4.837-0.704 0.582-1.109 1.45-1.103 2.363v3.333c0.004 0.522 0.428 0.943 0.95 0.943h9.667c0.2 0.003 0.39-0.083 0.52-0.236s0.183-0.355 0.147-0.551l-1.87-10.187zM22.843 9.46c0.080-0.248 0.143-0.501 0.19-0.757 0.403-2.427 0.193-4.183-0.623-5.217-0.308-0.419-0.758-0.711-1.267-0.82-0.424-0.66-1.012-1.199-1.707-1.563-1.070-0.626-2.31-0.895-3.543-0.77-0.484 0.023-0.962 0.114-1.42 0.27-0.551 0.19-1.073 0.457-1.55 0.793-0.584 0.373-1.118 0.819-1.59 1.327-0.843 0.83-1.44 1.878-1.723 3.027-0.224 0.967-0.224 1.973 0 2.94 0.047 0.256 0.11 0.509 0.19 0.757-0.216 0.007-0.42 0.105-0.56 0.27-0.333 0.393-0.333 1.17 0 2.37 0.377 1.333 0.773 2.037 1.21 2.16 0.143 0.784 0.422 1.538 0.823 2.227v1.593c-0 0.306 0.146 0.593 0.393 0.773l4 2.9-1.303 1.667c-0.194 0.259-0.206 0.612-0.030 0.883l0.853 1.377-0.777 5.25c-0.028 0.193 0.029 0.388 0.158 0.535s0.314 0.23 0.509 0.228h2.523c0.195 0.002 0.381-0.081 0.509-0.228s0.186-0.342 0.157-0.535l-0.787-5.25 0.853-1.377c0.171-0.275 0.152-0.628-0.047-0.883l-1.303-1.667 4-2.9c0.247-0.18 0.393-0.468 0.393-0.773v-1.61c0.401-0.68 0.68-1.424 0.823-2.2 0.44-0.123 0.837-0.83 1.213-2.16 0.333-1.2 0.333-1.973 0-2.37-0.14-0.163-0.342-0.26-0.557-0.267h-0.013zM31.237 30.73v-3.333c0.006-0.913-0.4-1.781-1.103-2.363-2.265-1.836-4.695-3.457-7.26-4.843-0.202-0.11-0.445-0.115-0.652-0.016s-0.354 0.293-0.395 0.519l-1.87 10.2c-0.036 0.196 0.018 0.399 0.147 0.551s0.32 0.239 0.52 0.236h9.667c0.523-0.002 0.947-0.427 0.947-0.95zM2.12 14.52l0.133 7.333c1.173-0.883 2.333-1.667 3.403-2.333l0.090-5h1.22c0.338-0.005 0.645-0.2 0.793-0.505s0.112-0.666-0.093-0.935l-2.817-3.713c-0.218-0.287-0.558-0.456-0.918-0.456s-0.7 0.169-0.918 0.456l-2.83 3.713c-0.207 0.271-0.241 0.636-0.090 0.941s0.463 0.499 0.804 0.499h1.223z"></path>
</svg>
