<!-- Generated by IcoMoon.io -->
<svg version="1.1" xmlns="http://www.w3.org/2000/svg" width="29" height="32" viewBox="0 0 29 32">
<title>business-man-2</title>
<path d="M21.761 9.718c0.019-0.363-0.186-0.86-0.575-0.952-0.197-0.046-0.376 0.036-0.472-0.178-0.054-0.12 0.036-0.441 0.051-0.57 0.036-0.322 0.054-0.666 0.133-0.981 0.146-0.585 0.237-1.185 0.259-1.788 0.067-1.857-0.849-3.386-2.544-4.141-0.193-0.086-0.388-0.165-0.584-0.238-1.092-0.405-2.227-0.601-3.389-0.611-0.251-0.003-0.503 0.004-0.756 0.020-0.811 0.048-1.678 0.112-2.421 0.472-0.073 0.036-0.144 0.076-0.213 0.119-0.275 0.177-0.504 0.415-0.685 0.689-0.184 0.277-0.246 0.433-0.516 0.651-0.239 0.192-0.453 0.334-0.719 0.451-0.236 0.105-0.447 0.272-0.575 0.5-0.263 0.467-0.355 1.034-0.377 1.564-0.027 0.663 0.002 1.327 0.048 1.989 0.016 0.236 0.061 0.47 0.108 0.704 0.072 0.359 0.149 0.717 0.135 1.080-0.005 0.113-0.050 0.177-0.119 0.217-0.022 0.005-0.045 0.009-0.069 0.012-0.128 0.014-0.26 0.009-0.386 0.040-0.389 0.092-0.595 0.588-0.575 0.952 0.001 0.023 0.003 0.046 0.004 0.069-0.011 0.17-0.005 0.342 0.005 0.509 0.020 0.342 0.089 0.68 0.131 1.021 0.093 0.756 0.447 1.483 1.168 1.843 0.151 0.12 0.25 0.243 0.305 0.457 0.433 1.688 1.277 3.049 2.646 3.986 0.169 0.115 0.345 0.224 0.532 0.328 0.222 0.113 0.518 0.246 0.902 0.377 0.021 0.009 0.043 0.019 0.064 0.027 0.234 0.101 0.466 0.171 0.704 0.216 0.22 0.041 0.44 0.059 0.66 0.055 0.22 0.005 0.44-0.013 0.667-0.056 0.232-0.044 0.463-0.114 0.698-0.215 0.021-0.009 0.043-0.018 0.064-0.023 0.384-0.136 0.681-0.269 0.903-0.383 0.185-0.102 0.361-0.212 0.531-0.326 0.712-0.484 1.312-1.12 1.763-1.852 0.23-0.373 0.414-0.767 0.577-1.172 0.157-0.393 0.156-0.829 0.43-1.168 0.201-0.249 0.466-0.438 0.702-0.655 0.426-0.39 0.578-0.876 0.647-1.438 0.042-0.341 0.111-0.679 0.131-1.021 0.010-0.168 0.016-0.339 0.006-0.509 0.001-0.024 0.002-0.047 0.003-0.070z"></path>
<path d="M26.318 22.462l-5.056-1.921c-0.381-0.095-0.762-0.189-1.14-0.287-0.134-0.032-0.264-0.066-0.397-0.098-0.111-0.026-0.231-0.017-0.427-0.032-0.023 0.088-0.045 0.176-0.072 0.261-0.333 1.239-0.648 2.479-1.023 3.7-0.446 1.445-0.948 2.874-1.45 4.303-0.003 0.017-0.010 0.032-0.016 0.049-0.055 0.16-0.134 0.313-0.212 0.47-0.091-0.659-0.202-1.52-0.316-2.369-0.205-1.585-0.397-3.122-0.397-3.174 0.078-0.183 0.15-0.352 0.228-0.518 0.010-0.023 0.019-0.049 0.032-0.072 0.042-0.101 0.085-0.209 0.13-0.303 0.026-0.036 0.045-0.081 0.068-0.12 0.065-0.134 0.15-0.274 0.15-0.447 0-0.143-0.058-0.274-0.101-0.385l-0.023-0.049c-0.010-0.023-0.010-0.032-0.026-0.062-0.010-0.032-0.032-0.078-0.055-0.12l-0.013-0.020c-0.006-0.010-0.023-0.026-0.023-0.036-0.026-0.046-0.062-0.081-0.094-0.105-0.062-0.043-0.124-0.055-0.169-0.065h-0.114c-0.036-0.026-0.081-0.026-0.101-0.026-0.156-0.010-0.551-0.010-1.059-0.010h-0.005c-0.508 0-0.902 0-1.059 0.010-0.019 0-0.065 0-0.101 0.026h-0.114c-0.045 0.010-0.107 0.023-0.169 0.065-0.032 0.023-0.068 0.058-0.094 0.105 0 0.010-0.016 0.026-0.023 0.036l-0.013 0.020c-0.023 0.043-0.045 0.088-0.055 0.12-0.016 0.029-0.016 0.039-0.026 0.062l-0.023 0.049c-0.042 0.111-0.101 0.241-0.101 0.385 0 0.173 0.085 0.313 0.15 0.447 0.023 0.039 0.042 0.085 0.068 0.12 0.045 0.095 0.088 0.203 0.13 0.303 0.013 0.023 0.023 0.049 0.032 0.072 0.078 0.166 0.15 0.336 0.228 0.518 0 0.052-0.192 1.589-0.397 3.175-0.114 0.848-0.225 1.709-0.316 2.369-0.078-0.157-0.156-0.31-0.212-0.47-0.007-0.017-0.013-0.032-0.016-0.049-0.502-1.429-1.004-2.858-1.45-4.303-0.374-1.22-0.691-2.46-1.023-3.7-0.026-0.085-0.049-0.173-0.072-0.261-0.195 0.017-0.316 0.006-0.427 0.032-0.134 0.032-0.264 0.066-0.397 0.098-0.378 0.098-0.759 0.192-1.14 0.287l-5.056 1.921c-2.981 0.998-2.802 2.989-2.802 2.989v3.938c0.274 2.398 2.124 2.352 2.124 2.352h24.714c0 0 1.85 0.046 2.124-2.352v-3.938c0 0 0.179-1.99-2.802-2.989z"></path>
</svg>
