<!-- Generated by IcoMoon.io -->
<svg version="1.1" xmlns="http://www.w3.org/2000/svg" width="32" height="32" viewBox="0 0 32 32">
<title>business-table</title>
<path d="M13.236 2.962c0-1.527 1.238-2.764 2.764-2.764s2.764 1.238 2.764 2.764c0 1.527-1.238 2.764-2.764 2.764-0.733 0-1.436-0.291-1.955-0.81s-0.81-1.221-0.81-1.955v0zM28.494 17.297c1.166 0 2.218-0.703 2.664-1.78s0.2-2.318-0.625-3.142c-0.825-0.825-2.065-1.071-3.142-0.625s-1.78 1.498-1.78 2.664c0 1.592 1.291 2.883 2.883 2.883v0zM3.503 17.297c1.592 0 2.883-1.291 2.883-2.883s-1.291-2.883-2.883-2.883c-1.592 0-2.883 1.291-2.883 2.883 0 0.765 0.304 1.499 0.846 2.040s1.276 0.844 2.041 0.843h-0.003zM16 22.226c1.692 0 3.064-1.372 3.064-3.064s-1.372-3.064-3.064-3.064c-1.692 0-3.064 1.372-3.064 3.064s1.372 3.064 3.064 3.064zM21.535 26.158c-0.292-1.349-1.486-2.312-2.866-2.311h-5.338c-1.381-0.001-2.575 0.962-2.866 2.311l-1.021 4.681c-0.050 0.233 0.007 0.477 0.156 0.663s0.374 0.295 0.613 0.297h11.574c0.241 0 0.468-0.108 0.619-0.296s0.209-0.433 0.157-0.668l-1.028-4.677zM28.279 18.383c-1.039 0.070-1.991 0.607-2.587 1.46l-1.46-6.226c-0.243-1.031-1.163-1.76-2.223-1.76h-0.851v-2.979c0-1.258-1.020-2.277-2.277-2.277h-0.837l-1.811 1.811c-0.064 0.069-0.154 0.108-0.248 0.108s-0.184-0.039-0.248-0.108l-1.777-1.811h-0.837c-1.258 0-2.277 1.020-2.277 2.277v2.989h-0.851c-1.056-0.001-1.976 0.723-2.223 1.75l-1.46 6.23c-0.596-0.855-1.548-1.393-2.587-1.464-0.966-0.059-1.913 0.283-2.618 0.947s-1.104 1.588-1.103 2.556v2.237c0 0.376 0.305 0.681 0.681 0.681h4.463l-1.464 6.294c-0.039 0.17 0.001 0.349 0.11 0.486s0.274 0.216 0.449 0.216h1.505c0.421-0 0.787-0.291 0.882-0.701l3.83-16.364h11.091l3.826 16.368c0.095 0.41 0.46 0.701 0.882 0.701h1.505c0.175 0 0.34-0.079 0.449-0.216s0.149-0.315 0.11-0.486l-1.464-6.294h4.466c0.376 0 0.681-0.305 0.681-0.681v-2.24c0.001-0.968-0.398-1.893-1.103-2.556s-1.652-1.006-2.618-0.947v0z"></path>
</svg>
