<?xml version="1.0" encoding="utf-8"?>
<!-- Generated by IcoMoon.io -->
<!DOCTYPE svg PUBLIC "-//W3C//DTD SVG 1.1//EN" "http://www.w3.org/Graphics/SVG/1.1/DTD/svg11.dtd">
<svg version="1.1" xmlns="http://www.w3.org/2000/svg" xmlns:xlink="http://www.w3.org/1999/xlink" width="32" height="32" viewBox="0 0 32 32">
<path fill="#000" d="M27.991 20.629c-0.918-0.918-2.406-0.918-3.326 0l-1.662 1.662c-0.918 0.918-2.406 0.918-3.324 0l-9.967-9.969c-0.918-0.918-0.918-2.406 0-3.324l1.662-1.66c0.918-0.918 0.918-2.408 0-3.324l-3.324-3.324c-0.918-0.916-2.406-0.918-3.324 0l-4.155 4.157c-0.458 0.458-0.696 1.34-0.5 1.958 1.724 5.449 5.399 11.245 9.641 15.488 4.241 4.241 10.039 7.917 15.488 9.637 0.62 0.198 1.502-0.042 1.96-0.5l4.155-4.153c0.918-0.918 0.918-2.406 0-3.324l-3.322-3.322z"></path>
</svg>
