<?xml version="1.0" encoding="UTF-8" standalone="no"?>
<svg width="52px" height="26px" viewBox="0 0 52 26" version="1.1" xmlns="http://www.w3.org/2000/svg" xmlns:xlink="http://www.w3.org/1999/xlink">
    <!-- Generator: Sketch 44.1 (41455) - http://www.bohemiancoding.com/sketch -->
    <title>np_smartphone-camera_737213_000000</title>
    <desc>Created with Sketch.</desc>
    <defs></defs>
    <g id="Hybrid-Designation-First-Run" stroke="none" stroke-width="1" fill="none" fill-rule="evenodd">
        <g id="Artboard-7-Copy-54" transform="translate(-49.000000, -417.000000)" fill-rule="nonzero" fill="#4990E2">
            <g id="np_smartphone-camera_737213_000000" transform="translate(49.000000, 417.000000)">
                <path d="M2.8049618,25.7700444 L49.1381303,25.7700444 C50.4230562,25.7700444 51.475209,24.7295822 51.475209,23.4589333 L51.475209,2.37004444 C51.475209,1.09939556 50.4230562,0.0589333333 49.1381303,0.0589333333 L2.8049618,0.0589333333 C1.52003596,0.0589333333 0.467883146,1.09939556 0.467883146,2.37004444 L0.467883146,23.4589333 C0.467883146,24.7295822 1.52003596,25.7700444 2.8049618,25.7700444 Z M47.501591,11.2083111 C48.4373573,11.2083111 49.1950382,11.9598844 49.1950382,12.8829422 C49.1950382,13.8083111 48.4350202,14.5575733 47.501591,14.5575733 C46.5658247,14.5575733 45.8081438,13.806 45.8081438,12.8829422 C45.8058617,11.9598267 46.5658831,11.2083111 47.501591,11.2083111 Z M7.0111191,1.90724444 L43.4117034,1.90724444 L43.4117034,23.9217333 L7.0111191,23.9194765 L7.0111191,1.90724444 Z M2.98059326,9.9372 C2.98059326,9.53320622 3.33206652,9.12923556 3.79763596,9.12923556 C4.26550742,9.12923556 4.61467865,9.47680356 4.61467865,9.9372 L4.61467865,15.8888889 C4.61467865,16.2928827 4.26320539,16.6968533 3.79763596,16.6968533 C3.32976449,16.6968533 2.98059326,16.3492853 2.98059326,15.8888889 L2.98059326,9.9372 Z" id="Shape"></path>
                <path d="M31.3746966,7.51111111 L24.1309213,7.51111111 L23.1951551,6.52935111 L19.8652854,6.52935111 L18.9888809,7.51111111 L17.9367281,7.51111111 C17.1767101,7.51111111 16.5354157,8.14759111 16.5354157,8.89685333 L16.5354157,17.56352 C16.5354157,18.3150933 17.1790472,18.9492622 17.9367281,18.9492622 L31.3153348,18.9492622 C32.0753528,18.9492622 32.7166472,18.3127822 32.7166472,17.56352 L32.7166472,8.89685333 C32.7189293,8.14753333 32.134662,7.51111111 31.3746382,7.51111111 L31.3746966,7.51111111 Z M24.6555955,16.4666667 C22.9027865,16.4666667 21.5014742,15.0809244 21.5014742,13.3475911 C21.5014742,11.6142578 22.9027865,10.2285156 24.6555955,10.2285156 C26.4084045,10.2285156 27.8097169,11.6142578 27.8097169,13.3475911 C27.811999,15.0809244 26.4084045,16.4666667 24.6555955,16.4666667 Z M29.7382742,11.0928711 C29.3297411,11.0928711 28.9782562,10.7453031 28.9782562,10.3412978 C28.9782562,9.937304 29.3297294,9.58972444 29.7382742,9.58972444 C30.1468072,9.58972444 30.4982921,9.93729244 30.4982921,10.3412978 C30.4982921,10.7475449 30.1490975,11.0928711 29.7382742,11.0928711 Z" id="Shape"></path>
            </g>
        </g>
    </g>
</svg>