<!-- Generated by IcoMoon.io -->
<svg version="1.1" xmlns="http://www.w3.org/2000/svg" width="63" height="32" viewBox="0 0 63 32">
<title>car-large</title>
<path d="M60.169 10.898l-2.378-6.935c0-0.066 0-0.066-0.066-0.132-0.991-2.312-3.236-3.831-5.746-3.831h-20.078c-5.152 0-9.181 1.849-13.474 6.076l-5.086 4.359h-5.086c-4.557 0-8.256 3.699-8.256 8.256v3.831c0 2.378 1.915 4.293 4.293 4.293h3.17c0.925 2.972 3.699 5.152 6.935 5.152 3.302 0 6.076-2.18 6.935-5.152h17.304c0.925 2.972 3.699 5.152 6.935 5.152 3.302 0 6.076-2.18 6.935-5.152h5.614c2.378 0 4.293-1.915 4.293-4.293v-7.728c0.132-1.717-0.793-3.17-2.246-3.897zM54.687 5.086l1.849 5.416h-9.841l-0.991-7.133h6.275c1.189 0 2.246 0.66 2.708 1.717zM34.609 3.368h7.728l0.991 7.133h-10.7l1.981-7.133zM20.673 8.586v0c3.501-3.501 6.605-5.086 10.502-5.218l-2.047 7.133h-10.7l2.246-1.915zM14.464 28.731c-2.18 0-3.963-1.783-3.963-3.963s1.783-3.963 3.963-3.963c2.18 0 3.963 1.783 3.963 3.963s-1.783 3.963-3.963 3.963zM45.705 28.731c-2.18 0-3.963-1.783-3.963-3.963s1.783-3.963 3.963-3.963c2.18 0 3.963 1.783 3.963 3.963s-1.783 3.963-3.963 3.963z"></path>
</svg>
