<svg id="svg" version="1.1" width="400" height="380" xmlns="http://www.w3.org/2000/svg" xmlns:xlink="http://www.w3.org/1999/xlink" style="display: block;"><g id="svgg"><path id="path0" d="M182.000 11.708 C 178.425 11.885,174.600 12.444,173.500 12.950 C 172.400 13.456,168.467 14.160,164.761 14.514 C 161.054 14.868,157.797 15.519,157.524 15.962 C 157.250 16.404,154.545 17.076,151.513 17.455 C 148.481 17.834,146.000 18.522,146.000 18.984 C 146.000 19.446,144.202 20.128,142.005 20.499 C 139.808 20.870,137.788 21.534,137.516 21.974 C 137.244 22.413,135.381 23.081,133.375 23.457 C 131.370 23.834,128.109 25.010,126.129 26.071 C 124.149 27.132,121.960 28.000,121.265 28.000 C 120.569 28.000,120.000 28.414,120.000 28.921 C 120.000 29.427,118.650 30.138,117.000 30.500 C 115.350 30.862,114.000 31.524,114.000 31.971 C 114.000 32.418,112.836 33.075,111.414 33.432 C 108.984 34.042,107.942 34.696,104.537 37.750 C 103.770 38.438,102.773 39.001,102.321 39.001 C 100.851 39.004,88.262 48.014,85.207 51.250 C 84.299 52.212,83.167 53.000,82.693 53.000 C 81.393 53.000,59.000 75.613,59.000 76.925 C 59.000 77.551,58.342 78.315,57.538 78.624 C 56.734 78.932,55.781 80.113,55.421 81.249 C 55.061 82.384,53.694 84.306,52.383 85.521 C 51.072 86.735,50.000 88.254,50.000 88.896 C 50.000 89.538,49.325 90.322,48.500 90.638 C 47.675 90.955,47.000 91.596,47.000 92.063 C 47.000 92.529,45.865 94.584,44.478 96.628 C 43.091 98.672,40.518 103.304,38.760 106.922 C 37.002 110.540,35.247 113.730,34.861 114.010 C 34.475 114.291,33.848 115.757,33.469 117.269 C 33.089 118.782,32.378 120.266,31.889 120.568 C 31.400 120.871,31.000 121.811,31.000 122.658 C 31.000 123.505,30.335 125.616,29.522 127.349 C 27.096 132.524,24.105 142.724,23.382 148.288 C 23.010 151.155,22.323 153.751,21.855 154.057 C 21.388 154.364,20.711 158.767,20.351 163.842 C 19.990 168.918,19.314 173.306,18.848 173.594 C 17.734 174.283,17.743 207.000,18.857 207.000 C 19.328 207.000,20.031 211.603,20.419 217.229 C 20.806 222.855,21.477 227.692,21.910 227.979 C 22.342 228.266,23.007 230.525,23.387 233.000 C 24.082 237.532,27.493 249.187,28.957 252.033 C 29.391 252.876,30.064 255.013,30.452 256.783 C 30.841 258.552,31.523 260.000,31.968 260.000 C 32.413 260.000,33.073 261.575,33.434 263.500 C 33.795 265.425,34.484 267.000,34.966 267.000 C 35.447 267.000,36.138 268.350,36.500 270.000 C 36.862 271.650,37.524 273.000,37.971 273.000 C 38.418 273.000,39.058 274.094,39.393 275.430 C 39.729 276.767,40.565 278.454,41.252 279.180 C 41.938 279.906,43.591 282.525,44.924 285.000 C 46.257 287.475,48.342 290.442,49.557 291.594 C 50.772 292.746,52.061 294.616,52.421 295.751 C 52.781 296.887,53.734 298.068,54.538 298.376 C 55.342 298.685,56.000 299.468,56.000 300.118 C 56.000 300.767,57.575 302.828,59.500 304.697 C 61.425 306.567,63.000 308.445,63.000 308.871 C 63.000 309.918,72.948 320.004,76.443 322.500 C 77.983 323.600,80.696 325.962,82.472 327.750 C 84.249 329.538,86.219 331.000,86.851 331.000 C 87.483 331.000,88.000 331.413,88.000 331.918 C 88.000 332.424,89.587 333.818,91.527 335.016 C 93.466 336.215,95.604 337.720,96.277 338.360 C 96.949 339.000,98.625 340.077,100.000 340.754 C 102.728 342.098,106.209 344.209,107.000 345.000 C 109.398 347.398,127.694 356.076,131.735 356.732 C 133.531 357.023,135.000 357.613,135.000 358.043 C 135.000 358.473,136.800 359.128,139.000 359.500 C 141.200 359.872,143.000 360.535,143.000 360.974 C 143.000 361.414,145.015 362.075,147.477 362.444 C 149.939 362.813,152.194 363.504,152.487 363.979 C 152.781 364.454,156.054 365.163,159.761 365.554 C 163.467 365.946,166.802 366.738,167.171 367.315 C 168.125 368.805,215.684 369.497,224.000 368.142 C 238.515 365.775,243.548 364.765,244.500 364.027 C 245.050 363.601,247.637 362.943,250.250 362.565 C 252.863 362.187,255.000 361.506,255.000 361.052 C 255.000 360.598,257.025 359.923,259.500 359.552 C 261.975 359.181,264.000 358.491,264.000 358.018 C 264.000 357.546,265.462 356.838,267.250 356.446 C 269.038 356.054,272.068 354.893,273.985 353.867 C 275.902 352.840,278.040 352.000,278.735 352.000 C 279.431 352.000,280.000 351.586,280.000 351.079 C 280.000 350.573,281.350 349.862,283.000 349.500 C 284.650 349.138,286.000 348.526,286.000 348.140 C 286.000 347.754,287.238 346.872,288.750 346.180 C 293.820 343.859,296.000 342.531,296.000 341.763 C 296.000 341.343,296.689 341.000,297.531 341.000 C 298.374 341.000,299.322 340.325,299.638 339.500 C 299.955 338.675,300.756 338.000,301.418 338.000 C 302.081 338.000,303.589 337.100,304.770 336.000 C 305.950 334.900,307.238 334.000,307.631 334.000 C 309.749 334.000,334.386 310.366,339.736 303.202 C 341.256 301.166,342.950 298.993,343.500 298.373 C 344.050 297.752,345.175 296.238,346.000 295.007 C 346.825 293.776,348.287 291.737,349.250 290.477 C 350.212 289.216,351.000 287.741,351.000 287.199 C 351.000 286.657,351.675 285.955,352.500 285.638 C 353.325 285.322,354.000 284.411,354.000 283.615 C 354.000 282.818,354.337 282.017,354.750 281.833 C 355.163 281.650,356.850 278.689,358.500 275.252 C 360.150 271.816,361.837 269.004,362.250 269.002 C 362.663 269.001,363.003 268.438,363.006 267.750 C 363.010 267.063,363.642 265.293,364.412 263.817 C 365.182 262.342,366.115 259.754,366.485 258.067 C 366.856 256.380,367.534 255.000,367.992 255.000 C 368.450 255.000,369.128 253.202,369.499 251.005 C 369.870 248.808,370.546 246.781,371.000 246.500 C 371.454 246.219,372.141 244.079,372.526 241.745 C 372.911 239.410,373.612 237.020,374.083 236.433 C 374.555 235.847,375.480 230.897,376.140 225.433 C 376.800 219.970,377.765 215.217,378.285 214.870 C 379.708 213.921,379.558 167.686,378.130 167.210 C 377.509 167.003,377.000 165.270,377.000 163.358 C 377.000 158.562,374.963 145.719,374.009 144.500 C 373.578 143.950,372.911 141.588,372.525 139.250 C 372.140 136.912,371.414 135.000,370.912 135.000 C 370.410 135.000,369.985 133.988,369.966 132.750 C 369.947 131.512,369.063 128.700,368.000 126.500 C 366.937 124.300,366.053 121.713,366.034 120.750 C 366.015 119.787,365.586 119.000,365.079 119.000 C 364.573 119.000,363.862 117.650,363.500 116.000 C 363.138 114.350,362.463 113.000,362.000 113.000 C 361.537 113.000,360.872 111.763,360.521 110.250 C 360.171 108.737,358.788 105.700,357.448 103.500 C 356.109 101.300,354.450 98.375,353.763 97.000 C 352.293 94.058,351.435 92.903,347.750 88.911 C 346.238 87.272,345.000 85.497,345.000 84.966 C 345.000 84.434,344.039 83.039,342.865 81.865 C 340.947 79.947,340.896 79.638,342.365 78.816 C 343.264 78.312,344.000 77.318,344.000 76.605 C 344.000 75.893,344.900 74.495,346.000 73.500 C 347.100 72.505,348.000 71.133,348.000 70.452 C 348.000 69.771,348.675 68.955,349.500 68.638 C 350.325 68.322,351.000 67.374,351.000 66.531 C 351.000 65.689,351.337 64.997,351.750 64.993 C 352.163 64.989,353.625 63.302,355.000 61.243 C 358.025 56.714,359.005 55.406,361.151 53.027 C 362.059 52.021,363.089 50.295,363.439 49.191 C 363.790 48.088,364.734 46.932,365.538 46.624 C 366.342 46.315,367.000 45.567,367.000 44.960 C 367.000 44.353,367.563 43.269,368.250 42.551 C 368.938 41.833,370.175 40.238,371.000 39.007 C 371.825 37.776,373.288 35.737,374.250 34.477 C 379.098 28.127,373.549 28.539,367.189 35.000 C 364.482 37.750,362.004 40.000,361.683 40.000 C 361.159 40.000,356.993 43.736,344.777 55.162 C 342.623 57.176,339.731 59.651,338.350 60.662 C 336.968 61.673,334.637 63.512,333.169 64.749 C 329.954 67.457,329.312 67.527,328.546 65.250 C 328.223 64.287,326.368 62.375,324.424 61.000 C 322.480 59.625,318.925 56.587,316.524 54.250 C 314.122 51.912,311.823 50.000,311.413 50.000 C 311.003 50.000,309.955 49.311,309.084 48.468 C 305.446 44.951,301.418 42.002,300.250 42.001 C 299.563 42.001,299.000 41.630,299.000 41.177 C 299.000 40.725,297.087 39.341,294.750 38.102 C 288.357 34.714,284.557 32.557,284.000 32.000 C 282.497 30.497,267.670 24.084,264.000 23.350 C 262.350 23.020,261.000 22.384,261.000 21.936 C 261.000 21.489,258.975 20.819,256.500 20.448 C 254.025 20.077,252.000 19.416,252.000 18.980 C 252.000 18.544,249.637 17.866,246.750 17.473 C 243.863 17.080,241.275 16.432,241.000 16.034 C 240.490 15.294,229.833 13.627,215.500 12.043 C 207.703 11.181,195.145 11.056,182.000 11.708 M271.097 69.656 C 271.869 70.292,274.637 71.131,277.250 71.520 C 279.863 71.909,282.000 72.608,282.000 73.073 C 282.000 73.539,283.800 74.459,286.000 75.118 C 288.200 75.777,290.000 76.665,290.000 77.091 C 290.000 77.517,290.978 78.176,292.173 78.555 C 294.573 79.317,295.223 79.809,301.011 85.249 C 305.853 89.800,305.840 89.451,301.307 93.335 C 299.275 95.076,295.429 98.638,292.759 101.250 C 290.089 103.863,287.575 106.000,287.173 106.000 C 286.770 106.000,283.906 108.475,280.808 111.500 C 277.710 114.525,274.899 117.000,274.561 117.000 C 274.224 117.000,271.233 119.584,267.916 122.742 C 264.599 125.901,261.234 128.849,260.438 129.295 C 259.642 129.740,256.824 132.219,254.176 134.802 C 251.528 137.386,246.514 141.975,243.033 145.000 C 239.553 148.025,234.185 152.863,231.106 155.750 C 228.027 158.637,225.151 161.000,224.715 161.000 C 224.278 161.000,221.796 163.137,219.199 165.750 C 216.601 168.363,212.906 171.695,210.988 173.155 C 209.069 174.616,205.535 177.667,203.134 179.936 C 198.794 184.036,196.699 184.457,193.577 181.859 C 188.615 177.729,187.525 177.000,186.316 177.000 C 185.557 177.000,184.678 176.325,184.362 175.500 C 184.045 174.675,183.366 174.000,182.853 174.000 C 181.749 174.000,175.648 169.833,175.167 168.750 C 174.983 168.338,174.182 168.000,173.385 168.000 C 172.589 168.000,171.678 167.325,171.362 166.500 C 171.045 165.675,170.191 165.000,169.464 165.000 C 168.738 165.000,167.548 164.437,166.821 163.748 C 165.154 162.169,157.233 157.000,156.479 157.000 C 156.169 157.000,155.372 156.542,154.708 155.981 C 149.919 151.943,148.546 151.000,147.454 151.000 C 146.772 151.000,145.955 150.325,145.638 149.500 C 145.322 148.675,144.411 148.000,143.615 148.000 C 142.818 148.000,142.017 147.662,141.833 147.250 C 141.380 146.229,135.281 142.000,134.263 142.000 C 133.813 142.000,132.674 141.100,131.732 140.000 C 130.790 138.900,129.340 138.000,128.510 138.000 C 127.679 138.000,127.000 137.550,127.000 137.000 C 127.000 136.450,126.100 136.000,125.000 136.000 C 123.887 136.000,123.000 136.667,123.000 137.504 C 123.000 138.331,123.900 140.686,125.000 142.739 C 126.100 144.791,127.000 147.040,127.000 147.735 C 127.000 148.431,127.450 149.000,128.000 149.000 C 128.550 149.000,129.000 149.606,129.000 150.347 C 129.000 151.088,129.900 152.732,131.000 154.000 C 132.100 155.268,133.000 156.912,133.000 157.653 C 133.000 158.394,133.450 159.000,134.000 159.000 C 134.550 159.000,135.000 159.614,135.000 160.364 C 135.000 161.114,137.413 166.402,140.363 172.114 C 148.151 187.195,149.416 189.463,150.250 189.833 C 150.662 190.017,151.000 190.648,151.000 191.237 C 151.000 192.520,155.993 203.288,156.919 204.000 C 157.276 204.275,158.672 206.862,160.020 209.750 C 161.369 212.637,162.767 215.000,163.128 215.000 C 163.488 215.000,164.093 216.233,164.471 217.740 C 164.849 219.247,165.498 220.709,165.913 220.990 C 166.880 221.644,172.000 232.535,172.000 233.938 C 172.000 234.522,172.406 235.000,172.902 235.000 C 173.398 235.000,174.239 236.238,174.770 237.750 C 176.027 241.327,183.926 249.528,187.059 250.507 C 188.402 250.926,189.821 251.771,190.214 252.385 C 192.305 255.653,217.000 252.589,217.000 249.061 C 217.000 248.597,218.118 247.936,219.485 247.593 C 221.018 247.208,222.208 246.018,222.593 244.485 C 222.936 243.118,223.568 242.000,223.996 242.000 C 224.425 242.000,226.739 239.077,229.138 235.505 C 231.537 231.933,233.838 229.008,234.250 229.005 C 234.662 229.002,235.000 228.347,235.000 227.550 C 235.000 226.752,235.563 225.740,236.250 225.300 C 237.906 224.240,242.000 218.360,242.000 217.040 C 242.000 216.468,242.374 216.000,242.832 216.000 C 243.289 216.000,245.055 213.863,246.755 211.250 C 248.456 208.638,250.782 205.506,251.924 204.292 C 253.066 203.077,254.000 201.715,254.000 201.264 C 254.000 200.813,254.900 199.674,256.000 198.732 C 257.100 197.790,258.000 196.340,258.000 195.510 C 258.000 194.679,258.464 194.000,259.031 194.000 C 259.599 194.000,260.363 193.213,260.731 192.250 C 261.098 191.287,262.209 189.628,263.200 188.561 C 264.190 187.495,265.000 186.081,265.000 185.418 C 265.000 184.756,265.675 183.955,266.500 183.638 C 267.325 183.322,268.000 182.374,268.000 181.531 C 268.000 180.689,268.337 179.997,268.750 179.993 C 269.163 179.989,270.625 178.302,272.000 176.243 C 275.335 171.250,276.186 170.156,278.250 168.207 C 279.212 167.299,280.000 165.976,280.000 165.268 C 280.000 164.560,280.900 163.210,282.000 162.268 C 283.100 161.326,284.000 160.187,284.000 159.736 C 284.000 159.285,284.434 158.372,284.965 157.708 C 285.496 157.044,287.197 154.925,288.744 153.000 C 290.291 151.075,292.895 147.475,294.529 145.000 C 296.163 142.525,297.950 139.993,298.500 139.373 C 299.050 138.752,300.175 137.248,301.000 136.029 C 301.825 134.811,303.288 132.887,304.250 131.754 C 305.212 130.621,306.000 129.088,306.000 128.347 C 306.000 127.606,306.403 127.000,306.896 127.000 C 307.388 127.000,309.164 124.861,310.842 122.246 C 312.520 119.632,314.748 116.574,315.795 115.451 C 316.841 114.328,317.955 112.754,318.270 111.954 C 318.600 111.116,318.876 111.630,318.921 113.167 C 318.964 114.633,319.562 116.021,320.250 116.250 C 321.235 116.578,321.500 132.279,321.500 190.283 C 321.500 247.843,321.227 264.173,320.250 265.150 C 319.563 265.837,318.989 267.097,318.975 267.950 C 318.938 270.223,311.860 284.022,308.979 287.439 C 303.682 293.721,294.647 302.000,293.090 302.000 C 292.490 302.000,292.000 302.414,292.000 302.921 C 292.000 303.427,290.650 304.138,289.000 304.500 C 287.350 304.862,286.000 305.524,286.000 305.971 C 286.000 306.418,284.762 307.092,283.250 307.469 C 281.738 307.846,278.925 308.907,277.000 309.827 C 272.607 311.927,125.471 312.441,122.904 310.365 C 122.132 309.741,120.081 308.928,118.348 308.557 C 111.348 307.062,103.874 302.242,94.234 293.006 C 88.091 287.120,88.034 287.043,83.510 278.286 C 81.866 275.104,80.233 272.275,79.883 272.000 C 79.532 271.725,78.910 269.475,78.500 267.000 C 78.090 264.525,77.248 262.179,76.628 261.786 C 74.908 260.698,75.029 119.824,76.750 119.250 C 77.438 119.021,78.003 117.633,78.006 116.167 C 78.010 114.700,78.685 112.211,79.506 110.636 C 80.328 109.060,81.000 107.180,81.000 106.457 C 81.000 105.734,81.606 104.537,82.346 103.797 C 83.087 103.056,84.472 100.807,85.425 98.799 C 88.117 93.126,103.700 78.000,106.853 78.000 C 107.484 78.000,108.000 77.634,108.000 77.187 C 108.000 75.996,117.301 72.135,121.972 71.388 C 124.188 71.034,126.000 70.374,126.000 69.922 C 126.000 67.861,268.603 67.600,271.097 69.656 " stroke="none" fill="#000000" fill-rule="evenodd"></path></g></svg>