<?xml version="1.0" encoding="utf-8"?>
<!-- Generated by IcoMoon.io -->
<!DOCTYPE svg PUBLIC "-//W3C//DTD SVG 1.1//EN" "http://www.w3.org/Graphics/SVG/1.1/DTD/svg11.dtd">
<svg version="1.1" xmlns="http://www.w3.org/2000/svg" xmlns:xlink="http://www.w3.org/1999/xlink" width="28" height="32" viewBox="0 0 28 32">
<path fill="#000" d="M26 2h-6c0-0.552-0.894-2-2-2h-8c-1.106 0-2 1.448-2 2h-6c-1.106 0-2 0.894-2 2v26c0 1.106 0.894 2 2 2h24c1.106 0 2-0.894 2-2v-26c0-1.106-0.894-2-2-2zM12 4h4v2h-4v-2zM24 28h-20v-22h4v2c0 1.106 0.894 2 2 2h8c1.106 0 2-0.894 2-2v-2h4v22z"></path>
<path d="M19 14h-10c-0.552 0-1 0.448-1 1v2c0 0.552 0.448 1 1 1h10c0.552 0 1-0.448 1-1v-2c0-0.552-0.448-1-1-1z"></path>
<path d="M19 20h-10c-0.552 0-1 0.448-1 1v2c0 0.552 0.448 1 1 1h10c0.552 0 1-0.448 1-1v-2c0-0.552-0.448-1-1-1z"></path>
</svg>
