<?xml version="1.0" encoding="utf-8"?>
<!-- Generated by IcoMoon.io -->
<!DOCTYPE svg PUBLIC "-//W3C//DTD SVG 1.1//EN" "http://www.w3.org/Graphics/SVG/1.1/DTD/svg11.dtd">
<svg version="1.1" xmlns="http://www.w3.org/2000/svg" xmlns:xlink="http://www.w3.org/1999/xlink" width="32" height="32" viewBox="0 0 32 32">
<path fill="#000" d="M26.667 13.298c0-5.333-4.391-8.853-9.796-8.853-5.067 0-9.76 3.556-9.76 8.853-1.956 0-3.733 0.8-5.013 2.098-1.298 1.282-2.098 3.060-2.098 5.031 0 3.911 3.182 7.093 7.111 7.093h4.444c0.491 0 0.889-0.398 0.889-0.889v-1.778c0-0.491-0.398-0.889-0.889-0.889h-4.444c-1.778 0-3.556-1.584-3.556-3.538 0-1.972 1.6-3.573 3.556-3.573h2.667c0.491 0 0.889-0.398 0.889-0.889v-2.702c0-1.316 0.462-2.455 1.387-3.396 1.173-1.172 2.969-1.867 4.818-1.867 3.004 0 6.24 1.655 6.24 5.298v2.667c0 0.491 0.398 0.889 0.889 0.889h0.889c1.778 0 3.556 1.778 3.556 3.556s-1.618 3.556-3.573 3.556h-4.427c-0.491 0-0.889 0.398-0.889 0.889v1.778c0 0.491 0.398 0.889 0.889 0.889h4.444c3.929-0.018 7.076-3.182 7.076-7.093 0-3.305-2.24-6.347-5.298-7.129z"></path>
<path d="M21.173 19.52l-4.599-5.906c-0.316-0.416-0.832-0.423-1.148-0.007l-4.599 5.913c-0.318 0.42-0.146 0.889 0.382 0.889h3.013v4.444c0 0.489 0.398 0.889 0.889 0.889h1.778c0.491 0 0.889-0.4 0.889-0.889v-4.444h3.013c0.528 0 0.7-0.469 0.382-0.889z"></path>
</svg>
