<?xml version="1.0" encoding="utf-8"?>
<!-- Generated by IcoMoon.io -->
<!DOCTYPE svg PUBLIC "-//W3C//DTD SVG 1.1//EN" "http://www.w3.org/Graphics/SVG/1.1/DTD/svg11.dtd">
<svg version="1.1" xmlns="http://www.w3.org/2000/svg" xmlns:xlink="http://www.w3.org/1999/xlink" width="32" height="32" viewBox="0 0 32 32">
<path fill="#000" d="M21.316 21.298v-1.778c0-0.491-0.398-0.889-0.889-0.889h-2.667v-2.667c0-0.491-0.398-0.889-0.889-0.889h-1.778c-0.491 0-0.889 0.398-0.889 0.889v2.667h-2.667c-0.491 0-0.889 0.398-0.889 0.889v1.778c0 0.491 0.398 0.889 0.889 0.889h2.667v2.667c0 0.491 0.398 0.889 0.889 0.889h1.778c0.491 0 0.889-0.398 0.889-0.889v-2.667h2.667c0.492 0 0.889-0.396 0.889-0.889z"></path>
<path d="M16.871 4.444c-5.065 0-9.76 3.556-9.76 8.853-1.956 0-3.733 0.8-5.012 2.098-1.3 1.282-2.1 3.060-2.1 5.031 0 3.911 3.182 7.093 7.111 7.093h4.427c0.491 0 0.889-0.398 0.889-0.889v-1.778c0-0.491-0.398-0.889-0.889-0.889h-4.427c-1.778 0-3.556-1.584-3.556-3.538 0-0.587 0.142-1.156 0.409-1.653 0.587-1.14 1.778-1.92 3.147-1.92h2.649c0.491 0 0.889-0.398 0.889-0.889v-2.702c0-0.624 0.098-1.211 0.311-1.742 0.231-0.604 0.599-1.156 1.081-1.653 1.175-1.172 2.974-1.867 4.823-1.867 2.987 0 6.229 1.655 6.229 5.298v2.667c0 0.491 0.398 0.889 0.889 0.889h0.907c1.211 0 2.436 0.837 3.076 1.92 0.302 0.517 0.48 1.067 0.48 1.636 0 1.778-1.616 3.556-3.573 3.556h-4.444c-0.491 0-0.889 0.398-0.889 0.889v1.778c0 0.491 0.398 0.889 0.889 0.889h4.462c3.931-0.018 7.076-3.182 7.076-7.093 0-3.305-2.24-6.347-5.298-7.129 0-5.333-4.391-8.853-9.796-8.853z"></path>
</svg>
