<?xml version="1.0" encoding="UTF-8" standalone="no"?>
<svg width="97px" height="80px" viewBox="0 0 97 80" version="1.1" xmlns="http://www.w3.org/2000/svg" xmlns:xlink="http://www.w3.org/1999/xlink">
    <!-- Generator: Sketch 44.1 (41455) - http://www.bohemiancoding.com/sketch -->
    <title>consolidate</title>
    <desc>Created with Sketch.</desc>
    <defs></defs>
    <g id="Hybrid-Designation-First-Run" stroke="none" stroke-width="1" fill="none" fill-rule="evenodd">
        <g id="Artboard-7-Copy-10" transform="translate(-342.000000, -387.000000)">
            <g id="consolidate" transform="translate(341.000000, 387.000000)">
                <path d="M71.1171681,58.7638938 C71.1088715,58.730708 71.0978096,58.6975221 71.0867476,58.6643398 C71.0756857,58.6311575 71.0646237,58.5979681 71.0480312,58.5675469 C71.0342039,58.5371271 71.0176106,58.5094719 71.0010173,58.4818195 C70.9816595,58.4486336 70.9623009,58.4182131 70.940177,58.3877947 C70.9318804,58.3767327 70.9263497,58.3629055 70.9152878,58.3518435 L61.4321019,46.5791002 C61.2302188,46.32744 60.9260205,46.1836382 60.6051993,46.1836382 L35.051925,46.1836382 C34.7449586,46.1836382 34.4518117,46.3163816 34.2527037,46.5486789 L23.9787214,58.3185904 C23.9648935,58.3351837 23.9565975,58.3517763 23.9427696,58.3683688 C23.9206457,58.3987894 23.8957565,58.4292099 23.8763979,58.4623936 C23.8598053,58.4900488 23.8432127,58.5204687 23.8293848,58.5508892 C23.8127922,58.584075 23.798965,58.6144956 23.7879023,58.6476821 C23.774075,58.680868 23.7657784,58.7140538 23.7574825,58.7472361 C23.7491858,58.7804219 23.7408892,58.8136078 23.7353586,58.844029 C23.7298273,58.8827455 23.7270619,58.9186981 23.7242966,58.9546485 C23.7215306,58.9740064 23.7187653,58.9961303 23.7187653,59.0154888 L23.7187653,78.771949 C23.7187653,79.3582287 24.1944326,79.8338959 24.7807122,79.8338959 L70.0904467,79.8338959 C70.6767264,79.8338959 71.1523936,79.3582287 71.1523936,78.771949 L71.1496283,59.0154888 C71.1496283,59.0016616 71.146863,58.9878336 71.1440977,58.9712411 C71.1413317,58.9352899 71.1385664,58.896572 71.133035,58.8606216 C71.1302697,58.8302011 71.1247391,58.7970152 71.1164425,58.7638287 L71.1171681,58.7638938 Z M35.5334513,48.3072566 L60.0962832,48.3072566 L67.8676106,57.9561062 L54.8092035,57.9533409 C54.2229239,57.9533409 53.7472566,58.4290081 53.7472566,59.0152878 C53.7472566,62.4970577 50.9153982,65.3289161 47.4336283,65.3289161 C43.9518584,65.3289161 41.12,62.4970577 41.12,59.0152878 C41.12,58.4290081 40.6443327,57.9533409 40.0580531,57.9533409 L27.1157522,57.9533409 L35.5334513,48.3072566 Z M69.0265487,77.7097345 L25.840708,77.7097345 L25.840708,60.0771681 L39.0626549,60.0771681 C39.585331,64.2309381 43.1417345,67.4527434 47.4336283,67.4527434 C51.7255221,67.4527434 55.2821239,64.2309381 55.8046018,60.0771681 L69.0265487,60.0771681 L69.0265487,77.7097345 Z" id="Shape" fill="#255984" fill-rule="nonzero"></path>
                <g id="Group-5" fill-rule="nonzero" fill="#255984">
                    <g id="np_id-card_455925_000000" transform="translate(80.823690, 31.813562) rotate(30.000000) translate(-80.823690, -31.813562) translate(65.956433, 22.610022)">
                        <path d="M29.6794094,16.5406399 L29.6794094,2.09867257 C29.6794094,1.11026549 28.8707607,0.306147039 27.8755837,0.306147039 L1.93382559,0.304950511 C0.939850018,0.304950511 0.131201325,1.10906896 0.131201325,2.09747604 L0.131201325,16.5403624 C0.131201325,17.5299641 0.939850018,18.3340826 1.93382559,18.3340826 L27.8755837,18.3340826 C28.8707607,18.3340826 29.6794094,17.5299641 29.6794094,16.5403624 L29.6794094,16.5406399 Z M28.4772799,16.5406399 C28.4772799,16.8708952 28.2065259,17.1389346 27.8756145,17.1389346 L1.93385639,17.1389346 C1.60294195,17.1389346 1.33339238,16.8708952 1.33339238,16.5406399 L1.33339238,2.09867257 C1.33339238,1.76841729 1.60294195,1.5015725 1.93385639,1.5015725 L27.8756145,1.5015725 C28.206529,1.5015725 28.4772799,1.76841423 28.4772799,2.09867257 L28.4772799,16.5406399 Z" id="Shape"></path>
                        <path d="M10.6747789,9.0655548 C11.0092976,8.57135126 11.1970273,7.98383935 11.1970273,7.37476174 C11.1970273,5.69949966 9.82642166,4.3365725 8.14172148,4.3365725 C6.4570213,4.3365725 5.08641568,5.69949966 5.08641568,7.37476174 C5.08641568,8.00059564 5.28376293,8.60366916 5.6363584,9.10623553 C5.24888475,9.31444554 4.83251539,9.64350919 4.54010803,10.1592478 C3.88909192,11.3032097 4.58463145,13.4761981 4.73023751,13.8998536 C4.81567394,14.1475497 5.04913775,14.3043022 5.29943377,14.3043022 C5.36441524,14.3043022 5.42939671,14.2935329 5.49437509,14.2719935 C5.80843884,14.1654946 5.9757136,13.8256695 5.86860231,13.5133346 C5.58581555,12.6936545 5.30060747,11.2493659 5.58702005,10.7467995 C5.957643,10.0946518 6.72538177,9.95943737 6.8120381,9.94626515 C7.05391186,9.90917155 7.24886243,9.73087781 7.30422021,9.49393703 C7.36077632,9.25700851 7.26811905,9.01051634 7.0695673,8.86929782 C6.58102026,8.52228625 6.28981432,7.96347754 6.28981432,7.37354561 C6.28981432,6.35763002 7.12132081,5.53078182 8.14295987,5.53078182 C9.16580035,5.53078182 9.99610542,6.35763002 9.99610542,7.37354561 C9.99610542,7.96467223 9.68925328,8.54621069 9.19466526,8.88963819 C8.92270977,9.07870252 8.85531006,9.45083628 9.04665328,9.72126515 C9.18985033,9.92588496 9.43893261,10.0120405 9.6699751,9.96178387 C9.89500123,10.0108458 10.5038844,10.191532 10.8203818,10.7467566 C11.1079804,11.2517124 10.8288053,12.6672978 10.5387996,13.512097 C10.4317006,13.8244013 10.5989661,14.1642447 10.9130268,14.270756 C10.9780083,14.2922947 11.0429897,14.3030647 11.1079681,14.3030647 C11.3570596,14.3030647 11.590508,14.1475068 11.6771644,13.8986161 C11.8239718,13.4750218 12.518313,11.3031668 11.8672939,10.1580102 C11.5496258,9.60278557 11.0887423,9.27014091 10.6747758,9.06551191 L10.6747789,9.0655548 Z" id="Shape"></path>
                        <path d="M24.9430385,5.50782845 L15.3775716,5.50782845 C15.0454557,5.50782845 14.7759062,5.77467018 14.7759062,6.10612321 C14.7759062,6.43637849 15.0454557,6.70322328 15.3775716,6.70322328 L24.9430385,6.70322328 C25.2751543,6.70322328 25.5447039,6.43638155 25.5447039,6.10612321 C25.5447039,5.77467325 25.2751543,5.50782845 24.9430385,5.50782845 Z" id="Shape"></path>
                        <path d="M24.9430385,8.72215793 L15.3775716,8.72215793 C15.0454557,8.72215793 14.7759062,8.98899966 14.7759062,9.32045269 C14.7759062,9.65070796 15.0454557,9.91874745 15.3775716,9.91874745 L24.9430385,9.91874745 C25.2751543,9.91874745 25.5447039,9.65190572 25.5447039,9.32045269 C25.5447039,8.99019741 25.2751543,8.72215793 24.9430385,8.72215793 Z" id="Shape"></path>
                        <path d="M24.9430385,11.9361811 L15.3775716,11.9361811 C15.0454557,11.9361811 14.7759062,12.2030228 14.7759062,12.5344758 C14.7759062,12.8647311 15.0454557,13.1327706 15.3775716,13.1327706 L24.9430385,13.1327706 C25.2751543,13.1327706 25.5447039,12.8659289 25.5447039,12.5344758 C25.5447039,12.2030228 25.2751543,11.9361811 24.9430385,11.9361811 Z" id="Shape"></path>
                    </g>
                    <g id="np_agreement_1056238_000000" transform="translate(16.549919, 28.596713) rotate(-30.000000) translate(-16.549919, -28.596713) translate(5.576468, 14.791403)">
                        <path d="M3.43263119,0 C1.54350168,0 0,1.53485461 0,3.41340076 L0,23.5145386 C0,23.933818 0.341176842,24.2730721 0.76280693,24.2730721 L10.2978936,24.2730721 L10.2978936,26.5486726 C10.2978936,26.8301606 10.45433,27.087952 10.7031347,27.2197851 C10.9534308,27.351641 11.2558646,27.3353439 11.4897794,27.1768217 L13.3491213,25.9442048 L15.2084632,27.1768217 C15.4423703,27.3353439 15.7447927,27.351641 15.9951078,27.2197851 C16.2439126,27.0879292 16.400349,26.8301643 16.400349,26.5486726 L16.400349,24.2730721 L19.0701733,24.2730721 C19.4918148,24.2730721 19.8329802,23.9338066 19.8329802,23.5145386 L19.8329802,6.06826802 L20.5957871,6.06826802 C21.0174286,6.06826802 21.358594,5.72900253 21.358594,5.30973451 L21.358594,3.41340076 C21.358594,1.53485461 19.8150924,0 17.9259629,0 L3.43263119,0 Z M3.43263119,1.517067 L3.61141406,1.517067 C3.64270097,1.52743767 3.67398711,1.53484513 3.70676493,1.54077118 C4.63643587,1.67114412 5.33962944,2.44152971 5.33962944,3.41340076 L5.33962944,5.30973451 C5.33962944,5.72901391 5.68080628,6.06826802 6.10243637,6.06826802 L18.3073473,6.06826802 L18.3073473,22.7560051 L16.4003299,22.7560051 L16.4003299,21.9856384 C16.8770843,21.3530215 17.1631369,20.5693047 17.1631369,19.721871 C17.1631369,17.6359039 15.4468213,15.9292035 13.3491022,15.9292035 C11.2513831,15.9292035 9.53506756,17.6359039 9.53506756,19.721871 C9.53506756,20.5693047 9.82112015,21.3530215 10.2978745,21.9856384 L10.2978745,22.7560051 L1.52559479,22.7560051 L1.52559479,3.41340076 C1.52559479,2.3496713 2.36288982,1.517067 3.43261212,1.517067 L3.43263119,1.517067 Z M6.23358195,1.517067 L17.9258866,1.517067 C18.9956089,1.517067 19.8329039,2.3496713 19.8329039,3.41340076 L19.8329039,4.55120101 L6.86518609,4.55120101 L6.86518609,3.41340076 C6.86518609,2.70079646 6.61042002,2.06522124 6.23350567,1.517067 L6.23358195,1.517067 Z M3.36115618,7.20606827 C3.15853559,7.21495752 2.96785292,7.30384703 2.83226399,7.45347914 C2.69519521,7.60162832 2.62517335,7.79867257 2.63411345,8.00015424 C2.64305355,8.2016359 2.73244308,8.39125411 2.88291819,8.52608344 C3.03190201,8.66238432 3.23005636,8.73201391 3.43267314,8.72312389 L16.400391,8.72312389 C16.6045028,8.72608673 16.8011697,8.64756637 16.947171,8.50534134 C17.0916885,8.36163338 17.1736293,8.16755879 17.1736293,7.96458281 C17.1736293,7.76160683 17.0916885,7.56752845 16.947171,7.42382427 C16.8011659,7.28159924 16.6045028,7.20307965 16.400391,7.20604172 L3.43267314,7.20604172 C3.40883542,7.2045603 3.38499771,7.2045603 3.36115999,7.20604172 L3.36115618,7.20606827 Z M3.36115618,9.86093552 C3.15853559,9.86982478 2.96785292,9.95871429 2.83226399,10.1083464 C2.69519521,10.2564956 2.62517335,10.4535398 2.63411345,10.6550215 C2.64305355,10.8565032 2.73244308,11.0461214 2.88291819,11.1809507 C3.03190201,11.3172516 3.23005636,11.3868812 3.43267314,11.3779912 L16.400391,11.3779912 C16.6045028,11.380954 16.8011697,11.3024336 16.947171,11.1602086 C17.0916885,11.0165006 17.1736293,10.822426 17.1736293,10.6194501 C17.1736293,10.4164741 17.0916885,10.2223957 16.947171,10.0786915 C16.8011659,9.9364665 16.6045028,9.8579469 16.400391,9.86090898 L3.43267314,9.86090898 C3.40883542,9.85942756 3.38499771,9.85942756 3.36115999,9.86090898 L3.36115618,9.86093552 Z M3.36115618,12.5158028 C3.15853559,12.524692 2.96785292,12.6135815 2.83226399,12.7632137 C2.69519521,12.9113628 2.62517335,13.1084071 2.63411345,13.3098887 C2.64305355,13.5113704 2.73244308,13.7009886 2.88291819,13.835818 C3.03190201,13.9721188 3.23005636,14.0417484 3.43267314,14.0328584 L16.400391,14.0328584 C16.6045028,14.0358212 16.8011697,13.9573009 16.947171,13.8150759 C17.0916885,13.6713679 17.1736293,13.4772933 17.1736293,13.2743173 C17.1736293,13.0713413 17.0916885,12.877263 16.947171,12.7335588 C16.8011659,12.5913338 16.6045028,12.5128142 16.400391,12.5157762 L3.43267314,12.5157762 C3.40883542,12.5142948 3.38499771,12.5142948 3.36115999,12.5157762 L3.36115618,12.5158028 Z M3.36115618,15.17067 C3.15853559,15.1795593 2.96785292,15.2684488 2.83226399,15.4180809 C2.69519521,15.5662301 2.62517335,15.7632743 2.63411345,15.964756 C2.64305355,16.1662377 2.73244308,16.3558559 2.88291819,16.4906852 C3.03190201,16.6269861 3.23005636,16.6966157 3.43267314,16.6877257 L8.77232165,16.6877257 C8.97643353,16.6906885 9.17310041,16.6121681 9.31910166,16.4699431 C9.46361924,16.3262351 9.54555997,16.1321606 9.54555997,15.9291846 C9.54555997,15.7262086 9.46361924,15.5321302 9.31910166,15.388426 C9.1730966,15.246201 8.97643353,15.1676814 8.77232165,15.1706435 L3.43267314,15.1706435 C3.40883542,15.1691621 3.38499771,15.1691621 3.36115999,15.1706435 L3.36115618,15.17067 Z M13.3493501,17.4462705 C14.6216739,17.4462705 15.6377709,18.4566751 15.6377709,19.721871 C15.6377709,20.987067 14.6216739,21.9974716 13.3493501,21.9974716 C12.0770263,21.9974716 11.0609293,20.987067 11.0609293,19.721871 C11.0609293,18.4566751 12.0770263,17.4462705 13.3493501,17.4462705 Z M11.8237363,23.1944374 C12.2930532,23.4003679 12.8055451,23.5144437 13.3493501,23.5144437 C13.8931552,23.5144437 14.405647,23.4003679 14.874964,23.1944374 L14.874964,25.1263464 L13.778429,24.4033881 C13.5191929,24.2285689 13.1795112,24.2285689 12.9202712,24.4033881 L11.8237363,25.1263464 L11.8237363,23.1944374 Z" id="Shape"></path>
                    </g>
                    <g id="np_website_1045115_000000" transform="translate(30.970958, 0.000000)">
                        <path d="M29.3203914,0.149810367 L2.71749969,0.149810367 C1.40642528,0.149810367 0.341165399,1.21058154 0.341165399,2.51283186 L0.341165399,26.3118205 C0.341165399,27.6155499 1.40791275,28.674842 2.71749969,28.674842 L29.3203914,28.674842 C30.6314658,28.674842 31.6967257,27.6140708 31.6967257,26.3118205 L31.6967257,2.51283186 C31.6967257,1.2091024 30.6314658,0.149810367 29.3203914,0.149810367 Z M8.58920603,26.982933 L2.71749969,26.982933 C2.34503632,26.982933 2.04260626,26.6821858 2.04260626,26.3118205 L2.04260626,9.23723135 L8.58748972,9.23723135 L8.58920603,26.982933 Z M29.9954755,26.3118205 C29.9954755,26.6821972 29.693034,26.982933 29.3205821,26.982933 L10.2904562,26.982933 L10.2904562,9.23742099 L29.9937592,9.23742099 L29.9954755,26.3118205 Z M29.9954755,7.54570164 L2.04279696,7.54570164 L2.04279696,2.51283186 C2.04279696,2.14245512 2.34523846,1.84171934 2.71769039,1.84171934 L29.3205821,1.84171934 C29.6930454,1.84171934 29.9954755,2.1424665 29.9954755,2.51283186 L29.9954755,7.54570164 Z M27.2705385,3.4374842 C26.5911826,3.4374842 26.0384146,3.98711757 26.0384146,4.66270544 C26.0384146,5.3382933 26.5911445,5.88792668 27.2705385,5.88792668 C27.9499324,5.88792668 28.5026623,5.3382933 28.5026623,4.66270544 C28.5026623,3.98711757 27.9499324,3.4374842 27.2705385,3.4374842 Z M23.4565038,3.4374842 C22.7771479,3.4374842 22.2243799,3.98711757 22.2243799,4.66270544 C22.2243799,5.3382933 22.7771098,5.88792668 23.4565038,5.88792668 C24.1358978,5.88792668 24.6886277,5.3382933 24.6886277,4.66270544 C24.6886277,3.98711757 24.1358978,3.4374842 23.4565038,3.4374842 Z M19.6424692,3.4374842 C18.9631133,3.4374842 18.4103453,3.98711757 18.4103453,4.66270544 C18.4103453,5.3382933 18.9630752,5.88792668 19.6424692,5.88792668 C20.3218631,5.88792668 20.874593,5.3382933 20.874593,4.66270544 C20.874593,3.98711757 20.3218631,3.4374842 19.6424692,3.4374842 Z" id="Shape"></path>
                    </g>
                </g>
                <g id="np_down_872737_000000" transform="translate(37.522124, 33.274336)">
                    <circle id="Oval-2" stroke="#255984" fill="#255984" cx="9.91150442" cy="9.91150442" r="9.91150442"></circle>
                    <path d="M9.87822574,4.24778761 C10.2507086,4.24778761 10.5529116,4.61983191 10.5529116,4.92159643 L10.5529116,14.3540428 C10.5529116,14.7260871 10.2507086,15.0278516 9.87822574,15.0278516 C9.50574289,15.0278516 9.20353982,14.6558073 9.20353982,14.3540428 L9.20353982,4.92159643 C9.20353982,4.54955213 9.50574289,4.24778761 9.87822574,4.24778761 Z" id="Shape" fill="#FFFFFF" fill-rule="nonzero"></path>
                    <path d="M13.3739517,11.5244335 C13.6375065,11.7871 13.5874223,12.2628097 13.3739517,12.4754033 L10.3369655,15.502719 C10.0734107,15.7653854 9.64646946,15.7653854 9.38291466,15.502719 C9.11935985,15.2400525 9.16944403,14.7643427 9.38291466,14.5517492 L12.4199008,11.5244335 C12.6834557,11.261767 13.1103969,11.261767 13.3739517,11.5244335 Z" id="Shape" fill="#FFFFFF" fill-rule="nonzero"></path>
                    <path d="M6.56934752,11.5063035 C6.83290233,11.243637 7.30991651,11.2932714 7.52339838,11.5063035 L10.5603846,14.5336192 C10.8239394,14.7962856 10.8239394,15.2219225 10.5603846,15.484589 C10.2968298,15.7472554 9.81981557,15.697621 9.60633371,15.484589 L6.56934752,12.4572733 C6.30579271,12.1946068 6.30579271,11.76897 6.56934752,11.5063035 Z" id="Shape" fill="#FFFFFF" fill-rule="nonzero"></path>
                </g>
            </g>
        </g>
    </g>
</svg>