<?xml version="1.0" encoding="utf-8"?>
<!-- Generated by IcoMoon.io -->
<!DOCTYPE svg PUBLIC "-//W3C//DTD SVG 1.1//EN" "http://www.w3.org/Graphics/SVG/1.1/DTD/svg11.dtd">
<svg version="1.1" xmlns="http://www.w3.org/2000/svg" xmlns:xlink="http://www.w3.org/1999/xlink" width="32" height="32" viewBox="0 0 32 32">
<path fill="#000" d="M30 3h-28c-1.106 0-2 0.894-2 2v22c0 1.106 0.894 2 2 2h28c1.106 0 2-0.894 2-2v-22c0-1.106-0.894-2-2-2zM28 25h-24v-12h24v12zM28 9h-24v-2h24v2z"></path>
<path d="M19 23h6c0.552 0 1-0.448 1-1v-2c0-0.552-0.448-1-1-1h-6c-0.552 0-1 0.448-1 1v2c0 0.552 0.448 1 1 1z"></path>
</svg>
