<?xml version="1.0" encoding="UTF-8" standalone="no"?>
<svg width="74px" height="56px" viewBox="0 0 74 56" version="1.1" xmlns="http://www.w3.org/2000/svg" xmlns:xlink="http://www.w3.org/1999/xlink">
    <!-- Generator: Sketch 44.1 (41455) - http://www.bohemiancoding.com/sketch -->
    <title>data-lock</title>
    <desc>Created with Sketch.</desc>
    <defs></defs>
    <g id="Hybrid-Designation-First-Run" stroke="none" stroke-width="1" fill="none" fill-rule="evenodd">
        <g id="Artboard-7-Copy-6" transform="translate(-303.000000, -295.000000)">
            <g id="data-lock" transform="translate(303.000000, 295.000000)">
                <path d="M47,24.4196938 L47,19.6196938 C47,19.1196938 46.4,18.8196938 46,19.1196938 C41.1,23.0196938 32.3,25.0196938 23.5,25.0196938 C14.8,25.0196938 6,23.0196938 1,19.1196938 C0.6,18.8196938 0,19.1196938 0,19.6196938 L0,24.4196938 L0,24.4196938 L0,24.8196938 C0,30.4196938 10.5,35.0196938 23.5,35.0196938 C36.5,35.0196938 47,30.4196938 47,24.7196938 L47,24.4196938 L47,24.4196938 Z" id="Shape" fill="#255984" fill-rule="nonzero"></path>
                <path d="M47,38.4196938 L47,33.6196938 C47,33.1196938 46.4,32.8196938 46,33.1196938 C41.1,37.0196938 32.3,39.0196938 23.5,39.0196938 C14.8,39.0196938 6,37.0196938 1,33.1196938 C0.6,32.8196938 0,33.1196938 0,33.6196938 L0,38.4196938 L0,38.4196938 L0,38.8196938 C0,44.4196938 10.5,49.0196938 23.5,49.0196938 C36.5,49.0196938 47,44.4196938 47,38.7196938 L47,38.4196938 L47,38.4196938 Z" id="Shape" fill="#255984" fill-rule="nonzero"></path>
                <ellipse id="Oval" fill="#255984" fill-rule="nonzero" cx="23.5" cy="10.3" rx="23.5" ry="10.3"></ellipse>
                <circle id="Path" stroke="#6BA0D5" stroke-width="3" fill="#FFFFFF" cx="55.8331074" cy="37.8331074" r="15.8331074"></circle>
                <path d="M59.6192852,35.4237215 L52.0469295,35.4237215 L52.0469295,32.8996029 C52.0469295,30.8121568 53.7456613,29.1134251 55.8331074,29.1134251 C57.9205534,29.1134251 59.6192852,30.8121568 59.6192852,32.8996029 L59.6192852,35.4237215 L59.6192852,35.4237215 Z M62.1434038,35.4237215 L62.1434038,32.8996029 C62.1434038,29.4137952 59.3189151,26.5893065 55.8331074,26.5893065 C52.3472996,26.5893065 49.522811,29.4137952 49.522811,32.8996029 L49.522811,35.4237215 C48.8248922,35.4237215 48.2607517,35.987862 48.2607517,36.6857807 L48.2607517,45.5201957 C48.2607517,46.2181145 48.8248922,46.782255 49.522811,46.782255 L62.1434038,46.782255 C62.8413226,46.782255 63.4054631,46.2181145 63.4054631,45.5201957 L63.4054631,36.6857807 C63.4054631,35.987862 62.8413226,35.4237215 62.1434038,35.4237215 L62.1434038,35.4237215 Z" id="Fill-497" fill="#6BA0D5"></path>
            </g>
        </g>
    </g>
</svg>