<!-- Generated by IcoMoon.io -->
<svg version="1.1" xmlns="http://www.w3.org/2000/svg" width="31" height="32" viewBox="0 0 31 32">
<title>database</title>
<path d="M30.884 15.517v-3.163c0-0.329-0.394-0.527-0.657-0.329-3.22 2.57-9.002 3.888-14.785 3.888-5.717 0-11.499-1.318-14.785-3.888-0.263-0.198-0.657 0-0.657 0.329v3.426c0 3.69 6.9 6.721 15.442 6.721s15.442-3.031 15.442-6.787v-0.198z"></path>
<path d="M30.884 24.742v-3.163c0-0.329-0.394-0.527-0.657-0.329-3.22 2.57-9.002 3.888-14.785 3.888-5.717 0-11.499-1.318-14.785-3.888-0.263-0.198-0.657 0-0.657 0.329v3.426c0 3.69 6.9 6.721 15.442 6.721s15.442-3.031 15.442-6.787v-0.198z"></path>
<path d="M30.884 6.787c0 3.748-6.914 6.787-15.442 6.787s-15.442-3.039-15.442-6.787c0-3.748 6.914-6.787 15.442-6.787s15.442 3.039 15.442 6.787z"></path>
</svg>
