<!-- Generated by IcoMoon.io -->
<svg version="1.1" xmlns="http://www.w3.org/2000/svg" width="25" height="32" viewBox="0 0 25 32">
<title>document-financial</title>
<path d="M1.793 0.152c-0.941 0-1.793 0.765-1.793 1.758v28.129c0 0.993 0.851 1.758 1.793 1.758h20.902c0.941 0 1.793-0.765 1.793-1.758v-28.129c0-0.993-0.851-1.758-1.793-1.758h-20.902zM2.099 2.262h20.289v27.426h-20.289v-27.426zM6.996 2.965c-0.58 0-1.049 0.472-1.049 1.055v0.154c-0.393 0.117-0.764 0.299-1.082 0.56-0.592 0.485-0.984 1.262-0.984 2.099 0 0.908 0.577 1.707 1.159 2.066s1.141 0.493 1.585 0.67c0.576 0.231 1.053 0.391 1.257 0.516 0.419 0.642-0.408 0.961-0.875 0.967-0.577 0-1.027-0.382-1.192-0.659-0.246-0.532-0.978-0.763-1.476-0.461s-0.652 1.067-0.306 1.538c0.385 0.651 1.047 1.238 1.913 1.516v0.176c0 0.583 0.47 1.055 1.049 1.055s1.049-0.472 1.049-1.055v-0.143c0.399-0.117 0.77-0.307 1.093-0.571 0.592-0.485 0.984-1.262 0.984-2.099 0-0.908-0.577-1.707-1.159-2.066s-1.141-0.504-1.585-0.681c-0.576-0.231-1.053-0.38-1.257-0.505-0.42-0.651 0.412-0.962 0.885-0.967 0.577 0 1.028 0.382 1.192 0.659 0.26 0.513 0.967 0.716 1.454 0.418s0.644-1.033 0.317-1.505c-0.387-0.655-1.050-1.254-1.924-1.527v-0.154c0-0.583-0.47-1.055-1.049-1.055zM12.943 7.184c-0.58 0-1.049 0.472-1.049 1.055s0.47 1.055 1.049 1.055h6.297c0.58 0 1.049-0.472 1.049-1.055s-0.47-1.055-1.049-1.055h-6.297zM12.943 11.052c-0.58 0-1.049 0.472-1.049 1.055s0.47 1.055 1.049 1.055h6.297c0.58 0 1.049-0.472 1.049-1.055s-0.47-1.055-1.049-1.055h-6.297zM5.247 14.92c-0.58 0-1.049 0.472-1.049 1.055s0.47 1.055 1.049 1.055h13.993c0.58 0 1.049-0.472 1.049-1.055s-0.47-1.055-1.049-1.055h-13.993zM5.247 18.788c-0.58 0-1.049 0.472-1.049 1.055s0.47 1.055 1.049 1.055h13.993c0.58 0 1.049-0.472 1.049-1.055s-0.47-1.055-1.049-1.055h-13.993zM10.757 21.952c-0.393 0.032-0.735 0.282-0.885 0.648l-1.541 3.725-0.885 0.22c-0.564 0.14-0.91 0.713-0.771 1.28s0.709 0.914 1.274 0.775l1.399-0.352c0.324-0.078 0.592-0.307 0.722-0.615l0.711-1.725 0.481 1.319c0.14 0.388 0.493 0.657 0.902 0.69s0.8-0.177 1-0.537l0.722-1.308 0.547 1.231c0.208 0.468 0.719 0.718 1.213 0.593l1.399-0.352c0.365-0.090 0.655-0.37 0.759-0.733s0.009-0.755-0.251-1.027c-0.26-0.273-0.646-0.385-1.011-0.295l-0.547 0.143-1.039-2.351c-0.16-0.368-0.514-0.613-0.913-0.631s-0.774 0.192-0.967 0.543l-0.634 1.143-0.612-1.692c-0.161-0.447-0.6-0.731-1.071-0.692v0z"></path>
</svg>
