<!-- Generated by IcoMoon.io -->
<svg version="1.1" xmlns="http://www.w3.org/2000/svg" width="26" height="32" viewBox="0 0 26 32">
<title>document-large</title>
<path d="M25.537 7.966v-0.143c0-0.143-0.143-0.286-0.287-0.286 0 0 0 0 0-0.143v0l-7.173-6.717c-0.143-0.143-0.287-0.143-0.43-0.286h-0.143c-0.143-0.143-0.287-0.143-0.43-0.143 0 0 0 0-0.143 0h-15.494c-0.861 0-1.435 0.572-1.435 1.429v28.583c0 0.857 0.574 1.429 1.435 1.429h22.668c0.861 0 1.435-0.572 1.435-1.429v-21.723c0 0 0 0 0-0.143v-0.429zM2.869 28.831v-25.724h12.625v5.431c0 0.857 0.574 1.429 1.435 1.429h5.739v18.865h-19.798z"></path>
<path d="M18.852 14.521h-11.477c-0.861 0-1.435 0.572-1.435 1.429s0.574 1.429 1.435 1.429h11.477c0.861 0 1.435-0.572 1.435-1.429s-0.574-1.429-1.435-1.429z"></path>
<path d="M18.852 20.090h-11.477c-0.861 0-1.435 0.572-1.435 1.429s0.574 1.429 1.435 1.429h11.477c0.861 0 1.435-0.572 1.435-1.429s-0.574-1.429-1.435-1.429z"></path>
</svg>
