<!-- Generated by IcoMoon.io -->
<svg version="1.1" xmlns="http://www.w3.org/2000/svg" width="22" height="32" viewBox="0 0 22 32">
<title>document-shield</title>
<path d="M10.364 14.627c0.158 0.071 0.327 0.107 0.496 0.107s0.338-0.035 0.496-0.107c0.729-0.327 4.365-2.094 4.365-4.766v-3.655c0-0.524-0.335-0.99-0.831-1.155l-3.646-1.218c-0.249-0.083-0.519-0.083-0.769 0l-3.646 1.218c-0.497 0.166-0.831 0.631-0.831 1.155v3.655c0 2.672 3.636 4.439 4.365 4.766zM8.43 7.084l2.431-0.812 2.431 0.812v2.777c0 0.633-1.198 1.639-2.431 2.298-1.232-0.659-2.431-1.665-2.431-2.298v-2.777z"></path>
<path d="M20.662 0.25h-19.447c-0.671 0-1.215 0.546-1.215 1.218v29.237c0 0.672 0.544 1.218 1.215 1.218h19.447c0.671 0 1.215-0.546 1.215-1.218v-29.237c0-0.672-0.544-1.218-1.215-1.218zM19.447 29.487h-17.016v-26.801h17.016v26.801z"></path>
<path d="M5.097 18.523h12.154c0.671 0 1.215-0.546 1.215-1.218s-0.544-1.218-1.215-1.218h-12.154c-0.671 0-1.215 0.546-1.215 1.218s0.545 1.218 1.215 1.218z"></path>
<path d="M5.097 22.043h12.154c0.671 0 1.215-0.546 1.215-1.218s-0.544-1.218-1.215-1.218h-12.154c-0.671 0-1.215 0.546-1.215 1.218s0.545 1.218 1.215 1.218z"></path>
<path d="M17.173 24.533h-6.077c-0.671 0-1.215 0.546-1.215 1.218s0.544 1.218 1.215 1.218h6.077c0.671 0 1.215-0.546 1.215-1.218s-0.544-1.218-1.215-1.218z"></path>
</svg>
