<?xml version="1.0" encoding="utf-8"?>
<!-- Generated by IcoMoon.io -->
<!DOCTYPE svg PUBLIC "-//W3C//DTD SVG 1.1//EN" "http://www.w3.org/Graphics/SVG/1.1/DTD/svg11.dtd">
<svg version="1.1" xmlns="http://www.w3.org/2000/svg" xmlns:xlink="http://www.w3.org/1999/xlink" width="28" height="32" viewBox="0 0 28 32">
<path fill="#000" d="M21 0h-19c-1.106 0-2 0.894-2 2v28c0 1.106 0.894 2 2 2h24c1.106 0 2-0.894 2-2v-23c0-0.552-0.316-1.316-0.708-1.708l-4.586-4.586c-0.39-0.39-1.154-0.706-1.706-0.706zM4 28v-24h14v5c0 0.552 0.448 1 1 1h5v18h-20z"></path>
<path d="M21 12h-14c-0.552 0-1 0.448-1 1v2c0 0.552 0.448 1 1 1h14c0.552 0 1-0.448 1-1v-2c0-0.552-0.448-1-1-1z"></path>
<path d="M15 6h-8c-0.552 0-1 0.448-1 1v2c0 0.552 0.448 1 1 1h8c0.552 0 1-0.448 1-1v-2c0-0.552-0.448-1-1-1z"></path>
<path d="M21 18h-14c-0.552 0-1 0.448-1 1v2c0 0.552 0.448 1 1 1h14c0.552 0 1-0.448 1-1v-2c0-0.552-0.448-1-1-1z"></path>
</svg>
