<!-- Generated by IcoMoon.io -->
<svg version="1.1" xmlns="http://www.w3.org/2000/svg" width="32" height="32" viewBox="0 0 32 32">
<title>globe</title>
<path d="M16 0c-8.837 0-16 7.163-16 16s7.163 16 16 16c8.837 0 16-7.163 16-16 0-4.243-1.686-8.313-4.686-11.314s-7.070-4.686-11.314-4.686v0zM11.554 4.068c-1.373 1.906-2.41 4.034-3.064 6.291h-3.905c1.443-2.904 3.933-5.152 6.968-6.291v0zM3.265 16c0.001-1.020 0.124-2.036 0.368-3.026h4.269c-0.304 2.006-0.304 4.047 0 6.053h-4.269c-0.244-0.99-0.367-2.006-0.368-3.026v0zM4.586 21.641h3.891c0.654 2.257 1.69 4.385 3.064 6.291-3.030-1.142-5.515-3.39-6.955-6.291v0zM14.693 27.792l-0.882-1.188c-1.12-1.508-1.996-3.183-2.597-4.963h3.479v6.151zM14.693 19.026h-4.14c-0.349-2.003-0.349-4.050 0-6.053h4.14v6.053zM14.693 10.359h-3.476c0.601-1.78 1.477-3.455 2.597-4.963l0.882-1.191-0.003 6.155zM17.304 4.208l0.882 1.188c1.12 1.508 1.996 3.183 2.597 4.963h-3.476l-0.003-6.152zM17.304 12.974h4.143c0.349 2.002 0.349 4.050 0 6.053h-4.14l-0.003-6.053zM17.304 27.792v-6.151h3.479c-0.601 1.78-1.477 3.455-2.597 4.963l-0.882 1.188zM20.446 27.932c1.373-1.906 2.41-4.034 3.064-6.291h3.905c-1.446 2.897-3.936 5.139-6.968 6.274v0.017zM28.735 16c-0.001 1.020-0.124 2.036-0.368 3.026h-4.269c0.304-2.006 0.304-4.047 0-6.053h4.269c0.244 0.99 0.367 2.006 0.368 3.026zM23.523 10.359c-0.654-2.257-1.69-4.385-3.064-6.291 3.030 1.142 5.515 3.39 6.955 6.291h-3.891z"></path>
</svg>
