<?xml version="1.0" encoding="utf-8"?>
<!-- Generated by IcoMoon.io -->
<!DOCTYPE svg PUBLIC "-//W3C//DTD SVG 1.1//EN" "http://www.w3.org/Graphics/SVG/1.1/DTD/svg11.dtd">
<svg version="1.1" xmlns="http://www.w3.org/2000/svg" xmlns:xlink="http://www.w3.org/1999/xlink" width="32" height="32" viewBox="0 0 32 32">
<path fill="#000" d="M30 0h-28c-1.106 0-2 0.894-2 2v28c0 1.106 0.894 2 2 2h28c1.106 0 2-0.894 2-2v-28c0-1.106-0.894-2-2-2zM28 15.172l-5.292-5.292c-0.39-0.39-1.024-0.39-1.414 0l-7.294 7.292-3.292-3.294c-0.39-0.39-1.024-0.39-1.414 0l-5.294 5.294v-15.172h24v11.172zM4 24.828l6-6 3.292 3.292c0.39 0.39 1.024 0.39 1.414 0l7.294-7.292 6 6v7.172h-24v-3.172z"></path>
</svg>
