<!-- Generated by IcoMoon.io -->
<svg version="1.1" xmlns="http://www.w3.org/2000/svg" width="31" height="32" viewBox="0 0 31 32">
<title>hands-ribbon</title>
<path d="M31.36 21.405c0.077 1.135-0.341 2.248-1.146 3.053l-5.549 5.542v1.824h-7.738l0.032-2.746c0.008-2.088 0.841-4.088 2.317-5.565l4.723-4.742c0.319-0.317 0.757-0.486 1.206-0.464s0.869 0.232 1.155 0.579c0.516 0.662 0.449 1.606-0.154 2.189l-2.269 2.285c-0.11 0.109-0.166 0.262-0.154 0.416s0.092 0.296 0.218 0.387c0.219 0.149 0.514 0.118 0.698-0.074l2.621-2.621c0.379-0.379 0.578-0.902 0.547-1.437l-0.406-6.080c-0.058-0.913 0.634-1.7 1.547-1.758s1.7 0.634 1.758 1.547l0.592 7.664zM6.72 31.824h7.712l-0.032-2.746c-0.008-2.088-0.841-4.088-2.317-5.565l-4.723-4.742c-0.319-0.317-0.757-0.486-1.206-0.464s-0.869 0.232-1.155 0.579c-0.516 0.662-0.449 1.606 0.154 2.189l2.269 2.285c0.11 0.109 0.166 0.262 0.154 0.416s-0.092 0.296-0.218 0.387c-0.219 0.149-0.514 0.118-0.698-0.074l-2.621-2.621c-0.379-0.379-0.578-0.902-0.547-1.437l0.406-6.080c0.058-0.913-0.634-1.7-1.547-1.758s-1.7 0.634-1.758 1.547l-0.592 7.664c-0.077 1.135 0.341 2.248 1.146 3.053l5.549 5.542 0.026 1.824zM25.299 9.28c-0.567 0.759-0.567 1.801 0 2.56 0.413 0.555 0.532 1.277 0.318 1.935s-0.733 1.173-1.393 1.38c-0.901 0.281-1.509 1.121-1.498 2.064 0.010 0.695-0.319 1.351-0.882 1.758s-1.29 0.514-1.946 0.287c-0.894-0.303-1.88 0.018-2.426 0.787-0.397 0.565-1.044 0.902-1.734 0.902-0.692 0.002-1.342-0.333-1.741-0.899-0.544-0.768-1.527-1.089-2.419-0.79-0.656 0.224-1.38 0.115-1.941-0.293s-0.888-1.062-0.878-1.755c0.011-0.943-0.598-1.782-1.498-2.064-0.661-0.205-1.182-0.718-1.397-1.376s-0.099-1.379 0.312-1.936c0.569-0.759 0.569-1.801 0-2.56-0.415-0.555-0.534-1.277-0.32-1.936s0.734-1.173 1.396-1.379c0.9-0.282 1.508-1.121 1.498-2.064-0.008-0.694 0.322-1.348 0.885-1.754s1.288-0.512 1.944-0.285c0.22 0.074 0.45 0.112 0.682 0.112 0.693 0.001 1.343-0.335 1.744-0.899 0.398-0.564 1.044-0.899 1.734-0.899 0.692-0.002 1.342 0.333 1.741 0.899 0.401 0.565 1.051 0.9 1.744 0.899 0.23-0.001 0.458-0.039 0.675-0.112 0.656-0.224 1.38-0.115 1.941 0.293s0.888 1.062 0.878 1.755c-0.011 0.943 0.598 1.782 1.498 2.064 0.66 0.205 1.18 0.716 1.395 1.373s0.1 1.377-0.31 1.933v0zM14.112 14.006c0.174 0.168 0.454 0.168 0.627 0l5.762-5.629c0.174-0.167 0.174-0.438 0-0.606l-0.627-0.606c-0.173-0.168-0.453-0.168-0.627 0l-4.822 4.721-2.163-2.121c-0.173-0.166-0.453-0.166-0.627 0l-0.627 0.606c-0.173 0.168-0.173 0.439 0 0.605l3.103 3.029z"></path>
</svg>
