<!-- Generated by IcoMoon.io -->
<svg version="1.1" xmlns="http://www.w3.org/2000/svg" width="28" height="32" viewBox="0 0 28 32">
<title>head-growth</title>
<path d="M15.347 0.163c-5.061 0-9.6 3.2-11.331 7.935l-0.163 0.522-3.755 11.298c-0.065 0.196-0.033 0.424 0.098 0.588s0.327 0.261 0.522 0.261h2.188c0 0.522 0 1.241 0.163 2.090h3.657c0 0-0.425 1.698-2.612 2.71 0.163 0.261 0.359 0.49 0.555 0.751 1.045 1.208 2.547 1.861 4.408 1.992v3.037c0 0.359 0.294 0.653 0.653 0.653h12.408c0.359 0 0.653-0.294 0.653-0.653v-9.633c2.971-2.318 4.669-5.78 4.669-9.502-0.065-6.629-5.453-12.049-12.114-12.049zM19.951 9.012l-3.657 3.82-2.841-1.894-3.2 3.657-1.567-1.371 4.375-5.029 2.906 1.927 2.155-2.253-1.633-1.012 4.833-1.633 0.327 4.865-1.698-1.078z"></path>
</svg>
