<!-- Generated by IcoMoon.io -->
<svg version="1.1" xmlns="http://www.w3.org/2000/svg" width="27" height="32" viewBox="0 0 27 32">
<title>head-check</title>
<path d="M2.085 14.63l-1.972 4.441c-0.119 0.267-0.119 0.573-0.001 0.84s0.344 0.473 0.622 0.566l1.852 0.598v4.545c0 1.187 0.962 2.149 2.15 2.149h4.622l0.97 3.365c0.087 0.304 0.29 0.562 0.567 0.716s0.603 0.192 0.907 0.105l12.367-3.533c0.304-0.087 0.562-0.29 0.716-0.567s0.192-0.603 0.105-0.907l-1.833-6.413c3.742-3.882 4.423-9.787 1.664-14.42s-8.276-6.846-13.472-5.404c-5.195 1.441-8.784 6.18-8.763 11.572-0.001 0.809-0.172 1.608-0.501 2.347v0zM14.545 4.891c2.971-0.002 5.653 1.778 6.806 4.516s0.551 5.901-1.526 8.024c-2.078 2.124-5.226 2.794-7.989 1.702-0.995 0.701-2.154 1.13-3.365 1.248-0.17 0.017-0.335-0.068-0.419-0.217s-0.074-0.334 0.028-0.471c0.523-0.776 0.82-1.681 0.86-2.615-1.881-2.187-2.315-5.271-1.109-7.892s3.829-4.299 6.714-4.294v0z"></path>
<path d="M12.639 15.764l-3.134-3.060c-0.175-0.168-0.175-0.442 0-0.612l0.633-0.613c0.175-0.167 0.458-0.167 0.633 0l2.185 2.143 4.87-4.768c0.175-0.169 0.458-0.169 0.633 0l0.633 0.612c0.175 0.169 0.175 0.443 0 0.612l-5.821 5.686c-0.175 0.169-0.458 0.169-0.633 0z"></path>
</svg>
