<?xml version="1.0" encoding="utf-8"?>
<!-- Generated by IcoMoon.io -->
<!DOCTYPE svg PUBLIC "-//W3C//DTD SVG 1.1//EN" "http://www.w3.org/Graphics/SVG/1.1/DTD/svg11.dtd">
<svg version="1.1" xmlns="http://www.w3.org/2000/svg" xmlns:xlink="http://www.w3.org/1999/xlink" width="32" height="32" viewBox="0 0 32 32">
<path fill="#000" d="M17.402 28.54c-0.764 0.796-2.006 0.796-2.77 0l-12.284-12.79c-3.13-3.148-3.13-8.246 0-11.39 3.128-3.144 8.206-3.144 11.336 0l2.332 2.848 2.332-2.848c3.13-3.144 8.208-3.144 11.336 0 3.13 3.144 3.13 8.242 0 11.39l-12.282 12.79zM17.36 11.418c-0.742 0.82-1.946 0.82-2.688 0l-3.824-4.21c-1.564-1.574-4.102-1.574-5.668 0-1.564 1.57-1.564 4.122 0 5.696l10.836 11.386 10.836-11.386c1.562-1.574 1.562-4.124 0-5.696-1.566-1.574-4.104-1.574-5.668 0l-3.824 4.21z"></path>
</svg>
