<?xml version="1.0" encoding="utf-8"?>
<!-- Generated by IcoMoon.io -->
<!DOCTYPE svg PUBLIC "-//W3C//DTD SVG 1.1//EN" "http://www.w3.org/Graphics/SVG/1.1/DTD/svg11.dtd">
<svg version="1.1" xmlns="http://www.w3.org/2000/svg" xmlns:xlink="http://www.w3.org/1999/xlink" width="36" height="32" viewBox="0 0 36 32">
<path fill="#000" d="M28.389 9.712v-7.092c0-0.559-0.442-1.013-1.001-1.013h-2.030c-0.559 0-1.021 0.454-1.021 1.013v3.039l-5.367-5.363c-0.395-0.395-1.035-0.395-1.43 0l-17.312 16.803c-0.395 0.395-0.263 0.717 0.296 0.717h3.55v13.17c0 0.559 0.436 1.013 0.997 1.013h26.373c0.561 0 0.997-0.454 0.997-1.013v-13.17h3.503c0.559 0 0.687-0.32 0.292-0.717l-7.846-7.388zM22.311 27.948v-7.092c0-0.559-0.45-1.013-1.009-1.013h-6.087c-0.559 0-1.009 0.454-1.009 1.013v7.092h-6.079v-12.506l10.137-10.131 6.085 6.079 0.34 0.348 3.7 3.704v12.506h-6.079z"></path>
</svg>
