<!-- Generated by IcoMoon.io -->
<svg version="1.1" xmlns="http://www.w3.org/2000/svg" width="34" height="32" viewBox="0 0 34 32">
<title>house-large</title>
<path d="M16.882 0.25c-0.159 0.014-0.312 0.078-0.434 0.181l-16.193 13.88c-0.306 0.265-0.343 0.784-0.078 1.090s0.784 0.343 1.090 0.078l15.687-13.446 15.687 13.446c0.306 0.265 0.825 0.228 1.090-0.078s0.228-0.825-0.078-1.090l-6.289-5.386v-8.651h-3.084v6l-6.819-5.843c-0.158-0.135-0.372-0.202-0.578-0.181v0zM16.954 3.334l-12.337 10.41v18.12h24.675v-18.12l-12.337-10.41zM10.786 15.671h5.398v5.398h-5.398v-5.398zM17.725 15.671h5.398v5.398h-5.398v-5.398zM10.786 22.611h5.398v5.398h-5.398v-5.398zM17.725 22.611h5.398v5.398h-5.398v-5.398z"></path>
</svg>
