<!-- Generated by IcoMoon.io -->
<svg version="1.1" xmlns="http://www.w3.org/2000/svg" width="31" height="32" viewBox="0 0 31 32">
<title>house-hand</title>
<path d="M6.937 32l-6.726-6.555 4.816-4.79c1.997-1.983 4.953-2.651 7.609-1.72l1.057 0.372h6.513c0.555 0.001 1.085 0.226 1.471 0.624s0.595 0.936 0.578 1.49c-0.064 1.128-1.007 2.005-2.137 1.988h-3.908c-0.44 0-0.797 0.357-0.797 0.797s0.357 0.797 0.797 0.797h3.908c1.988 0.009 3.632-1.547 3.73-3.533v-0.049l3.197-3.556c0.428-0.483 1.042-0.761 1.687-0.763 0.483-0.007 0.954 0.157 1.329 0.462 0.443 0.366 0.719 0.896 0.766 1.468s-0.14 1.14-0.517 1.573l-6.788 7.758c-0.962 1.103-2.354 1.736-3.817 1.736h-10.883l-1.884 1.901zM22.151 17.455h2.324c0.506-0.002 0.916-0.412 0.918-0.918v-6.487h1.345c0.371 0.001 0.707-0.217 0.857-0.556s0.085-0.735-0.165-1.008l-7.266-8.016c-0.178-0.195-0.429-0.307-0.693-0.307s-0.516 0.111-0.693 0.307l-7.266 8.016c-0.25 0.274-0.315 0.669-0.165 1.008s0.486 0.557 0.857 0.556h1.345v6.5c0.009 0.502 0.419 0.905 0.921 0.905h2.324c0.243 0 0.477-0.097 0.649-0.269s0.269-0.406 0.269-0.649v-2.844c0-0.328 0.266-0.595 0.595-0.595h2.337c0.328 0 0.595 0.266 0.595 0.595v2.857c0.007 0.501 0.414 0.903 0.915 0.905v0z"></path>
</svg>
