<?xml version="1.0" encoding="utf-8"?>
<!-- Generated by IcoMoon.io -->
<!DOCTYPE svg PUBLIC "-//W3C//DTD SVG 1.1//EN" "http://www.w3.org/Graphics/SVG/1.1/DTD/svg11.dtd">
<svg version="1.1" xmlns="http://www.w3.org/2000/svg" xmlns:xlink="http://www.w3.org/1999/xlink" width="32" height="32" viewBox="0 0 32 32">
<path fill="#000" d="M16 0c-8.836 0-16 7.164-16 16s7.164 16 16 16 16-7.164 16-16-7.164-16-16-16zM16 28c-6.618 0-12-5.384-12-12s5.382-12 12-12c6.616 0 12 5.384 12 12s-5.384 12-12 12z"></path>
<path d="M17 8h-2c-0.552 0-1 0.448-1 1v2c0 0.552 0.448 1 1 1h2c0.552 0 1-0.448 1-1v-2c0-0.552-0.448-1-1-1z"></path>
<path d="M17 14h-2c-0.552 0-1 0.448-1 1v8c0 0.552 0.448 1 1 1h2c0.552 0 1-0.448 1-1v-8c0-0.552-0.448-1-1-1z"></path>
</svg>
