<?xml version="1.0" encoding="UTF-8" standalone="no"?>
<svg width="75px" height="57px" viewBox="0 0 75 57" version="1.1" xmlns="http://www.w3.org/2000/svg" xmlns:xlink="http://www.w3.org/1999/xlink">
    <!-- Generator: Sketch 44.1 (41455) - http://www.bohemiancoding.com/sketch -->
    <title>key-lock</title>
    <desc>Created with Sketch.</desc>
    <defs></defs>
    <g id="Hybrid-Designation-First-Run" stroke="none" stroke-width="1" fill="none" fill-rule="evenodd">
        <g id="Artboard-7-Copy-6" transform="translate(-303.000000, -568.000000)">
            <g id="key-lock" transform="translate(303.000000, 568.000000)">
                <path d="M11.20725,15.9375 C8.5648125,15.9375 6.426,13.7986875 6.426,11.15625 C6.426,8.5138125 8.5648125,6.375 11.20725,6.375 C13.8496875,6.375 15.9885,8.5138125 15.9885,11.15625 C15.9885,13.7986875 13.8496875,15.9375 11.20725,15.9375 L11.20725,15.9375 Z M27.6675,18.455625 C28.0659375,17.1455625 28.5376875,15.7813125 28.5376875,14.34375 C28.5376875,6.4228125 22.216875,0 14.2959375,0 C6.3718125,0 1.13686838e-13,6.4228125 1.13686838e-13,14.34375 C1.13686838e-13,22.2646875 6.4483125,28.6875 14.36925,28.6875 C15.8068125,28.6875 16.785375,28.4101875 18.09225,28.018125 L18.379125,28.6875 L18.379125,35.0625 L24.754125,35.0625 L24.754125,41.4375 L31.129125,41.4375 L31.129125,47.8125 L38.301,47.8125 L41.4885,51 L50.254125,51 L50.254125,41.4375 L27.6675,18.455625 L27.6675,18.455625 Z" id="Fill-499" fill="#255984"></path>
                <circle id="Path" stroke="#6BA0D5" stroke-width="3" fill="#FFFFFF" cx="56.8331074" cy="38.8331074" r="15.8331074"></circle>
                <path d="M60.6192852,36.4237215 L53.0469295,36.4237215 L53.0469295,33.8996029 C53.0469295,31.8121568 54.7456613,30.1134251 56.8331074,30.1134251 C58.9205534,30.1134251 60.6192852,31.8121568 60.6192852,33.8996029 L60.6192852,36.4237215 L60.6192852,36.4237215 Z M63.1434038,36.4237215 L63.1434038,33.8996029 C63.1434038,30.4137952 60.3189151,27.5893065 56.8331074,27.5893065 C53.3472996,27.5893065 50.522811,30.4137952 50.522811,33.8996029 L50.522811,36.4237215 C49.8248922,36.4237215 49.2607517,36.987862 49.2607517,37.6857807 L49.2607517,46.5201957 C49.2607517,47.2181145 49.8248922,47.782255 50.522811,47.782255 L63.1434038,47.782255 C63.8413226,47.782255 64.4054631,47.2181145 64.4054631,46.5201957 L64.4054631,37.6857807 C64.4054631,36.987862 63.8413226,36.4237215 63.1434038,36.4237215 L63.1434038,36.4237215 Z" id="Fill-497" fill="#6BA0D5"></path>
            </g>
        </g>
    </g>
</svg>