<?xml version="1.0" encoding="utf-8"?>
<!-- Generated by IcoMoon.io -->
<!DOCTYPE svg PUBLIC "-//W3C//DTD SVG 1.1//EN" "http://www.w3.org/Graphics/SVG/1.1/DTD/svg11.dtd">
<svg version="1.1" xmlns="http://www.w3.org/2000/svg" xmlns:xlink="http://www.w3.org/1999/xlink" width="32" height="32" viewBox="0 0 32 32">
<path fill="#000" d="M0 10c0 5.514 4.486 10 10 10 0.362 0 0.728-0.022 1.108-0.064l0.892 0.892v4.172c0 0.552 0.448 1 1 1h3v3c0 0.552 0.448 1 1 1h3v1c0 0.552 0.448 1 1 1h10c0.552 0 1-0.448 1-1v-6.84c0-0.552-0.32-1.312-0.714-1.702l-11.37-11.166c0.056-0.416 0.084-0.846 0.084-1.292 0-5.514-4.486-10-10-10s-10 4.486-10 10zM28 28h-4v-2h-4v-4h-4v-2.828l-3.546-3.55-1.058 0.22c-0.518 0.108-0.972 0.158-1.396 0.158-3.308 0-6-2.692-6-6s2.692-6 6-6 6 2.692 6 6c0 0.518-0.060 0.988-0.182 1.402l-0.332 1.148 12.514 12.29v3.16z"></path>
<path d="M12 9c0 1.657-1.343 3-3 3s-3-1.343-3-3c0-1.657 1.343-3 3-3s3 1.343 3 3z"></path>
</svg>
