<?xml version="1.0" encoding="utf-8"?>
<!-- Generated by IcoMoon.io -->
<!DOCTYPE svg PUBLIC "-//W3C//DTD SVG 1.1//EN" "http://www.w3.org/Graphics/SVG/1.1/DTD/svg11.dtd">
<svg version="1.1" xmlns="http://www.w3.org/2000/svg" xmlns:xlink="http://www.w3.org/1999/xlink" width="32" height="32" viewBox="0 0 32 32">
<path fill="#000" d="M15.228 24.116c-0.566-0.158-0.99-0.352-1.316-0.026-0.17 0.17-2.416 2.42-2.416 2.42-1.65 1.65-4.354 1.65-6.006 0-1.65-1.652-1.65-4.356 0-6.006l6.006-6.006c1.65-1.65 4.356-1.65 6.006 0 0.824 0.826 2.176 0.826 3.002 0 0.824-0.824 0.824-2.176 0-3.002-0.526-0.524-1.080-0.958-1.698-1.304-0.334-0.2-0.678-0.372-1.032-0.522-0.010-0.004-0.024-0.008-0.036-0.014-0.996-0.412-2.044-0.63-3.102-0.646-0.040-0.004-0.074 0.004-0.112 0.006-1.376-0.006-2.748 0.314-3.99 0.98-0.748 0.388-1.422 0.884-2.040 1.5l-6.006 6.006c-3.316 3.316-3.316 8.69 0 12.010 3.32 3.316 8.694 3.316 12.010 0l4.362-4.364c0.414-0.416 0.28-0.68-0.304-0.654-1.12 0.048-2.248-0.080-3.328-0.378z"></path>
<path d="M17.502 2.488l-4.458 4.46c-0.416 0.414-0.282 0.674 0.304 0.644 1.12-0.054 2.246 0.070 3.332 0.376 0.562 0.162 1.024 0.326 1.318 0.032 0.174-0.176 2.506-2.508 2.506-2.508 1.65-1.65 4.354-1.65 6.006 0 1.65 1.652 1.65 4.356 0 6.006l-6.006 6.006c-1.65 1.65-4.356 1.65-6.006 0-0.824-0.826-2.176-0.826-3.002 0-0.824 0.824-0.824 2.176 0 3.002 1.038 1.036 2.282 1.74 3.574 2.13 0.254 0.074 0.526 0.134 0.764 0.196 0.3 0.058 0.572 0.090 0.842 0.12 0.3 0.032 0.614 0.046 0.932 0.032 0.328 0 0.644-0.014 0.958-0.060 0.196-0.016 0.376-0.044 0.57-0.088 1.608-0.318 3.136-1.098 4.37-2.328l6.006-6.006c3.316-3.316 3.316-8.69 0-12.010-3.32-3.32-8.694-3.32-12.010-0.004z"></path>
</svg>
