<?xml version="1.0" encoding="utf-8"?>
<!-- Generated by IcoMoon.io -->
<!DOCTYPE svg PUBLIC "-//W3C//DTD SVG 1.1//EN" "http://www.w3.org/Graphics/SVG/1.1/DTD/svg11.dtd">
<svg version="1.1" xmlns="http://www.w3.org/2000/svg" xmlns:xlink="http://www.w3.org/1999/xlink" width="24" height="32" viewBox="0 0 24 32">
<path fill="#000" d="M22 12v-2c0-5.524-4.476-10-10-10s-10 4.476-10 10v2c-1.106 0-2 0.894-2 2v16c0 1.106 0.894 2 2 2h20c1.106 0 2-0.894 2-2v-16c0-1.106-0.894-2-2-2zM6 10c0-3.308 2.692-6 6-6s6 2.692 6 6v2h-12v-2zM20 28h-16v-12h16v12z"></path>
<path d="M11 26h2c0.552 0 1-0.448 1-1v-5c0-1.106-0.894-2-2-2s-2 0.894-2 2v5c0 0.552 0.448 1 1 1z"></path>
</svg>
