<!-- Generated by IcoMoon.io -->
<svg version="1.1" xmlns="http://www.w3.org/2000/svg" width="26" height="32" viewBox="0 0 26 32">
<title>lock-large</title>
<path d="M17.842 10.666v-2.339c0-2.632-2.134-4.766-4.766-4.766h-0.31c-2.632 0-4.766 2.134-4.766 4.766v2.335c-1.196 0.095-2.389 0.224-3.578 0.385v-2.723c0.004-2.213 0.887-4.334 2.455-5.895s3.693-2.435 5.906-2.429h0.31c4.596 0.006 8.321 3.73 8.327 8.327v2.723c-1.189-0.163-2.382-0.292-3.578-0.385zM1.876 14.41c7.311-1.384 14.817-1.384 22.128 0 0.98 0.186 1.688 1.045 1.682 2.043v12.555c-0 0.895-0.636 1.663-1.515 1.831l-1.134 0.214c-3.33 0.63-6.711 0.947-10.1 0.946-3.387 0-6.766-0.317-10.094-0.946l-1.14-0.214c-0.88-0.167-1.518-0.936-1.518-1.831v-12.742c0.001-0.896 0.638-1.665 1.518-1.832l0.174-0.024zM10.849 26.128c1.342 0.524 2.832 0.524 4.174 0 0.238-0.091 0.359-0.357 0.269-0.596l-1.086-3.064c0.681-0.54 0.947-1.452 0.661-2.273s-1.060-1.371-1.929-1.371c-0.869 0-1.643 0.55-1.929 1.371s-0.021 1.733 0.661 2.273l-1.086 3.064c-0.090 0.238 0.028 0.504 0.266 0.596z"></path>
</svg>
