<!-- Generated by IcoMoon.io -->
<svg version="1.1" xmlns="http://www.w3.org/2000/svg" width="27" height="32" viewBox="0 0 27 32">
<title>mausoleum</title>
<path d="M2.092 11.202h1.731v14.461h-1.731v-14.461z"></path>
<path d="M5.169 11.202h1.728v14.461h-1.728v-14.461z"></path>
<path d="M20.3 11.202h1.729v14.461h-1.729v-14.461z"></path>
<path d="M23.375 11.202h1.732v14.461h-1.732v-14.461z"></path>
<path d="M18.958 25.663v-14.461h-10.715v14.461h2.209v-8.626c0-1.669 1.443-3.023 3.221-3.023s3.219 1.354 3.219 3.023v8.626h2.066z"></path>
<path d="M0.277 7.13h26.647v2.6h-26.647v-2.6z"></path>
<path d="M2.271 27.318h22.658v1.523h-22.658v-1.523z"></path>
<path d="M0.68 30.368h25.839v1.525h-25.839v-1.525z"></path>
<path d="M13.602 0.026c-4.545 0-8.226 2.469-8.226 5.514h16.447c0-3.046-3.679-5.514-8.221-5.514z"></path>
</svg>
