<?xml version="1.0" encoding="utf-8"?>
<!-- Generated by IcoMoon.io -->
<!DOCTYPE svg PUBLIC "-//W3C//DTD SVG 1.1//EN" "http://www.w3.org/Graphics/SVG/1.1/DTD/svg11.dtd">
<svg version="1.1" xmlns="http://www.w3.org/2000/svg" xmlns:xlink="http://www.w3.org/1999/xlink" width="32" height="32" viewBox="0 0 32 32">
<path fill="#000" d="M2.286 9.143h27.429c1.262 0 2.286-1.022 2.286-2.286s-1.024-2.286-2.286-2.286h-27.429c-1.262 0-2.286 1.022-2.286 2.286s1.024 2.286 2.286 2.286z"></path>
<path d="M29.714 13.714h-27.429c-1.262 0-2.286 1.022-2.286 2.286s1.024 2.286 2.286 2.286h27.429c1.262 0 2.286-1.022 2.286-2.286s-1.024-2.286-2.286-2.286z"></path>
<path d="M29.714 22.857h-27.429c-1.262 0-2.286 1.022-2.286 2.286s1.024 2.286 2.286 2.286h27.429c1.262 0 2.286-1.022 2.286-2.286s-1.024-2.286-2.286-2.286z"></path>
</svg>
