<?xml version="1.0" encoding="utf-8"?>
<!-- Generated by IcoMoon.io -->
<!DOCTYPE svg PUBLIC "-//W3C//DTD SVG 1.1//EN" "http://www.w3.org/Graphics/SVG/1.1/DTD/svg11.dtd">
<svg version="1.1" xmlns="http://www.w3.org/2000/svg" xmlns:xlink="http://www.w3.org/1999/xlink" width="20" height="32" viewBox="0 0 20 32">
<path fill="#000" d="M12 6c1.864 0 3.434 1.284 3.876 3.010 0.136 0.534 0.572 0.99 1.124 0.99h2c0.552 0 1.006-0.452 0.938-0.998-0.492-3.944-3.864-7.002-7.938-7.002v-1c0-0.552-0.448-1-1-1h-2c-0.552 0-1 0.448-1 1v1c-4.412 0-8 3.588-8 8s3.588 8 8 8v8c-1.864 0-3.434-1.284-3.876-3.010-0.136-0.534-0.572-0.99-1.124-0.99h-2c-0.552 0-1.006 0.452-0.938 0.998 0.492 3.944 3.864 7.002 7.938 7.002v1c0 0.552 0.448 1 1 1h2c0.552 0 1-0.448 1-1v-1c4.412 0 8-3.588 8-8s-3.588-8-8-8v-8zM4 10c0-2.206 1.794-4 4-4v8c-2.206 0-4-1.794-4-4zM12 26v-8c2.206 0 4 1.794 4 4s-1.794 4-4 4z"></path>
</svg>
