<!-- Generated by IcoMoon.io -->
<svg version="1.1" xmlns="http://www.w3.org/2000/svg" width="29" height="32" viewBox="0 0 29 32">
<title>paperclip</title>
<path d="M3.727 12.087l9.667-9.667c3.197-3.191 8.362-3.23 11.607-0.087 3.333 3.213 3.237 8.667-0.033 11.92l-9.7 9.7c-0.961 0.96-2.274 1.484-3.632 1.45s-2.643-0.623-3.555-1.63c-1.774-2.015-1.663-5.066 0.253-6.947l8.573-8.567c0.391-0.522 1.051-0.767 1.688-0.628s1.135 0.636 1.274 1.274c0.139 0.637-0.107 1.297-0.628 1.688l-8.667 8.667c-0.327 0.332-0.499 0.787-0.476 1.252s0.241 0.9 0.599 1.198c0.687 0.531 1.663 0.461 2.267-0.163l9.787-9.777c0.96-0.961 1.484-2.274 1.45-3.632s-0.623-2.643-1.63-3.555c-2.018-1.761-5.060-1.641-6.933 0.273l-9.733 9.733c-3.182 3.191-3.227 8.341-0.1 11.587 3.213 3.333 8.667 3.237 11.923-0.033l8.533-8.533c0.648-0.635 1.685-0.635 2.333 0v0c0.635 0.648 0.635 1.685 0 2.333l-8.667 8.667c-4.467 4.457-11.68 4.519-16.223 0.14-4.653-4.493-4.553-12.083 0.023-16.663z"></path>
</svg>
