<?xml version="1.0" encoding="utf-8"?>
<!-- Generated by IcoMoon.io -->
<!DOCTYPE svg PUBLIC "-//W3C//DTD SVG 1.1//EN" "http://www.w3.org/Graphics/SVG/1.1/DTD/svg11.dtd">
<svg version="1.1" xmlns="http://www.w3.org/2000/svg" xmlns:xlink="http://www.w3.org/1999/xlink" width="35" height="32" viewBox="0 0 35 32">
<path fill="#000" d="M11.003 32c-2.817 0-5.635-1.071-7.78-3.214-2.077-2.083-3.223-4.843-3.223-7.784 0-2.939 1.145-5.701 3.221-7.78l10.906-10.906c3.089-3.089 8.109-3.087 11.198-0.002 3.087 3.089 3.087 8.111 0 11.198l-10.906 10.906c-1.886 1.89-4.952 1.886-6.836 0-1.884-1.882-1.884-4.948 0-6.832l10.906-10.906c0.685-0.683 1.791-0.683 2.474 0 0.683 0.681 0.683 1.789 0 2.47l-10.906 10.906c-0.52 0.522-0.52 1.37 0 1.892 0.52 0.516 1.368 0.52 1.89 0l10.908-10.906c1.725-1.725 1.725-4.531 0-6.256-1.721-1.721-4.529-1.725-6.252 0l-10.908 10.908c-1.419 1.417-2.2 3.303-2.2 5.308 0 2.007 0.782 3.891 2.198 5.31 2.924 2.924 7.679 2.924 10.606 0.008l0.008-0.008c0-0.002 0-0.002 0-0.002l15.272-15.268c0.683-0.683 1.787-0.683 2.47 0 0.683 0.681 0.683 1.789 0 2.47l-15.994 15.996-0.037-0.033c-2.026 1.682-4.522 2.525-7.015 2.525z"></path>
</svg>
