<?xml version="1.0" encoding="utf-8"?>
<!-- Generated by IcoMoon.io -->
<!DOCTYPE svg PUBLIC "-//W3C//DTD SVG 1.1//EN" "http://www.w3.org/Graphics/SVG/1.1/DTD/svg11.dtd">
<svg version="1.1" xmlns="http://www.w3.org/2000/svg" xmlns:xlink="http://www.w3.org/1999/xlink" width="32" height="32" viewBox="0 0 32 32">
<path fill="#000" d="M18 20l-7.292-7.292c-0.39-0.39-1.024-0.39-1.414 0l-2.586 2.584c-0.392 0.392-0.708 1.156-0.708 1.708v8c0 0.552 0.448 1 1 1h18c0.552 0 1-0.448 1-1v-4c0-0.552-0.316-1.316-0.708-1.708l-2.586-2.586c-0.39-0.39-1.024-0.39-1.414 0l-3.292 3.294z"></path>
<path d="M24 11c0 1.657-1.343 3-3 3s-3-1.343-3-3c0-1.657 1.343-3 3-3s3 1.343 3 3z"></path>
<path d="M30 0h-28c-1.106 0-2 0.894-2 2v28c0 1.106 0.894 2 2 2h28c1.106 0 2-0.894 2-2v-28c0-1.106-0.894-2-2-2zM28 28h-24v-24h24v24z"></path>
</svg>
