<!-- Generated by IcoMoon.io -->
<svg version="1.1" xmlns="http://www.w3.org/2000/svg" width="39" height="32" viewBox="0 0 39 32">
<title>piggy-bank</title>
<path d="M3.64 11h-1.72c-1.040 0-1.92 0.84-1.92 1.92v4.36c0 0.88 0.36 1.68 1 2.28 1.2 1.080 3.56 2.92 7.32 4.64 0.28 0.12 0.52 0.4 0.6 0.68l1.84 6.44c0.12 0.4 0.48 0.68 0.92 0.68h2.88c0.44 0 0.8-0.28 0.92-0.72l0.92-3.56c0.080-0.28 0.36-0.44 0.64-0.36 1.12 0.24 2.32 0.32 3.52 0.32s2.4-0.12 3.52-0.32c0.28-0.040 0.56 0.12 0.64 0.36l0.92 3.56c0.12 0.4 0.48 0.72 0.92 0.72h2.88c0.44 0 0.8-0.28 0.92-0.68l2.4-8.32c0.040-0.16 0.12-0.32 0.24-0.44 1.8-1.92 3-4.24 3.4-6.8h0.96c1.040 0 1.88-0.88 1.84-1.92-0.040-1-0.92-1.8-1.92-1.8h-0.88c-1-6.8-7.72-12.040-15.84-12.040-3.48 0-6.72 0.96-9.32 2.6-1.16-0.8-2.88-1.44-5.28-1.24-0.96 0.080-1.4 1.2-0.76 1.88 0.8 0.84 1.56 1.96 1.72 3.4l-3.28 4.36zM9.76 12.92c-0.92 0-1.68-0.76-1.68-1.68s0.76-1.68 1.68-1.68c0.92 0 1.68 0.76 1.68 1.68s-0.76 1.68-1.68 1.68zM20.107 6.8c0.683 0 1.235 0.553 1.235 1.235v0.18c1.029 0.32 1.809 1.022 2.265 1.789 0.385 0.553 0.2 1.414-0.373 1.763s-1.406 0.112-1.712-0.489c-0.193-0.325-0.723-0.772-1.403-0.772-0.558 0.006-1.537 0.37-1.042 1.133 0.24 0.147 0.802 0.322 1.48 0.592 0.522 0.208 1.181 0.378 1.866 0.798s1.364 1.356 1.364 2.419c0 0.98-0.462 1.89-1.158 2.458-0.38 0.31-0.817 0.533-1.287 0.669v0.167c0 0.682-0.553 1.235-1.235 1.235s-1.235-0.553-1.235-1.235v-0.206c-1.020-0.326-1.799-1.014-2.252-1.776-0.407-0.552-0.225-1.449 0.36-1.802s1.448-0.083 1.737 0.54c0.193 0.325 0.723 0.772 1.403 0.772 0.549-0.007 1.523-0.38 1.030-1.133-0.24-0.147-0.802-0.335-1.48-0.605-0.522-0.208-1.181-0.365-1.866-0.785s-1.364-1.356-1.364-2.419c0-0.98 0.462-1.89 1.158-2.458 0.375-0.306 0.812-0.519 1.274-0.656v-0.18c0-0.682 0.553-1.235 1.235-1.235z"></path>
</svg>
