<?xml version="1.0" encoding="utf-8"?>
<!-- Generated by IcoMoon.io -->
<!DOCTYPE svg PUBLIC "-//W3C//DTD SVG 1.1//EN" "http://www.w3.org/Graphics/SVG/1.1/DTD/svg11.dtd">
<svg version="1.1" xmlns="http://www.w3.org/2000/svg" xmlns:xlink="http://www.w3.org/1999/xlink" width="32" height="32" viewBox="0 0 32 32">
<path fill="#000" d="M31.321 14.775l-14.131-14.268c-0.351-0.349-0.618-0.507-0.817-0.507-0.373 0-0.505 0.559-0.505 1.483v4.685l-6.079 5.909-6.592 0.624c-1.4 0.278-1.844 1.315-0.833 2.314l5.297 5.271-1.927 1.925-5.634 9.22c-0.243 0.507-0.041 0.711 0.466 0.464l9.22-5.632 1.937-1.937 5.214 5.188c0.399 0.395 0.8 0.586 1.155 0.586 0.543 0 0.981-0.446 1.151-1.287l0.675-6.602 5.909-6.079h4.734c1.431 0 1.769-0.357 0.758-1.358zM22.923 13.308l-6.892 7.089-0.144 1.402-0.087 0.865-6.501-6.468 2.292-0.215 1.023-0.993 6.732-6.543 4.193 4.233-0.616 0.63z"></path>
</svg>
