<?xml version="1.0" encoding="utf-8"?>
<!-- Generated by IcoMoon.io -->
<!DOCTYPE svg PUBLIC "-//W3C//DTD SVG 1.1//EN" "http://www.w3.org/Graphics/SVG/1.1/DTD/svg11.dtd">
<svg version="1.1" xmlns="http://www.w3.org/2000/svg" xmlns:xlink="http://www.w3.org/1999/xlink" width="32" height="32" viewBox="0 0 32 32">
<path fill="#000" d="M30.4 12.8h-11.2v-11.2c0-0.883-0.717-1.6-1.6-1.6h-3.2c-0.883 0-1.6 0.717-1.6 1.6v11.2h-11.2c-0.883 0-1.6 0.717-1.6 1.6v3.2c0 0.883 0.717 1.6 1.6 1.6h11.2v11.2c0 0.883 0.717 1.6 1.6 1.6h3.2c0.883 0 1.6-0.717 1.6-1.6v-11.2h11.2c0.883 0 1.6-0.717 1.6-1.6v-3.2c0-0.883-0.717-1.6-1.6-1.6z"></path>
</svg>
