<?xml version="1.0" encoding="utf-8"?>
<!-- Generated by IcoMoon.io -->
<!DOCTYPE svg PUBLIC "-//W3C//DTD SVG 1.1//EN" "http://www.w3.org/Graphics/SVG/1.1/DTD/svg11.dtd">
<svg version="1.1" xmlns="http://www.w3.org/2000/svg" xmlns:xlink="http://www.w3.org/1999/xlink" width="32" height="32" viewBox="0 0 32 32">
<path fill="#000" d="M30 8h-4v-6c0-1.106-0.894-2-2-2h-16c-1.106 0-2 0.894-2 2v6h-4c-1.106 0-2 0.894-2 2v16c0 1.106 0.894 2 2 2h4v2c0 1.106 0.894 2 2 2h16c1.106 0 2-0.894 2-2v-2h4c1.106 0 2-0.894 2-2v-16c0-1.106-0.894-2-2-2zM10 4h12v4h-12v-4zM22 28h-12v-4h12v4zM28 24h-2v-4h-20v4h-2v-12h24v12z"></path>
<path d="M16 14h4v4h-4v-4z"></path>
<path d="M22 14h4v4h-4v-4z"></path>
</svg>
