<?xml version="1.0" encoding="utf-8"?>
<!-- Generated by IcoMoon.io -->
<!DOCTYPE svg PUBLIC "-//W3C//DTD SVG 1.1//EN" "http://www.w3.org/Graphics/SVG/1.1/DTD/svg11.dtd">
<svg version="1.1" xmlns="http://www.w3.org/2000/svg" xmlns:xlink="http://www.w3.org/1999/xlink" width="32" height="32" viewBox="0 0 32 32">
<path fill="#000" d="M30 0h-28c-1.106 0-2 0.894-2 2v28c0 1.106 0.894 2 2 2h28c1.106 0 2-0.894 2-2v-28c0-1.106-0.894-2-2-2zM28 28h-24v-24h24v24z"></path>
<path d="M21 24c0.552 0 1-0.448 1-1v-3.648c0-0.552-0.308-1.328-0.75-1.66-0.93-0.7-2.068-1.178-3.25-1.442v-0.804c1.192-0.694 2-1.97 2-3.446 0-2.208-1.792-4-4-4s-4 1.792-4 4c0 1.476 0.808 2.752 2 3.446v0.804c-1.182 0.264-2.32 0.742-3.25 1.442-0.442 0.332-0.75 1.106-0.75 1.66v3.648c0 0.552 0.448 1 1 1h10z"></path>
</svg>
