<!-- Generated by IcoMoon.io -->
<svg version="1.1" xmlns="http://www.w3.org/2000/svg" width="32" height="32" viewBox="0 0 32 32">
<title>puzzle</title>
<path d="M0 30.148v-11.125c0-1.023 0.829-1.852 1.852-1.852h3.164c0.3 0 0.544-0.244 0.544-0.544v-0.117c0.001-0.129-0.042-0.254-0.121-0.356-0.321-0.422-0.496-0.938-0.498-1.468 0-1.375 1.114-2.489 2.489-2.489 0.189-0 0.377 0.020 0.562 0.060 0.894 0.206 1.599 0.891 1.831 1.778 0.191 0.727 0.036 1.5-0.42 2.098-0.079 0.101-0.122 0.227-0.121 0.356v0.117c0 0.3 0.244 0.544 0.544 0.544h3.164c0.842 0.007 1.572 0.581 1.778 1.397-0.016 0.151-0.025 0.303-0.025 0.455v0.661h-0.043c-0.411 0-0.821 0.052-1.22 0.153-2.393 0.612-3.956 2.91-3.646 5.361s2.396 4.288 4.866 4.285h0.043v0.661c0 0.152 0.008 0.304 0.025 0.455-0.206 0.816-0.936 1.39-1.778 1.397h-11.14c-1.013 0-1.839-0.814-1.852-1.828zM32 30.148v-11.125c0.012-0.488-0.181-0.958-0.533-1.296s-0.829-0.513-1.316-0.482h-3.129c-0.299 0.004-0.545-0.234-0.551-0.533v-0.117c-0.001-0.129 0.041-0.254 0.121-0.356 0.454-0.591 0.612-1.357 0.43-2.080-0.232-0.887-0.938-1.572-1.831-1.778-0.185-0.040-0.373-0.061-0.562-0.060-1.375 0-2.489 1.114-2.489 2.489 0.002 0.531 0.176 1.046 0.498 1.468 0.079 0.102 0.122 0.227 0.121 0.356v0.078c0 0.3-0.244 0.544-0.544 0.544h-3.2c-0.487-0.031-0.964 0.144-1.316 0.482s-0.545 0.808-0.533 1.296v3.164c0 0.3-0.244 0.544-0.544 0.544h-0.117c-0.129 0.001-0.254-0.041-0.356-0.121-0.66-0.499-1.527-0.632-2.307-0.355s-1.368 0.927-1.565 1.731c-0.047 0.196-0.070 0.396-0.071 0.597 0 1.375 1.114 2.489 2.489 2.489 0.531-0.002 1.046-0.176 1.468-0.498 0.102-0.079 0.227-0.122 0.356-0.121h0.117c0.144 0 0.283 0.057 0.385 0.159s0.159 0.24 0.159 0.385v3.164c0.014 1.009 0.832 1.822 1.842 1.828h11.125c1.023 0 1.852-0.829 1.852-1.852zM1.397 14.766c0.151-0.016 0.303-0.025 0.455-0.025h0.661v-0.043c-0.012-2.476 1.827-4.572 4.283-4.884s4.76 1.259 5.366 3.66c0.101 0.399 0.152 0.808 0.153 1.22v0.043h0.661c0.152 0 0.304 0.008 0.455 0.025 0.816-0.206 1.39-0.936 1.397-1.778v-3.164c0-0.3 0.244-0.544 0.544-0.544h0.117c0.129-0.001 0.254 0.041 0.356 0.121 0.597 0.455 1.371 0.61 2.098 0.42 0.887-0.232 1.572-0.938 1.778-1.831 0.040-0.185 0.061-0.373 0.060-0.562 0-1.375-1.114-2.489-2.489-2.489-0.531 0.002-1.046 0.176-1.468 0.498-0.102 0.079-0.227 0.122-0.356 0.121h-0.117c-0.3 0-0.544-0.244-0.544-0.544v-3.164c-0.004-1.012-0.819-1.834-1.831-1.845h-11.125c-1.023 0-1.852 0.829-1.852 1.852v11.125c0.002 0.846 0.577 1.582 1.397 1.788v0zM18.663 2.844h10.492v10.489c0 0.785 0.637 1.422 1.422 1.422s1.422-0.637 1.422-1.422v-11.911c0-0.785-0.637-1.422-1.422-1.422h-11.915c-0.785 0-1.422 0.637-1.422 1.422s0.637 1.422 1.422 1.422z"></path>
</svg>
