<?xml version="1.0" encoding="UTF-8" standalone="no"?>
<svg width="32px" height="32px" viewBox="0 0 32 32" version="1.1" xmlns="http://www.w3.org/2000/svg" xmlns:xlink="http://www.w3.org/1999/xlink">
    <!-- Generator: Sketch 43.1 (39012) - http://www.bohemiancoding.com/sketch -->
    <title>Shape</title>
    <desc>Created with Sketch.</desc>
    <defs></defs>
    <g id="Page-1" stroke="none" stroke-width="1" fill="none" fill-rule="evenodd">
        <g id="question-circle-large" fill-rule="nonzero" fill="#255984">
            <path d="M21.161,12.211 L21.161,12.211 C21.231,14.559 19.76,16.678 17.535,17.433 L17.504,17.433 L17.504,18.594 C17.598,19.253 17.299,19.907 16.739,20.266 C16.179,20.625 15.46,20.626 14.9,20.266 C14.34,19.906 14.041,19.253 14.135,18.594 L14.135,17.406 C14.149,15.961 15.085,14.686 16.46,14.24 C17.279,13.96 17.82,13.179 17.794,12.313 C17.724,11.257 16.858,10.429 15.799,10.407 C15.048,10.414 14.367,10.847 14.042,11.524 C13.839,12.158 13.286,12.615 12.626,12.696 C11.966,12.777 11.319,12.465 10.971,11.898 C10.623,11.331 10.636,10.614 11.006,10.061 C11.888,8.226 13.736,7.051 15.772,7.031 L15.806,7.031 C18.693,7.038 21.058,9.327 21.161,12.212 L21.161,12.212 L21.161,12.211 Z M15.82,21.586 C14.95,21.673 14.288,22.405 14.288,23.28 C14.288,24.155 14.95,24.886 15.82,24.974 L15.82,24.974 C16.76,24.974 17.522,24.212 17.522,23.272 L17.522,23.272 C17.513,22.339 16.753,21.587 15.82,21.587 L15.82,21.586 Z M32,16 C32,24.837 24.837,32 16,32 C7.163,32 0,24.837 0,16 C0,7.163 7.163,0 16,0 C20.243,0 24.313,1.686 27.314,4.686 C30.315,7.686 32,11.756 32,16 Z M28.446,16 C28.446,9.126 22.874,3.554 16,3.554 C9.126,3.554 3.554,9.126 3.554,16 C3.554,22.874 9.126,28.446 16,28.446 C22.871,28.438 28.438,22.871 28.446,16 L28.446,16 Z" id="Shape"></path>
        </g>
    </g>
</svg>