<!-- Generated by IcoMoon.io -->
<svg version="1.1" xmlns="http://www.w3.org/2000/svg" width="32" height="32" viewBox="0 0 32 32">
<title>question-circle-large</title>
<path d="M21.161 12.211v0c0.070 2.348-1.401 4.467-3.626 5.222h-0.031v1.161c0.094 0.659-0.205 1.313-0.765 1.672s-1.279 0.36-1.839 0c-0.56-0.36-0.859-1.013-0.765-1.672v-1.188c0.014-1.445 0.95-2.72 2.325-3.166 0.819-0.28 1.36-1.061 1.334-1.927-0.070-1.056-0.936-1.884-1.995-1.906-0.751 0.007-1.432 0.44-1.757 1.117-0.203 0.634-0.756 1.091-1.416 1.172s-1.307-0.231-1.655-0.798c-0.348-0.567-0.335-1.284 0.035-1.837 0.882-1.835 2.73-3.010 4.766-3.030h0.034c2.887 0.007 5.252 2.296 5.355 5.181v0zM15.82 21.586c-0.87 0.087-1.532 0.819-1.532 1.694s0.662 1.606 1.532 1.694v0c0.94 0 1.702-0.762 1.702-1.702v0c-0.009-0.933-0.769-1.685-1.702-1.685zM32 16c0 8.837-7.163 16-16 16s-16-7.163-16-16c0-8.837 7.163-16 16-16 4.243 0 8.313 1.686 11.314 4.686s4.686 7.070 4.686 11.314zM28.446 16c0-6.874-5.572-12.446-12.446-12.446s-12.446 5.572-12.446 12.446c0 6.874 5.572 12.446 12.446 12.446 6.871-0.008 12.438-5.575 12.446-12.446z"></path>
</svg>
