<?xml version="1.0" encoding="utf-8"?>
<!-- Generated by IcoMoon.io -->
<!DOCTYPE svg PUBLIC "-//W3C//DTD SVG 1.1//EN" "http://www.w3.org/Graphics/SVG/1.1/DTD/svg11.dtd">
<svg version="1.1" xmlns="http://www.w3.org/2000/svg" xmlns:xlink="http://www.w3.org/1999/xlink" width="32" height="32" viewBox="0 0 32 32">
<path fill="#000" d="M14.014 27.838c-5.27-1.016-10.010-5.924-10.010-11.806 0-2.98 1.102-5.77 3.012-7.918l0.032-0.020 3.416 3.416c0.848 0.85 1.536 0.566 1.536-0.636v-9.786c0-0.602-0.486-1.088-1.088-1.088h-9.786c-1.202 0-1.486 0.688-0.638 1.538l3.72 3.72-0.044 0.036c-2.644 2.892-4.158 6.686-4.158 10.738 0 8.088 6.718 14.792 14 15.854 1.094 0.158 1.994-0.75 1.994-1.854s-0.902-1.986-1.986-2.194z"></path>
<path d="M27.828 26.78l0.082-0.064c2.61-2.898 4.096-6.676 4.096-10.684 0-8.088-6.728-14.792-14.012-15.854-1.094-0.16-1.994 0.748-1.994 1.854s0.902 1.984 1.986 2.194c5.272 1.016 10.018 5.924 10.018 11.806 0 2.94-1.070 5.708-2.95 7.866l-0.062 0.046-3.456-3.454c-0.848-0.85-1.536-0.566-1.536 0.636v9.786c0 0.602 0.486 1.088 1.088 1.088h9.786c1.204 0 1.486-0.688 0.638-1.538l-3.684-3.682z"></path>
</svg>
