<!-- Generated by IcoMoon.io -->
<svg version="1.1" xmlns="http://www.w3.org/2000/svg" width="32" height="32" viewBox="0 0 32 32">
<title>ribbon</title>
<path d="M6.71 17.404c0.425 0.359 0.555 0.98 0.327 1.502l-0.196 0.457c-0.294 0.718 0.098 1.567 0.849 1.763l0.49 0.131c0.555 0.163 0.914 0.62 0.947 1.208l0.033 0.522c0.033 0.718 0.62 1.241 1.306 1.241 0.065 0 0.163 0 0.229-0.033l0.522-0.098c0.065 0 0.163-0.033 0.229-0.033 0.49 0 0.914 0.261 1.143 0.686l0.229 0.457c0.229 0.457 0.686 0.686 1.143 0.686 0.261 0 0.522-0.065 0.751-0.229l0.425-0.294c0.229-0.163 0.49-0.229 0.751-0.229s0.522 0.098 0.751 0.261l0.424 0.294c0.229 0.163 0.49 0.261 0.751 0.261 0.457 0 0.914-0.229 1.143-0.686l0.261-0.457c0.229-0.424 0.686-0.686 1.143-0.686 0.065 0 0.163 0 0.229 0.033l0.49 0.098c0.065 0 0.163 0.033 0.229 0.033 0.686 0 1.273-0.522 1.306-1.241l0.033-0.522c0.033-0.555 0.424-1.045 0.947-1.175l0.49-0.131c0.751-0.196 1.143-1.045 0.849-1.763l-0.196-0.49c-0.229-0.522-0.065-1.11 0.359-1.502l0.392-0.327c0.588-0.522 0.588-1.437 0-1.959l-0.392-0.327c-0.424-0.359-0.555-0.98-0.327-1.502l0.196-0.457c0.294-0.718-0.098-1.567-0.849-1.763l-0.49-0.131c-0.555-0.163-0.914-0.62-0.947-1.208l-0.033-0.522c-0.033-0.718-0.62-1.241-1.306-1.241-0.065 0-0.163 0-0.229 0.033l-0.522 0.098c-0.065 0-0.163 0.033-0.229 0.033-0.49 0-0.914-0.261-1.143-0.686l-0.196-0.555c-0.229-0.457-0.686-0.686-1.143-0.686-0.261 0-0.522 0.065-0.751 0.229l-0.424 0.294c-0.229 0.163-0.49 0.229-0.751 0.229s-0.522-0.098-0.751-0.261l-0.425-0.294c-0.229-0.163-0.49-0.261-0.751-0.261-0.457 0-0.914 0.229-1.143 0.686l-0.261 0.457c-0.229 0.425-0.686 0.686-1.143 0.686-0.065 0-0.163 0-0.229-0.033l-0.522-0.098c-0.065 0-0.163-0.033-0.229-0.033-0.686 0-1.273 0.522-1.306 1.241l-0.033 0.522c-0.033 0.555-0.425 1.045-0.947 1.175l-0.49 0.131c-0.751 0.196-1.143 1.045-0.849 1.763l0.196 0.49c0.229 0.522 0.065 1.11-0.359 1.502l-0.392 0.327c-0.588 0.522-0.588 1.437 0 1.959l0.392 0.424zM14.4 19.516l-3.166-3.091c-0.176-0.17-0.176-0.447 0-0.618l0.64-0.619c0.177-0.169 0.463-0.169 0.64 0l2.207 2.165 4.92-4.817c0.177-0.171 0.463-0.171 0.64 0l0.64 0.618c0.177 0.171 0.177 0.448 0 0.618l-5.88 5.744c-0.176 0.171-0.462 0.171-0.64 0zM0.079 27.458l5.551-5.551c0.425 0.457 0.947 0.816 1.567 0.98h0.065v0.065c0.065 1.665 1.404 3.004 3.069 3.102l-5.812 5.845c-0.196 0.196-0.522 0.065-0.555-0.196l-0.359-3.2c0-0.098-0.098-0.196-0.196-0.196l-3.102-0.294c-0.294-0.033-0.392-0.359-0.229-0.555zM21.63 5.939l5.812-5.845c0.196-0.196 0.522-0.065 0.555 0.196l0.359 3.2c0 0.098 0.098 0.196 0.196 0.196l3.135 0.294c0.261 0.033 0.392 0.359 0.196 0.555l-5.551 5.551c-0.424-0.457-0.947-0.816-1.567-0.98h-0.065v-0.065c-0.098-1.698-1.437-3.004-3.069-3.102z"></path>
</svg>
