<?xml version="1.0" encoding="utf-8"?>
<!-- Generated by IcoMoon.io -->
<!DOCTYPE svg PUBLIC "-//W3C//DTD SVG 1.1//EN" "http://www.w3.org/Graphics/SVG/1.1/DTD/svg11.dtd">
<svg version="1.1" xmlns="http://www.w3.org/2000/svg" xmlns:xlink="http://www.w3.org/1999/xlink" width="34" height="32" viewBox="0 0 34 32">
<path fill="#000" d="M13.188 18.824c-2.074 0-3.765-1.69-3.765-3.765s1.69-3.765 3.765-3.765c2.072 0 3.765 1.69 3.765 3.765s-1.692 3.765-3.765 3.765v0zM13.188 7.529c-4.151 0-7.529 3.379-7.529 7.529s3.379 7.529 7.529 7.529c4.151 0 7.529-3.379 7.529-7.529s-3.379-7.529-7.529-7.529v0z"></path>
<path d="M3.765 26.353v-22.588h26.353v22.588h-26.353zM1.882 0c-1.041 0-1.882 0.841-1.882 1.882v26.353c0 1.041 0.841 1.882 1.882 1.882h30.118c1.041 0 1.882-0.841 1.882-1.882v-26.353c0-1.041-0.841-1.882-1.882-1.882h-30.118z"></path>
<path d="M26.353 8.471c0-0.521-0.422-0.941-0.941-0.941s-0.941 0.42-0.941 0.941v13.176c0 0.52 0.422 0.941 0.941 0.941s0.941-0.422 0.941-0.941v-13.176z"></path>
<path d="M2.824 32h9.412c0.52 0 0.941-0.422 0.941-0.941s-0.422-0.941-0.941-0.941h-9.412c-0.521 0-0.941 0.422-0.941 0.941s0.42 0.941 0.941 0.941z"></path>
<path d="M21.647 32h9.412c0.52 0 0.941-0.422 0.941-0.941s-0.422-0.941-0.941-0.941h-9.412c-0.521 0-0.941 0.422-0.941 0.941s0.42 0.941 0.941 0.941z"></path>
</svg>
