<?xml version="1.0" encoding="UTF-8" standalone="no"?>
<svg width="13px" height="12px" viewBox="0 0 13 12" version="1.1" xmlns="http://www.w3.org/2000/svg" xmlns:xlink="http://www.w3.org/1999/xlink">
    <!-- Generator: Sketch 3.8.3 (29802) - http://www.bohemiancoding.com/sketch -->
    <title>search</title>
    <desc>Created with Sketch.</desc>
    <defs></defs>
    <g id="Page-1" stroke="none" stroke-width="1" fill="none" fill-rule="evenodd">
        <g id="search" fill="#838383">
            <g id="Page-1">
                <g id="Artboard-8">
                    <g id="Stroke">
                        <path d="M5.39499465,9 C3.27195722,9 1.54472727,7.31775 1.54472727,5.25 C1.54472727,3.18225 3.27195722,1.5 5.39499465,1.5 C7.51803209,1.5 9.24526203,3.18225 9.24526203,5.25 C9.24526203,7.31775 7.51803209,9 5.39499465,9 L5.39499465,9 L5.39499465,9 Z M12.0998503,10.71975 L9.70344385,8.40075 C9.70190374,8.39925 9.70036364,8.39925 9.69882353,8.39775 C10.3780107,7.51875 10.785369,6.43125 10.785369,5.25 C10.785369,2.35575 8.36663102,0 5.39499465,0 C2.42258824,0 0.00462032086,2.35575 0.00462032086,5.25 C0.00462032086,8.14425 2.42258824,10.5 5.39499465,10.5 C6.60782888,10.5 7.72440642,10.10325 8.62613904,9.4425 C8.62767914,9.444 8.62767914,9.4455 8.62921925,9.447 L11.0109947,11.78025 C11.1611551,11.9265 11.3582888,12 11.5554225,12 C11.7525561,12 11.9496898,11.9265 12.0998503,11.78025 C12.4009412,11.487 12.4009412,11.013 12.0998503,10.71975 L12.0998503,10.71975 L12.0998503,10.71975 Z" id="Fill-891"></path>
                    </g>
                </g>
            </g>
        </g>
    </g>
</svg>