<?xml version="1.0" encoding="utf-8"?>
<!-- Generated by IcoMoon.io -->
<!DOCTYPE svg PUBLIC "-//W3C//DTD SVG 1.1//EN" "http://www.w3.org/Graphics/SVG/1.1/DTD/svg11.dtd">
<svg version="1.1" xmlns="http://www.w3.org/2000/svg" xmlns:xlink="http://www.w3.org/1999/xlink" width="32" height="32" viewBox="0 0 32 32">
<path fill="#000" d="M32 7.992c0-5.262-8.048-7.992-16-7.992s-16 2.726-16 7.988c0 0.012 0.004 0.012 0.004 0.012h-0.004v8.004c0 0.012 0.002 0.028 0.002 0.040h-0.002v7.934c0 5.264 8.048 8.022 16 8.022s16-2.75 16-8.004v-7.996h-0.028c0.006 0 0.028-0.148 0.028-0.246v-7.754h-0.004c0 0 0.004 0.008 0.004-0.008zM4 13.506c3.082 1.674 7.554 2.536 12 2.536s8.918-0.864 12-2.538v2.248c0 0.64-0.82 1.688-2.402 2.448-2.37 1.162-5.868 1.83-9.598 1.83s-7.228-0.668-9.612-1.836c-1.764-0.846-2.388-1.71-2.388-2.19v-2.498zM16 4.002c7.444 0 12 2.61 12 4.026 0 1.422-4.556 4.030-12 4.030s-12-2.608-12-4.030c0-1.416 4.556-4.026 12-4.026zM16 28.010c-7.444 0-12-2.614-12-4.034v-2.55c0.212 0.118 0.4 0.238 0.636 0.352 2.942 1.44 6.978 2.238 11.364 2.238s8.422-0.796 11.35-2.23c0.228-0.11 0.436-0.234 0.65-0.356v2.566c0 1.412-4.556 4.014-12 4.014z"></path>
</svg>
