<?xml version="1.0" encoding="utf-8"?>
<!-- Generated by IcoMoon.io -->
<!DOCTYPE svg PUBLIC "-//W3C//DTD SVG 1.1//EN" "http://www.w3.org/Graphics/SVG/1.1/DTD/svg11.dtd">
<svg version="1.1" xmlns="http://www.w3.org/2000/svg" xmlns:xlink="http://www.w3.org/1999/xlink" width="32" height="32" viewBox="0 0 32 32">
<path fill="#000" d="M28 14.002c-1.106 0-2.16-0.886-2.582-1.904-0.42-1.016-0.3-2.388 0.48-3.17l1.414-1.412c0.782-0.782 0.782-2.048 0.002-2.83-0.782-0.782-2.048-0.782-2.83 0 0 0-0.632 0.632-1.414 1.414s-2.152 0.902-3.168 0.482c-1.014-0.42-1.902-1.474-1.902-2.58v-2c0-1.106-0.894-2-2-2s-2 0.894-2 2v2c0 1.106-0.884 2.16-1.9 2.582s-2.384 0.3-3.166-0.48l-1.418-1.414c-0.782-0.782-2.048-0.78-2.826 0-0.782 0.78-0.782 2.046-0.002 2.828l1.418 1.416c0.78 0.78 0.918 2.158 0.574 3.192-0.34 1.036-1.38 1.908-2.482 1.896l-2.194-0.020c-1.104 0-2 0.898-2 2 0 1.106 0.896 2 2 2h2.002c1.104 0 2.174 0.876 2.662 1.85 0.49 0.972 0.376 2.318-0.414 3.092l-1.566 1.54c-0.782 0.782-0.78 2.050 0 2.828 0.782 0.782 2.048 0.782 2.828 0.002l1.416-1.416c0.782-0.782 2.15-0.902 3.168-0.48 1.016 0.422 1.9 1.476 1.9 2.582v2.002c0 1.104 0.896 2 2 1.998 1.106 0 2-0.894 2-1.998v-2.002c0-1.106 0.888-2.16 1.902-2.578 1.016-0.422 2.386-0.3 3.168 0.48l1.414 1.414c0.782 0.782 2.048 0.782 2.826 0 0.782-0.782 0.784-2.048 0.004-2.828l-1.416-1.416c-0.782-0.782-0.902-2.152-0.48-3.168s1.476-1.902 2.582-1.902h2c1.106 0 2-0.894 2-2s-0.894-2-2-2h-2zM15.998 22.003c-3.308 0-6.001-2.692-6.001-6.001s2.692-6.001 6.001-6.001 6.001 2.692 6.001 6.001-2.692 6.001-6.001 6.001z"></path>
</svg>
