<?xml version="1.0" encoding="utf-8"?>
<!-- Generated by IcoMoon.io -->
<!DOCTYPE svg PUBLIC "-//W3C//DTD SVG 1.1//EN" "http://www.w3.org/Graphics/SVG/1.1/DTD/svg11.dtd">
<svg version="1.1" xmlns="http://www.w3.org/2000/svg" xmlns:xlink="http://www.w3.org/1999/xlink" width="32" height="32" viewBox="0 0 32 32">
<path fill="#000" d="M30 14h-2.18c-0.3-1.82-1-3.5-2.042-4.942l1.522-1.54c0.78-0.78 0.78-2.058 0-2.84-0.782-0.78-2.042-0.78-2.82 0l-1.542 1.54c-1.438-1.038-2.938-1.738-4.938-2.038v-2.18c0-1.1-0.9-2-2-2s-2 0.9-2 2v2.18c-2 0.3-3.5 1-4.94 2.040l-1.54-1.54c-0.778-0.78-2.058-0.78-2.84 0-0.78 0.782-0.78 2.060 0 2.84l1.542 1.54c-1.042 1.44-1.742 3.12-2.042 4.94h-2.18c-1.1 0-2 0.96-2 2.058 0 1.102 0.9 1.942 2.24 1.942h1.94c0.3 1.82 1 3.5 2.042 4.942l-1.542 1.538c-0.78 0.78-0.78 2.058 0 2.84 0.782 0.78 2.042 0.78 2.82 0l1.56-1.54c1.44 1.040 2.94 1.74 4.94 2.040v2.18c0 1.1 0.9 2 2 2s2-0.9 2-2v-2.18c2-0.3 3.5-1 4.94-2.040l1.542 1.54c0.782 0.78 2.040 0.78 2.82 0 0.78-0.782 0.78-2.060 0-2.84l-1.522-1.52c1.020-1.44 1.74-3.12 2.040-4.96h2.18c1.1 0 2-0.9 2-2s-0.9-2-2-2zM16 22c-3.32 0-6-2.7-6-6s2.68-6 6-6c3.3 0 6 2.7 6 6s-2.7 6-6 6z"></path>
</svg>
