<?xml version="1.0" encoding="utf-8"?>
<!-- Generated by IcoMoon.io -->
<!DOCTYPE svg PUBLIC "-//W3C//DTD SVG 1.1//EN" "http://www.w3.org/Graphics/SVG/1.1/DTD/svg11.dtd">
<svg version="1.1" xmlns="http://www.w3.org/2000/svg" xmlns:xlink="http://www.w3.org/1999/xlink" width="32" height="32" viewBox="0 0 32 32">
<path fill="#000" d="M25 18c-2.176 0-4.098 1.016-5.38 2.574l-4.070-2.034c0.27-0.804 0.45-1.648 0.45-2.54s-0.18-1.736-0.45-2.54l4.070-2.034c1.282 1.558 3.204 2.574 5.38 2.574 3.866 0 7-3.134 7-7s-3.134-7-7-7-7 3.134-7 7c0 0.25 0.046 0.484 0.074 0.726l-4.726 2.364c-1.418-1.286-3.284-2.090-5.348-2.090-4.418 0-8 3.582-8 8s3.582 8 8 8c2.064 0 3.93-0.804 5.348-2.090l4.726 2.364c-0.028 0.242-0.074 0.476-0.074 0.726 0 3.866 3.134 7 7 7s7-3.134 7-7-3.134-7-7-7zM25 3.4c1.984 0 3.6 1.616 3.6 3.6s-1.616 3.6-3.6 3.6-3.6-1.616-3.6-3.6 1.616-3.6 3.6-3.6zM8 20.114c-2.27 0-4.114-1.844-4.114-4.114s1.844-4.114 4.114-4.114 4.114 1.844 4.114 4.114-1.844 4.114-4.114 4.114zM25 28.6c-1.984 0-3.6-1.616-3.6-3.6s1.616-3.6 3.6-3.6 3.6 1.616 3.6 3.6-1.616 3.6-3.6 3.6z"></path>
</svg>
