<!-- Generated by IcoMoon.io -->
<svg version="1.1" xmlns="http://www.w3.org/2000/svg" width="27" height="32" viewBox="0 0 27 32">
<title>shield-check</title>
<path d="M1.618 0.146c0.225-0.012 0.448 0.044 0.64 0.161 4.172 2.522 7.992 2.445 10.55 0.126 0.424-0.383 1.069-0.383 1.493 0 2.558 2.318 6.382 2.395 10.554-0.126 0.696-0.418 1.589 0.025 1.68 0.833 0.754 6.833 0.389 12.421-1.554 17.353s-5.445 9.139-10.741 13.255c-0.402 0.313-0.965 0.313-1.367 0-5.292-4.112-8.85-8.297-10.824-13.224s-2.342-10.527-1.475-17.401c0.067-0.536 0.506-0.947 1.045-0.977zM11.193 19.6c0.251 0.242 0.654 0.242 0.904 0l8.309-8.117c0.251-0.24 0.251-0.631 0-0.873l-0.904-0.873c-0.249-0.242-0.653-0.242-0.904 0l-6.953 6.807-3.119-3.059c-0.249-0.239-0.653-0.239-0.904 0l-0.904 0.874c-0.249 0.242-0.249 0.633 0 0.873l4.474 4.368z"></path>
</svg>
