<?xml version="1.0" encoding="UTF-8" standalone="no"?>
<svg width="67px" height="80px" viewBox="0 0 67 80" version="1.1" xmlns="http://www.w3.org/2000/svg" xmlns:xlink="http://www.w3.org/1999/xlink">
    <!-- Generator: Sketch 44.1 (41455) - http://www.bohemiancoding.com/sketch -->
    <title>Group 4</title>
    <desc>Created with Sketch.</desc>
    <defs></defs>
    <g id="Hybrid-Designation-First-Run" stroke="none" stroke-width="1" fill="none" fill-rule="evenodd">
        <g id="Artboard-7-Copy-10" transform="translate(-356.000000, -250.000000)">
            <g id="Group-4" transform="translate(356.000000, 250.000000)">
                <path d="M3.711036,0.00405886027 C2.36712182,0.0781237544 1.26874108,1.10513915 1.10241186,2.44319164 C-1.06289253,19.6113413 -0.141917709,33.5956389 4.78709359,45.9011335 C9.71609933,58.2071861 18.6016987,68.6568658 31.8189613,78.9274268 C32.8230816,79.7083562 34.2277907,79.7083562 35.2319115,78.9274268 C48.4596154,68.6485031 57.2043468,58.1426704 62.0572614,45.8249104 C66.910176,33.506593 67.8199472,19.5517568 65.9375919,2.48674759 C65.7111494,0.470578825 63.4793525,-0.635760346 61.7420561,0.406951189 C51.3237873,6.70298011 41.7714509,6.51086174 35.384081,0.722731634 C34.3250124,-0.234462736 32.7149908,-0.234462736 31.6559222,0.722731634 C25.268569,6.51309181 15.7269871,6.70521017 5.30881842,0.406951189 C4.82902858,0.114158805 4.27201512,-0.0262959939 3.711036,0.00405886027 Z" id="Shape" fill="#255984"></path>
                <path d="M32.9628493,14.862826 C32.9628493,17.9620191 30.4710312,20.4719084 27.3941523,20.4719084 C24.3201797,20.4719084 21.8283616,17.9620191 21.8283616,14.862826 C21.8283616,11.7665603 24.3201797,9.25667105 27.3941523,9.25667105 C30.4710312,9.25667105 32.9628493,11.7665603 32.9628493,14.862826" id="Shape" fill="#FFFFFF" fill-rule="nonzero"></path>
                <path d="M46.253589,16.2086695 C46.253589,19.2198912 43.8287649,21.6593732 40.8392241,21.6593732 C37.8496833,21.6593732 35.4277655,19.2198912 35.4277655,16.2086695 C35.4277655,13.1974479 37.8496833,10.7550385 40.8392241,10.7550385 C43.8287649,10.7550385 46.253589,13.1974479 46.253589,16.2086695" id="Shape" fill="#FFFFFF" fill-rule="nonzero"></path>
                <path d="M52.3143452,38.2022894 C51.056811,29.5672734 49.1559408,25.8727716 44.483726,22.9874273 C44.3934891,22.9317185 42.9234148,22.1459186 42.2335781,21.9758304 L40.8857995,23.3421655 L39.5787836,21.958191 C39.5729613,21.958191 39.5700505,21.9611229 39.5642282,21.9611229 C38.5628211,22.2015508 36.1467904,23.7731702 34.8804627,24.9899839 C33.8674304,23.7702428 32.6448463,22.7615733 31.1428101,21.8321681 C31.0496594,21.7735267 29.5359981,20.9672404 28.8285745,20.7912974 L27.4429394,22.1986909 L26.0980671,20.7766605 C26.0922448,20.7766605 26.089334,20.7795924 26.0835118,20.7795924 C25.1287545,21.1109191 24.2786986,21.6064643 23.2744597,22.2895943 C18.9837156,25.1952802 17.155652,29.0509379 15.9271808,37.4804369 C15.7554333,38.670829 16.5705018,39.7762522 17.7523381,39.9492678 C17.8600426,39.9639279 17.9648409,39.9727243 18.0696316,39.9727243 C19.1234267,39.9727243 20.0490464,39.1927656 20.2062848,38.1108366 C20.6487506,35.0790482 21.1581358,32.8624222 21.7461774,31.1881869 L21.7461774,38.0433567 C21.7461774,38.6297707 21.859702,39.1751263 22.0576509,39.6765337 C22.0430963,39.7908816 22.0314517,39.905237 22.0314517,40.0195849 L24.0138474,60.8662728 C24.0138474,62.2883032 25.1578868,63.4377121 26.5696786,63.4377121 L30.4965389,63.4377121 L30.5023604,48.659705 L30.2520161,47.6305438 L30.2520161,42.2120413 C29.8037303,43.0007821 29.3874287,45.284888 29.3874287,47.0851507 C29.3874287,47.8298983 28.7877693,48.4339216 28.048369,48.4339216 C27.8329599,48.4339216 27.6350109,48.3782128 27.4545296,48.2902473 L27.1343223,48.0292903 C26.8985318,47.7859276 26.7529857,47.4546084 26.7529857,47.0851732 C26.7529857,45.7246928 26.8956255,44.5401554 27.1343223,43.5139216 L27.2711346,42.9890801 C28.7149702,37.8814051 32.7117307,36.9637095 33.2327784,36.8376071 C33.2356899,36.8376071 33.2386007,36.8376071 33.2415115,36.8346744 L34.1148178,37.7612272 L34.9881241,36.8346744 C34.9910356,36.8376071 34.9968571,36.8376071 34.9968571,36.8376071 C35.6401781,36.9930058 41.4824549,38.3271173 41.4824549,47.084933 C41.4824549,47.8296806 40.8827955,48.4337039 40.1433952,48.4337039 C39.4039949,48.4337039 38.8043355,47.8296956 38.8043355,47.084933 C38.8043355,45.2846703 38.3880711,43.0005645 37.9368418,42.2118236 L37.9368418,47.6801666 L37.698145,48.6682695 L37.698145,63.4432742 L41.9306886,63.4432742 C43.3017176,63.4432742 44.4137132,62.3232141 44.4137132,60.9422421 L45.9070305,50.0996825 L48.6520694,50.1026144 L46.4222656,34.6445547 L46.4222656,31.4573901 C47.0946943,33.1462623 47.6681746,35.4714265 48.1542721,38.81104 C48.308552,39.8636202 49.2051609,40.6230873 50.2298184,40.6230873 C50.3317029,40.6230873 50.4335874,40.6142916 50.5383782,40.5996307 C51.6882303,40.4324999 52.4829174,39.3564706 52.3140538,38.201207 L52.3143452,38.2022894 Z M34.1179178,36.6248077 C32.0540712,36.6042837 30.3860778,34.9125164 30.3860778,32.8306999 C30.3860778,30.7460312 32.0540712,29.0571589 34.1179178,29.0365922 C36.1817644,29.0571169 37.8497578,30.7459561 37.8497578,32.8306999 C37.8497578,34.9154438 36.1817644,36.6042409 34.1179178,36.6248077 L34.1179178,36.6248077 Z" id="Shape" fill="#FFFFFF" fill-rule="nonzero"></path>
                <path d="M34.0396712,49.4847063 L33.9668974,49.4817744 L33.9465205,49.4817744 C33.8097083,49.4817744 33.6816224,49.5345513 33.5826516,49.6313109 C33.4807671,49.7309994 33.4225517,49.8658765 33.4225517,50.0095508 L33.4254624,63.4709882 L34.8547666,63.4709882 L34.8547666,50.0095508 C34.8547666,49.8658765 34.7965474,49.7310069 34.6946666,49.6313109 C34.5956959,49.5345498 34.46761,49.4817744 34.3307977,49.4817744 L34.3104208,49.4817744" id="Shape" fill="#FFFFFF" fill-rule="nonzero"></path>
            </g>
        </g>
    </g>
</svg>