<!-- Generated by IcoMoon.io -->
<svg version="1.1" xmlns="http://www.w3.org/2000/svg" width="27" height="32" viewBox="0 0 27 32">
<title>shield-man</title>
<path d="M25.767 4.375c-4.571 0.095-7.837-1.071-10.671-3.814-0.768-0.749-1.994-0.749-2.762 0-2.821 2.743-6.093 3.918-10.671 3.814-0.393-0.007-0.772 0.145-1.050 0.422s-0.433 0.655-0.429 1.047c0 0.898 0 1.845-0.026 2.828-0.157 7.856-0.356 18.619 12.905 23.22 0.423 0.148 0.883 0.148 1.306 0 13.267-4.598 13.061-15.347 12.911-23.22-0.020-0.98-0.036-1.93-0.026-2.825 0.005-0.394-0.15-0.774-0.43-1.052s-0.661-0.43-1.056-0.421zM13.714 9.015c1.342 0 2.552 0.808 3.065 2.048s0.23 2.667-0.719 3.615c-0.949 0.949-2.376 1.233-3.615 0.719s-2.048-1.723-2.048-3.065c0-1.832 1.485-3.318 3.318-3.318v0zM19.918 22.116c0 0.478-0.387 0.865-0.865 0.865h-10.665c-0.232 0.003-0.455-0.086-0.62-0.249s-0.258-0.385-0.258-0.617v-2.681c0-1.509 1.224-2.733 2.733-2.733h0.98l2.171 2.171c0.164 0.164 0.43 0.164 0.594 0l2.171-2.171h0.98c0.733-0.012 1.44 0.27 1.962 0.784s0.817 1.216 0.817 1.949v2.681z"></path>
</svg>
