<!-- Generated by IcoMoon.io -->
<svg version="1.1" xmlns="http://www.w3.org/2000/svg" width="51" height="32" viewBox="0 0 51 32">
<title>stars-five</title>
<path d="M0.335 6.756c-0.3-0.295-0.408-0.734-0.278-1.135s0.475-0.692 0.892-0.754l3.665-0.516 1.636-3.319c0.183-0.389 0.574-0.637 1.004-0.637s0.821 0.248 1.004 0.637l1.636 3.319 3.665 0.516c0.416 0.062 0.762 0.354 0.892 0.754s0.023 0.84-0.278 1.135l-2.653 2.581 0.625 3.649c0.074 0.417-0.097 0.84-0.44 1.088s-0.798 0.279-1.171 0.078l-3.308-1.719-3.257 1.724c-0.373 0.196-0.825 0.164-1.167-0.084s-0.513-0.667-0.443-1.083l0.63-3.649-2.653-2.586zM32.48 5.615c-0.128-0.402-0.475-0.694-0.893-0.754l-3.665-0.516-1.641-3.314c-0.188-0.377-0.572-0.615-0.994-0.615s-0.806 0.238-0.994 0.615l-1.636 3.303-3.665 0.516c-0.416 0.062-0.762 0.354-0.892 0.754s-0.023 0.84 0.278 1.135l2.653 2.581-0.625 3.649c-0.070 0.416 0.102 0.835 0.443 1.083s0.794 0.28 1.167 0.084l3.272-1.703 3.277 1.724c0.373 0.196 0.826 0.164 1.167-0.084s0.513-0.667 0.443-1.083l-0.63-3.649 2.653-2.581c0.305-0.295 0.414-0.739 0.279-1.141v-0.005zM49.631 4.862l-3.665-0.516-1.636-3.314c-0.183-0.389-0.574-0.637-1.004-0.637s-0.821 0.248-1.004 0.637l-1.621 3.303-3.665 0.516c-0.416 0.062-0.762 0.354-0.892 0.754s-0.023 0.84 0.278 1.135l2.653 2.581-0.625 3.67c-0.070 0.416 0.102 0.835 0.443 1.083s0.794 0.28 1.167 0.084l3.293-1.724 3.277 1.724c0.373 0.196 0.825 0.164 1.167-0.084s0.513-0.667 0.443-1.083l-0.65-3.649 2.653-2.581c0.3-0.295 0.408-0.734 0.278-1.135s-0.475-0.692-0.892-0.754v-0.010zM16.268 17.714c-0.423-0.001-0.81 0.239-0.996 0.619l-1.641 3.319-3.665 0.516c-0.416 0.062-0.762 0.354-0.892 0.754s-0.023 0.84 0.278 1.135l2.653 2.581-0.625 3.649c-0.084 0.421 0.081 0.853 0.426 1.109s0.806 0.291 1.184 0.089l3.277-1.724 3.277 1.724c0.375 0.201 0.833 0.169 1.177-0.081s0.515-0.676 0.438-1.095l-0.625-3.649 2.653-2.581c0.297-0.297 0.402-0.736 0.27-1.135s-0.478-0.689-0.894-0.749l-3.665-0.516-1.636-3.319c-0.177-0.391-0.567-0.643-0.996-0.645zM40.609 22.194l-3.665-0.516-1.636-3.319c-0.188-0.377-0.572-0.615-0.994-0.615s-0.806 0.238-0.994 0.615l-1.641 3.319-3.665 0.516c-0.416 0.062-0.762 0.354-0.892 0.754s-0.023 0.84 0.278 1.135l2.653 2.581-0.635 3.644c-0.076 0.419 0.094 0.845 0.438 1.095s0.802 0.282 1.177 0.081l3.277-1.724 3.277 1.724c0.373 0.196 0.825 0.164 1.167-0.084s0.513-0.667 0.443-1.083l-0.625-3.649 2.653-2.581c0.304-0.295 0.413-0.738 0.281-1.14s-0.481-0.695-0.9-0.754z"></path>
</svg>
