<?xml version="1.0" encoding="utf-8"?>
<!-- Generated by IcoMoon.io -->
<!DOCTYPE svg PUBLIC "-//W3C//DTD SVG 1.1//EN" "http://www.w3.org/Graphics/SVG/1.1/DTD/svg11.dtd">
<svg version="1.1" xmlns="http://www.w3.org/2000/svg" xmlns:xlink="http://www.w3.org/1999/xlink" width="32" height="32" viewBox="0 0 32 32">
<path fill="#000" d="M30 0h-20c-1.104 0-2 0.894-2 2v6h-6c-1.104 0-2 0.894-2 2v20c0 1.106 0.896 2 2 2h20c1.104 0 2-0.894 2-2v-6h6c1.104 0 2-0.894 2-2v-20c0-1.106-0.896-2-2-2zM20 28h-16v-16h4v10c0 1.106 0.896 2 2 2h10v4zM28 20h-16v-16h16v16z"></path>
</svg>
