<!-- Generated by IcoMoon.io -->
<svg version="1.1" xmlns="http://www.w3.org/2000/svg" width="33" height="32" viewBox="0 0 33 32">
<title>thumbs_up</title>
<path d="M4.547 13.296l4.586-0.99c0.812-0.176 1.614 0.339 1.791 1.151l0.198 0.911c0.008 0.042 0.038 0.075 0.078 0.089s0.084 0.005 0.116-0.023c0.555-0.503 0.944-1.164 1.115-1.894l2.382-10.339c0.025-0.95 0.747-1.736 1.691-1.842s1.822 0.502 2.056 1.423l0.66 8.343c0.011 0.157 0.091 0.301 0.218 0.393s0.289 0.123 0.442 0.085l9.788-2.128c1.282-0.295 2.57 0.471 2.923 1.739 0.19 0.755 0.001 1.555-0.508 2.144-0.355 0.405-0.834 0.682-1.362 0.788h-0.030c0.654 0.382 1.090 1.049 1.178 1.801 0.12 1.248-0.719 2.386-1.946 2.639v0c0.654 0.382 1.090 1.049 1.178 1.801 0.119 1.247-0.72 2.384-1.946 2.639v0c0.637 0.384 1.060 1.040 1.148 1.778 0.12 1.248-0.719 2.386-1.946 2.639l-1.089 0.238-6.407 1.458c-2.15 0.489-4.382 0.489-6.532 0-0.047-0.011-0.096 0.002-0.13 0.036s-0.049 0.083-0.038 0.129l0.139 0.633c0.085 0.391 0.011 0.8-0.205 1.137s-0.558 0.573-0.949 0.658l-4.586 0.99c-0.537 0.145-1.111-0.017-1.492-0.423s-0.508-0.988-0.33-1.516c0.178-0.527 0.633-0.913 1.182-1.004l3.114-0.676-2.728-12.546-3.114 0.676c-0.812 0.176-1.614-0.339-1.791-1.151v0c-0.174-0.81 0.339-1.609 1.148-1.788v0zM4.969 24.394c-0.386 0.839-0.019 1.831 0.819 2.218s1.831 0.021 2.219-0.816c0.388-0.838 0.023-1.831-0.814-2.22-0.839-0.386-1.832-0.020-2.22 0.818h-0.003zM0.951 0.948c-0.609 0.608-0.951 1.434-0.951 2.294s0.342 1.686 0.951 2.294l4.421 4.414c0.193 0.193 0.506 0.193 0.699 0l4.411-4.407c1.267-1.266 1.268-3.32 0.002-4.587s-3.32-1.268-4.587-0.002l-0.178 0.178-0.181-0.181c-0.608-0.609-1.434-0.951-2.294-0.951s-1.686 0.342-2.294 0.951l0.003-0.003z"></path>
</svg>
