<?xml version="1.0" encoding="UTF-8" standalone="no"?>
<svg width="80px" height="80px" viewBox="0 0 80 80" version="1.1" xmlns="http://www.w3.org/2000/svg" xmlns:xlink="http://www.w3.org/1999/xlink">
    <!-- Generator: Sketch 44.1 (41455) - http://www.bohemiancoding.com/sketch -->
    <title>np_copy-files_564991_000000</title>
    <desc>Created with Sketch.</desc>
    <defs></defs>
    <g id="Hybrid-Designation-First-Run" stroke="none" stroke-width="1" fill="none" fill-rule="evenodd">
        <g id="Artboard-7-Copy-10" transform="translate(-349.000000, -528.000000)" fill-rule="nonzero" fill="#255984">
            <g id="np_copy-files_564991_000000" transform="translate(349.000000, 528.000000)">
                <path d="M67.9376,23.4904 C67.9376,17.90288 63.36576,13.3312 57.7784,13.3312 L57.7784,15.87184 C61.96904,15.87184 65.39712,19.3 65.39712,23.49056 L67.9376,23.4904 Z" id="Shape"></path>
                <path d="M72.7624,25.9064 C74.66864,15.1128 63.6184,4.3192 51.1752,9.7784 C47.74704,4.0628 41.6504,0.6344 34.9224,0.6344 C25.7784,0.6344 18.0352,6.9844 16.2568,16 C12.44744,17.77816 9.65368,21.20624 8.63808,25.3968 C3.9412,26.92176 0.63808,31.23744 0.63808,36.3184 C0.63808,42.6684 5.97248,48.6368 14.60688,47.7464 L14.60688,45.20576 C7.62248,46.09328 2.92528,41.26824 3.17888,36.31856 C3.688256,28.19056 10.7976,27.43136 10.7976,27.43136 C11.68512,21.20952 15.87576,18.79696 18.54448,17.78176 C18.54448,17.78176 19.306976,7.62256 29.97248,3.94096 C38.48208,1.01912 47.87888,6.73472 50.16288,13.33776 C61.20688,5.84088 73.39728,16.5096 69.84128,27.42816 C69.84128,27.42816 76.82568,29.20632 76.82568,36.19056 C76.82568,41.14368 73.01632,45.84016 65.39768,45.07776 L65.39768,47.6184 C74.41368,48.50592 79.36648,42.54024 79.36648,36.1904 C79.36648,31.74664 76.82584,27.6808 72.76336,25.9064 L72.7624,25.9064 Z" id="Shape"></path>
                <path d="M15.872,28.572 L15.872,59.0472 L38.728,59.0472 L38.7311248,38.2224 L29.0815248,28.5728 L15.872,28.572 Z M29.8408,32.8876 L34.41264,37.45944 L29.8408,37.45944 L29.8408,32.8876 Z M18.4128,56.5092 L18.4128,31.1124 L27.3,31.1124 L27.3,39.9996 L36.1872,39.9996 L36.1872,56.5092 L18.4128,56.5092 Z" id="Shape"></path>
                <path d="M41.2688,48.8872 L41.2688,79.3624 L64.1248,79.3624 L64.1279248,58.5408 L54.4783248,48.8912 L41.2688,48.8872 Z M55.2376,53.20592 L59.80944,57.77776 L55.2376,57.77776 L55.2376,53.20592 Z M43.8096,76.82432 L43.8096,51.42752 L52.6968,51.42752 L52.6968,60.31472 L61.584,60.31472 L61.584,76.82432 L43.8096,76.82432 Z" id="Shape"></path>
                <polygon id="Shape" points="42.5408 31.1128 42.5408 33.65032 51.428 33.65032 51.428 40.7628 49.778 39.1128 47.99984 40.88784 52.69672 45.58784 57.39672 40.88784 55.61856 39.1128 53.96856 40.7628 53.96856 31.1132"></polygon>
                <polygon id="Shape" points="26.0312 67.1752 27.6812 68.8252 29.45936 67.04704 24.76248 62.35016 20.06248 67.04704 21.84064 68.8252 23.49064 67.1752 23.49064 76.8248 34.92184 76.8248 34.92184 74.28416 26.03144 74.28416"></polygon>
            </g>
        </g>
    </g>
</svg>