<?xml version="1.0" encoding="UTF-8" standalone="no"?>
<svg width="16px" height="17px" viewBox="0 0 16 17" version="1.1" xmlns="http://www.w3.org/2000/svg" xmlns:xlink="http://www.w3.org/1999/xlink">
    <!-- Generator: Sketch 3.8.3 (29802) - http://www.bohemiancoding.com/sketch -->
    <title>Group 3</title>
    <desc>Created with Sketch.</desc>
    <defs></defs>
    <g id="Page-1" stroke="none" stroke-width="1" fill="none" fill-rule="evenodd">
        <g id="Artboard-8" transform="translate(-1609.000000, -803.000000)" fill="#0A0A08">
            <g id="Group-3" transform="translate(1609.000000, 803.000000)">
                <path d="M14,12.04 C12.769,12.12 10.7,12.37 9,13.15 L9,3.45 C9.529,3.05 10.24,2.76 11,2.55 C11.66,2.359 12.359,2.23 13,2.15 C13.359,2.1 13.689,2.061 14,2.04 L14,12.04 L14,12.04 Z M7,13.15 C5.3,12.37 3.23,12.12 2,12.04 L2,2.04 C3.5,2.16 5.769,2.52 7,3.45 L7,13.15 L7,13.15 Z M8,1.721 C5.57,0.05 1.906,0 1,0 C0.422,0 0,0.447 0,1 L0,13 C0,13.553 0.203,14 1,14 C2.2,14 5.439,14.27 7,15.45 C7.099,15.53 7.2,15.62 7.29,15.71 C7.29,15.71 7.449,15.869 7.644,16.064 C7.842,16.262 8.158,16.262 8.355,16.064 L8.71,15.71 C8.8,15.62 8.9,15.53 9,15.45 C10.56,14.27 13.967,13.984 15.167,13.984 C15.167,13.984 14.724,14 15,14 C15.547,14 16,13.553 16,13 L16,1 C16,0.447 15.594,0 15,0 C14.5,0 10.43,0.05 8,1.721 L8,1.721 Z" id="Fill-972"></path>
                <path d="M3,5.5 L3,6.04 C3,6.316 3.221,6.568 3.495,6.613 C4.173,6.723 4.886,6.882 5.533,7.104 C5.794,7.193 6,7.057 6,6.78 L6,6.14 C6,5.863 5.789,5.566 5.524,5.49 C4.83,5.288 4.131,5.153 3.496,5.063 C3.223,5.024 3,5.224 3,5.5" id="Fill-973"></path>
                <path d="M3,8.5 L3,9.04 C3,9.316 3.221,9.568 3.495,9.613 C4.173,9.723 4.886,9.882 5.533,10.104 C5.794,10.193 6,10.057 6,9.78 L6,9.14 C6,8.863 5.789,8.566 5.524,8.49 C4.83,8.288 4.131,8.153 3.496,8.063 C3.223,8.024 3,8.224 3,8.5" id="Fill-974"></path>
                <path d="M10,6.14 L10,6.78 C10,7.057 10.207,7.193 10.468,7.104 C11.115,6.881 11.827,6.723 12.504,6.613 C12.777,6.568 13,6.316 13,6.04 L13,5.5 C13,5.224 12.778,5.024 12.504,5.063 C11.87,5.152 11.17,5.288 10.476,5.49 C10.211,5.566 10,5.863 10,6.14" id="Fill-975"></path>
                <path d="M10,9.14 L10,9.78 C10,10.057 10.207,10.193 10.468,10.104 C11.115,9.881 11.827,9.723 12.504,9.613 C12.777,9.568 13,9.316 13,9.04 L13,8.5 C13,8.224 12.778,8.024 12.504,8.063 C11.87,8.152 11.17,8.288 10.476,8.49 C10.211,8.566 10,8.863 10,9.14" id="Fill-976"></path>
            </g>
        </g>
    </g>
</svg>