<?xml version="1.0" encoding="UTF-8" standalone="no"?>
<svg width="150px" height="150px" viewBox="0 0 150 150" version="1.1" xmlns="http://www.w3.org/2000/svg" xmlns:xlink="http://www.w3.org/1999/xlink">
    <!-- Generator: Sketch 43.1 (39012) - http://www.bohemiancoding.com/sketch -->
    <title>tuts-checked-2</title>
    <desc>Created with Sketch.</desc>
    <defs></defs>
    <g id="Paid---First-Run" stroke="none" stroke-width="1" fill="none" fill-rule="evenodd">
        <g id="tuts-checked-2">
            <g id="Group">
                <path d="M0,0 L150,0 L150,150 L0,150 L0,0 Z M75,125 C102.614237,125 125,102.614237 125,75 C125,47.3857625 102.614237,25 75,25 C47.3857625,25 25,47.3857625 25,75 C25,102.614237 47.3857625,125 75,125 Z" id="Combined-Shape" fill="#97C761"></path>
                <circle id="Oval" fill="#FFFFFF" cx="75" cy="75" r="50"></circle>
                <path d="M62.5164324,101.410969 L38.5034016,77.9673904 C37.1655328,76.6775476 37.1655328,74.5781226 38.5034016,73.2814189 L43.3540339,68.5885866 C44.6987636,67.3056047 46.8667972,67.3056047 48.2046661,68.5885866 L64.9451789,85.0066388 L102.261429,48.4725277 C103.606158,47.1758241 105.774192,47.1758241 107.112061,48.4725277 L111.962693,53.1584992 C113.307423,54.4552028 113.307423,56.5546278 111.962693,57.8444706 L67.3670646,101.410969 C66.0291957,102.707673 63.8611621,102.707673 62.5164324,101.410969" id="Fill-102" fill="#97C761"></path>
            </g>
        </g>
    </g>
</svg>