<?xml version="1.0" encoding="utf-8"?>
<!-- Generated by IcoMoon.io -->
<!DOCTYPE svg PUBLIC "-//W3C//DTD SVG 1.1//EN" "http://www.w3.org/Graphics/SVG/1.1/DTD/svg11.dtd">
<svg version="1.1" xmlns="http://www.w3.org/2000/svg" xmlns:xlink="http://www.w3.org/1999/xlink" width="32" height="32" viewBox="0 0 32 32">
<path fill="#000" d="M31.768 16.008c-0.9-7.238-6.638-12.964-13.876-13.87v-1.138c0-0.552-0.448-1-1-1h-2c-0.552 0-1 0.448-1 1v1.138c-7.24 0.904-12.978 6.632-13.878 13.87-0.138 1.094 0.772 1.992 1.876 1.992h12v8c0 1.102-0.896 2-2 2s-2-0.898-2-2c0-1.106-0.894-2-2-2s-2 0.894-2 2c0 3.308 2.692 6 6 6s6-2.692 6-6v-8h12c1.106 0 2.014-0.898 1.878-1.992zM15.89 6c5.214 0 9.664 3.344 11.314 8h-22.628c1.65-4.656 6.1-8 11.314-8z"></path>
</svg>
