<?xml version="1.0" encoding="UTF-8" standalone="no"?>
<svg width="74px" height="60px" viewBox="0 0 74 60" version="1.1" xmlns="http://www.w3.org/2000/svg" xmlns:xlink="http://www.w3.org/1999/xlink">
    <!-- Generator: Sketch 44.1 (41455) - http://www.bohemiancoding.com/sketch -->
    <title>web-lock</title>
    <desc>Created with Sketch.</desc>
    <defs></defs>
    <g id="Hybrid-Designation-First-Run" stroke="none" stroke-width="1" fill="none" fill-rule="evenodd">
        <g id="Artboard-7-Copy-6" transform="translate(-303.000000, -421.000000)">
            <g id="web-lock" transform="translate(303.000000, 421.000000)">
                <g id="globe" fill-rule="nonzero" fill="#255984">
                    <path d="M27.5,5.19678863e-16 C12.3121694,-7.79518294e-16 1.81887602e-15,12.3121694 0,27.5 C-1.81887602e-15,42.6878306 12.3121694,55 27.5,55 C42.6878306,55 55,42.6878306 55,27.5 C55,20.2065465 52.1026869,13.2118139 46.9454365,8.05456352 C41.7881861,2.89731311 34.7934535,2.59839431e-16 27.5,0 L27.5,5.19678863e-16 Z M19.8585106,6.99202128 C17.4978897,10.2686898 15.7167497,13.9259639 14.5925532,17.8047872 L7.88138298,17.8047872 C10.3611334,12.8143891 14.6413707,8.95025687 19.8585106,6.99202128 L19.8585106,6.99202128 Z M5.61117021,27.5 C5.61243058,25.7470662 5.82459353,24.0006508 6.24308511,22.2984043 L13.5803191,22.2984043 C13.0581212,25.7464756 13.0581212,29.2535244 13.5803191,32.7015957 L6.24308511,32.7015957 C5.82453767,30.9993594 5.6123739,29.2529373 5.61117021,27.5 L5.61117021,27.5 Z M7.88138298,37.1952128 L14.5691489,37.1952128 C15.6933455,41.0740361 17.4744854,44.7313102 19.8351064,48.0079787 C14.6267374,46.0447303 10.3555281,42.1811988 7.88138298,37.1952128 L7.88138298,37.1952128 Z M25.2531915,47.7680851 L23.737766,45.7260638 C21.8126967,43.1333984 20.3062639,40.254789 19.2734043,37.1952128 L25.2531915,37.1952128 L25.2531915,47.7680851 Z M25.2531915,32.7015957 L18.1382979,32.7015957 C17.5384772,29.2598033 17.5384772,25.7401967 18.1382979,22.2984043 L25.2531915,22.2984043 L25.2531915,32.7015957 Z M25.2531915,17.8047872 L19.2792553,17.8047872 C20.3122041,14.745249 21.8186298,11.8666531 23.743617,9.27393617 L25.2590426,7.22606383 L25.2531915,17.8047872 Z M29.7409574,7.23191489 L31.256383,9.27393617 C33.1813702,11.8666531 34.6877959,14.745249 35.7207447,17.8047872 L29.7468085,17.8047872 L29.7409574,7.23191489 Z M29.7409574,22.2984043 L36.8617021,22.2984043 C37.4615228,25.7401967 37.4615228,29.2598033 36.8617021,32.7015957 L29.7468085,32.7015957 L29.7409574,22.2984043 Z M29.7409574,47.7680851 L29.7409574,37.1952128 L35.7207447,37.1952128 C34.687885,40.254789 33.1814523,43.1333984 31.256383,45.7260638 L29.7409574,47.7680851 Z M35.1414894,48.0079787 C37.5021103,44.7313102 39.2832503,41.0740361 40.4074468,37.1952128 L47.118617,37.1952128 C44.6330073,42.1745706 40.3535206,46.0275721 35.1414894,47.9787234 L35.1414894,48.0079787 Z M49.3888298,27.5 C49.3876261,29.2529373 49.1754623,30.9993594 48.7569149,32.7015957 L41.4196809,32.7015957 C41.9417899,29.2535177 41.9417899,25.7464823 41.4196809,22.2984043 L48.7569149,22.2984043 C49.1754065,24.0006508 49.3875694,25.7470662 49.3888298,27.5 Z M40.4308511,17.8047872 C39.3066545,13.9259639 37.5255146,10.2686898 35.1648936,6.99202128 C40.3732626,8.9552697 44.6444719,12.8188012 47.118617,17.8047872 L40.4308511,17.8047872 Z" id="Shape"></path>
                </g>
                <circle id="Path" stroke="#6BA0D5" stroke-width="3" fill="#FFFFFF" cx="55.8331074" cy="41.8331074" r="15.8331074"></circle>
                <path d="M59.6192852,39.4237215 L52.0469295,39.4237215 L52.0469295,36.8996029 C52.0469295,34.8121568 53.7456613,33.1134251 55.8331074,33.1134251 C57.9205534,33.1134251 59.6192852,34.8121568 59.6192852,36.8996029 L59.6192852,39.4237215 L59.6192852,39.4237215 Z M62.1434038,39.4237215 L62.1434038,36.8996029 C62.1434038,33.4137952 59.3189151,30.5893065 55.8331074,30.5893065 C52.3472996,30.5893065 49.522811,33.4137952 49.522811,36.8996029 L49.522811,39.4237215 C48.8248922,39.4237215 48.2607517,39.987862 48.2607517,40.6857807 L48.2607517,49.5201957 C48.2607517,50.2181145 48.8248922,50.782255 49.522811,50.782255 L62.1434038,50.782255 C62.8413226,50.782255 63.4054631,50.2181145 63.4054631,49.5201957 L63.4054631,40.6857807 C63.4054631,39.987862 62.8413226,39.4237215 62.1434038,39.4237215 L62.1434038,39.4237215 Z" id="Fill-497" fill="#6BA0D5"></path>
            </g>
        </g>
    </g>
</svg>