<!-- Generated by IcoMoon.io -->
<svg version="1.1" xmlns="http://www.w3.org/2000/svg" width="28" height="32" viewBox="0 0 28 32">
<title>woman</title>
<path d="M1.337 31.945h25.64c0.736 0 1.333-0.597 1.333-1.333v-2.62c0.003-2.795-1.817-5.265-4.487-6.090-0.333-0.097-0.49-0.133-0.517-0.15l-1.543-0.407c2.196-1.72 3.195-4.557 2.56-7.273l-1.667-7.17c-0.836-4.020-4.379-6.901-8.485-6.901s-7.649 2.881-8.485 6.901l-1.667 7.17c-0.642 2.71 0.345 5.546 2.53 7.273l-1.53 0.407c-0.027 0-0.2 0.053-0.517 0.15-2.677 0.819-4.504 3.291-4.503 6.090v2.62c0 0.354 0.141 0.694 0.392 0.944s0.591 0.39 0.945 0.389zM8.98 9.468c1.307 0.077 3.83-0.197 6.8-2.753 0.134-0.117 0.314-0.168 0.489-0.14s0.33 0.133 0.421 0.286c0.696 1.117 1.695 2.014 2.88 2.587 0.247 0.129 0.399 0.388 0.39 0.667l-0.067 3.263c-0.052 1.957-0.94 3.798-2.44 5.057-0.1 0.082-0.158 0.204-0.157 0.333v2.567c0.004 0.505 0.282 0.969 0.727 1.21l-3.4 4.443c-0.112 0.144-0.284 0.229-0.467 0.229s-0.355-0.085-0.467-0.229l-3.4-4.443c0.447-0.243 0.726-0.711 0.727-1.22v-2.567c0.001-0.129-0.057-0.252-0.157-0.333-1.142-0.961-1.938-2.268-2.267-3.723l-0.207-2.63v-0.027l-0.037-1.977c-0.005-0.166 0.060-0.326 0.181-0.441s0.284-0.172 0.449-0.159v0z"></path>
</svg>
