<?xml version="1.0" encoding="utf-8"?>
<!-- Generated by IcoMoon.io -->
<!DOCTYPE svg PUBLIC "-//W3C//DTD SVG 1.1//EN" "http://www.w3.org/Graphics/SVG/1.1/DTD/svg11.dtd">
<svg version="1.1" xmlns="http://www.w3.org/2000/svg" xmlns:xlink="http://www.w3.org/1999/xlink" width="32" height="32" viewBox="0 0 32 32">
<path fill="#000" d="M32 25c0 1.1-0.9 2-2 2s-2-0.9-2-2c0-1.66-1.34-3-3-3s-3 1.34-3 3 1.34 3 3 3c1.1 0 2 0.9 2 2s-0.9 2-2 2c-3.86 0-7-3.14-7-7 0-0.66 0.12-1.28 0.28-1.88l-9.4-9.4c-0.6 0.16-1.22 0.28-1.88 0.28-3.86 0-7-3.14-7-7 0-1.1 0.9-2 2-2s2 0.9 2 2c0 1.66 1.34 3 3 3 0.18 0 0.36-0.020 0.54-0.060 0.060 0 0.1 0 0.14-0.020 0.16-0.040 0.3-0.080 0.44-0.14 0.080-0.020 0.14-0.060 0.22-0.12 0.58-0.26 1.060-0.74 1.32-1.32 0.060-0.080 0.1-0.14 0.12-0.22 0.060-0.14 0.1-0.28 0.14-0.44 0.020-0.040 0.020-0.080 0.020-0.14 0.040-0.18 0.060-0.36 0.060-0.54 0-1.66-1.34-3-3-3-1.1 0-2-0.9-2-2s0.9-2 2-2c3.86 0 7 3.14 7 7 0 0.66-0.12 1.28-0.28 1.88l9.4 9.398c0.6-0.158 1.22-0.278 1.88-0.278 3.86 0 7 3.14 7 7z"></path>
</svg>
