<?xml version="1.0" encoding="utf-8"?>
<!-- Generated by IcoMoon.io -->
<!DOCTYPE svg PUBLIC "-//W3C//DTD SVG 1.1//EN" "http://www.w3.org/Graphics/SVG/1.1/DTD/svg11.dtd">
<svg version="1.1" xmlns="http://www.w3.org/2000/svg" xmlns:xlink="http://www.w3.org/1999/xlink" width="32" height="32" viewBox="0 0 32 32">
<path fill="#000" d="M31.421 25.814l-9.81-9.814 9.814-9.814c0.777-0.773 0.777-2.030 0-2.803l-2.807-2.803c-0.773-0.773-2.030-0.773-2.803 0l-9.81 9.814-9.814-9.814c-0.773-0.773-2.030-0.773-2.803 0l-2.803 2.807c-0.777 0.773-0.777 2.030 0 2.803l9.814 9.814-9.814 9.81c-0.777 0.773-0.777 2.030 0 2.803l2.803 2.803c0.773 0.773 2.030 0.773 2.803 0l9.814-9.814 9.81 9.814c0.773 0.773 2.030 0.773 2.803 0l2.803-2.803c0.781-0.777 0.781-2.030 0-2.803z"></path>
</svg>
