<?xml version="1.0" encoding="utf-8"?>
<!-- Generated by IcoMoon.io -->
<!DOCTYPE svg PUBLIC "-//W3C//DTD SVG 1.1//EN" "http://www.w3.org/Graphics/SVG/1.1/DTD/svg11.dtd">
<svg version="1.1" xmlns="http://www.w3.org/2000/svg" xmlns:xlink="http://www.w3.org/1999/xlink" width="32" height="32" viewBox="0 0 32 32">
<path fill="#000" d="M16 0c-8.836 0-16 7.164-16 16s7.164 16 16 16 16-7.164 16-16-7.164-16-16-16zM16 28c-6.618 0-12-5.382-12-12s5.382-12 12-12 12 5.382 12 12-5.382 12-12 12z"></path>
<path d="M21.442 10.562c-0.752-0.75-1.968-0.75-2.718 0l-2.72 2.72-2.718-2.72c-0.75-0.75-1.966-0.75-2.718 0-0.75 0.752-0.75 1.968 0 2.718l2.718 2.72-2.72 2.718c-0.75 0.75-0.75 1.968 0 2.718 0.752 0.75 1.968 0.75 2.718 0l2.718-2.718 2.718 2.718c0.75 0.75 1.966 0.75 2.718 0 0.75-0.75 0.75-1.968 0-2.718l-2.716-2.718 2.718-2.718c0.752-0.75 0.752-1.968 0.002-2.72z"></path>
</svg>
