<?xml version="1.0" encoding="UTF-8" standalone="no"?>
<svg width="179px" height="44px" viewBox="0 0 179 44" version="1.1" xmlns="http://www.w3.org/2000/svg" xmlns:xlink="http://www.w3.org/1999/xlink">
    <!-- Generator: Sketch 3.8.3 (29802) - http://www.bohemiancoding.com/sketch -->
    <title>Group 3</title>
    <desc>Created with Sketch.</desc>
    <defs></defs>
    <g id="Page-1" stroke="none" stroke-width="1" fill="none" fill-rule="evenodd">
        <g id="MarketingWebsite_01-Copy" transform="translate(-151.000000, -6058.000000)" fill="#FFFFFF">
            <g id="Group-3" transform="translate(151.000000, 6058.000000)">
                <path d="M8.76905538,38.7664696 L10.2608664,37.2614 L8.76905538,38.7664696 Z M8.76905538,38.7664696 L8.19897301,38.1913206 L4.87874452,34.8415833 L3.19642857,33.1443157 L13.5080441,29.9723255 L10.3045536,26.7403637 L11.7963647,25.2352941 L12.4108504,25.8552412 L15.8041297,29.2786784 L17.5007693,30.9903971 L7.17483005,34.1479363 L10.2608664,37.2614 L8.76905538,38.7664696 Z" id="Fill-1"></path>
                <polygon id="Fill-2" points="0.0264988037 26.0582451 7.07159968 26.7844069 1.92510228 31.975199 3.38969833 33.4528118 10.0502085 26.7511696 11.6129217 25.1666196 9.4171019 24.9426294 0 23.9411765"></polygon>
                <path d="M17.9847762,0 L17.9847762,2.12862941 L22.3492008,2.12862941 L17.2607143,11.7276931 L19.6599303,11.7276931 L24.4590785,11.7276931 L25.3278096,11.7276931 L25.3278096,9.59906373 L20.7979465,9.59906373 L25.8649475,0 L17.9847762,0 Z M17.9847762,0 L17.9847762,2.12862941 L17.9847762,0 Z" id="Fill-3"></path>
                <polygon id="Fill-4" points="25.5850361 0 25.5714286 9.48995882 25.577158 11.7248029 27.286689 10.3172775 34.6483431 4.30711471 33.1457893 2.82950196 27.6548075 7.34182059 27.6562399 0"></polygon>
                <path d="M38.9834042,34.0446118 L37.4915932,32.5395422 L38.9834042,34.0446118 Z M38.9834042,34.0446118 L38.4133218,34.6197608 L35.0930933,37.969498 L33.4107774,39.6667657 L30.2667301,29.2635049 L27.0632396,32.4954667 L25.5714286,30.9903971 L26.1859143,30.37045 L29.5791936,26.9470127 L31.2758332,25.2352941 L34.4055568,35.6530059 L37.4915932,32.5395422 L38.9834042,34.0446118 Z" id="Fill-5"></path>
                <polygon id="Fill-6" points="25.285488 33.9204951 24.2928571 43.4220147 26.3912759 43.3952804 27.1110407 36.2868431 32.2561058 41.4790804 33.7199856 40.0014676 27.0780963 33.2817618 25.5082212 31.7058824"></polygon>
                <path d="M0,19.2238373 L0,23.9608686 L0,24.7744588 L2.10987773,24.7744588 L2.10987773,20.3719676 L11.6250968,25.5049559 L11.6250968,23.0836941 L11.6250968,18.2433382 L11.6250968,17.3668863 L9.51450291,17.3668863 L9.51450291,21.9362863 L0,16.8235294 L0,19.2238373 Z M0,24.7744588 L2.10987773,24.7744588 L0,24.7744588 Z" id="Fill-7"></path>
                <polygon id="Fill-8" points="2.80457609 9.92767255 7.27714446 15.4674559 0 15.4660108 0 17.5556225 9.40635915 17.5686284 11.6215159 17.562848 10.2263897 15.8381235 4.26917214 8.41176471"></polygon>
                <path d="M34.3031425,3.88235294 L32.8113315,5.38742255 L34.3031425,3.88235294 Z M34.3031425,3.88235294 L34.8732249,4.45750196 L38.1934534,7.80723922 L39.8757693,9.50450686 L29.5641537,12.6764971 L32.7676442,15.9084588 L31.2758332,17.4135284 L30.6613474,16.7935814 L27.2680682,13.3701441 L25.5714286,11.6584255 L35.8973678,8.50088627 L32.8113315,5.38742255 L34.3031425,3.88235294 Z" id="Fill-9"></path>
                <polygon id="Fill-10" points="41.0121032 11.1834951 35.8656058 16.3735647 42.9114229 17.100449 42.9379217 19.2175176 33.5201036 18.2153422 31.325 17.991352 32.8869971 16.406802 39.5475072 9.70588235"></polygon>
                <polygon id="Fill-11" points="23.4657315 31.7058824 18.6665833 31.7058824 17.7985684 31.7058824 17.7985684 33.8352343 22.3277153 33.8352343 17.2607143 43.434298 19.6398772 43.434298 24.3344625 43.434298 25.1408856 43.434298 25.1408856 41.3056686 25.1408856 43.434298 25.1408856 41.3056686 20.7771772 41.3056686 25.8656637 31.7058824"></polygon>
                <polygon id="Fill-12" points="15.6723684 33.1141304 8.31071429 39.1242931 9.81326808 40.6019059 15.3049661 36.0895873 15.3035337 43.4314078 17.3747375 43.4314078 17.3876288 33.941449 17.3818994 31.7058824"></polygon>
                <path d="M3.83571429,8.85744804 L5.32752532,10.3625176 L3.83571429,8.85744804 Z M3.83571429,8.85744804 L4.40579666,8.28229902 L7.72602515,4.93256176 L9.4083411,3.23529412 L12.5523884,13.6385549 L15.7558789,10.4065931 L17.2476899,11.9116627 L16.6332041,12.5316098 L13.2399249,15.9550471 L11.5432853,17.6667657 L8.41356168,7.24905392 L5.32752532,10.3625176 L3.83571429,8.85744804 Z" id="Fill-13"></path>
                <polygon id="Fill-14" points="16.9179954 0.0267343137 16.1982306 7.13517157 11.0531656 1.94221176 9.58928571 3.41982451 16.2311751 10.1402529 17.8017663 11.7154098 18.0237833 9.50079706 19.0164142 0"></polygon>
                <path d="M42.9493806,18.2010853 L40.8395029,18.2010853 L42.9493806,18.2010853 Z M42.9493806,18.2010853 L42.9493806,19.0146755 L42.9493806,23.7517069 L42.9493806,26.1520147 L33.4348777,21.0392578 L33.4348777,25.6093804 L31.325,25.6093804 L31.325,24.7329284 L31.325,19.8911275 L31.325,17.4705882 L40.8395029,22.604299 L40.8395029,18.2010853 L42.9493806,18.2010853 Z" id="Fill-15"></path>
                <polygon id="Fill-16" points="42.9465159 27.9849706 35.6693714 27.9835255 40.142656 33.5233088 38.6773438 35.0392167 32.7201262 27.6128578 31.325 25.8881333 33.5401568 25.8823529 42.9465159 25.8953588"></polygon>
                <path d="M130.903589,19.8609961 L129.113846,23.7201304 L130.903589,19.8609961 Z M129.113846,23.7201304 L132.763519,23.7201304 L130.903589,19.8609961 L129.113846,23.7201304 Z M134.4487,27.119001 L127.499567,27.119001 L125.393987,31.6508284 L121.464286,31.6508284 L129.219841,15.0813343 L130.834119,11.6470588 L132.482775,15.0459294 L140.58926,31.6508284 L136.658843,31.6508284 L134.4487,27.119001 Z" id="Fill-17"></path>
                <path d="M144.898341,11.6470588 L141.319571,11.6470588 L144.898341,11.6470588 Z M144.898341,11.6470588 L144.898341,19.0466833 L144.898341,22.3747441 L144.898341,23.2244618 C144.898341,24.3574186 144.863248,25.4903755 145.249272,26.3054108 C145.530016,26.9065716 145.951848,27.4022402 146.51262,27.7562892 C147.039731,28.1103382 147.635596,28.2873627 148.26727,28.2873627 C148.829475,28.2873627 149.390247,28.1457431 149.917358,27.827099 C150.443753,27.5445824 150.864153,27.119001 151.180706,26.5879275 C151.706385,25.7382098 151.636199,24.569848 151.636199,23.4022088 L151.636199,23.0127549 L151.636199,19.012001 L151.636199,11.6470588 L155.250779,11.6470588 L155.250779,19.012001 L155.250779,23.0127549 L155.250779,23.4022088 C155.250779,25.0655167 155.250779,26.7295471 154.268175,28.4297049 C153.601408,29.5265343 152.759176,30.376252 151.706385,30.9781353 C150.689404,31.5807412 149.530619,31.8986627 148.26727,31.8986627 C146.898643,31.8986627 145.671104,31.5446137 144.548127,30.8011108 C143.389342,30.0576078 142.582919,29.1016755 141.985622,27.8625039 C141.214292,26.2692833 141.283761,24.7114676 141.283761,23.1890569 C141.319571,22.9065402 141.319571,22.6225784 141.319571,22.3747441 L141.319571,19.0466833 L141.319571,11.6470588 L144.898341,11.6470588 Z" id="Fill-18"></path>
                <path d="M161.483058,11.6470588 L157.903571,11.6470588 L161.483058,11.6470588 Z M161.483058,11.6470588 L161.483058,27.8979088 L168.080544,27.8979088 L168.080544,31.5446137 L161.483058,31.5446137 L161.483058,31.5807412 L157.903571,31.5807412 L157.903571,11.6470588 L161.483058,11.6470588 Z" id="Fill-20"></path>
                <path d="M167.492857,11.6470588 L167.492857,15.2583588 L167.492857,11.6470588 Z M167.492857,11.6470588 L178.651718,11.6470588 L178.651718,15.2583588 L174.792919,15.2583588 L174.792919,31.5807412 L171.212716,31.5807412 L171.212716,15.2583588 L167.492857,15.2583588 L167.492857,11.6470588 Z" id="Fill-22"></path>
                <path d="M47.882505,11.6470588 L47.882505,15.2193412 L47.882505,11.6470588 Z M47.882505,11.6470588 L49.2360926,11.6470588 L57.1148315,11.6470588 L61.1061243,11.6470588 L52.602873,27.7548441 L60.2037326,27.7548441 L60.2037326,31.3264039 L58.7462984,31.3264039 L50.6942429,31.3264039 L46.6678571,31.3264039 L55.2062014,15.2193412 L47.882505,15.2193412 L47.882505,11.6470588 Z" id="Fill-24"></path>
                <path d="M71.6801794,15.2186186 C69.840303,15.2186186 68.1737431,15.9888559 66.9247184,17.2504265 C65.6756937,18.510552 64.9122417,20.191201 64.9122417,22.0467069 C64.9122417,23.9730225 65.6756937,25.6189892 66.9247184,26.8798373 C68.1400825,28.1045578 69.840303,28.8747951 71.6801794,28.8747951 C73.5888095,28.8747951 75.2195602,28.1399627 76.4693011,26.8798373 C77.7190419,25.6189892 78.4481171,23.9730225 78.4481171,22.0467069 C78.4481171,20.191201 77.6846651,18.4758696 76.4693011,17.2504265 C75.2195602,15.9888559 73.5888095,15.2186186 71.6801794,15.2186186 M78.9687828,14.6933255 C80.8774129,16.6196412 81.9882141,19.1406147 81.9882141,22.0467069 C81.9882141,24.9535216 80.8774129,27.4744951 78.9687828,29.4008108 C77.0594366,31.3264039 74.560671,32.4470775 71.6801794,32.4470775 C68.7996878,32.4470775 66.3002061,31.3264039 64.3908598,29.4008108 C62.4822298,27.4744951 61.3714286,24.9535216 61.3714286,22.0467069 C61.3714286,19.1406147 62.4822298,16.6196412 64.3908598,14.6933255 C66.3002061,12.7677324 68.7996878,11.6470588 71.6801794,11.6470588 C74.560671,11.6470588 77.0594366,12.7677324 78.9687828,14.6933255" id="Fill-26"></path>
                <path d="M83.7464286,12.2941176 L87.2865255,12.2941176 L83.7464286,12.2941176 Z M87.2865255,12.2941176 L87.2865255,19.9986578 L92.6664989,12.2941176 L97.0051408,12.2941176 L90.1326403,22.1691951 L97.4899973,31.8332882 L93.0131319,31.8332882 L87.9805077,25.2501441 L87.2865255,26.2313657 L87.2865255,31.8332882 L83.7464286,31.8332882 L83.7464286,12.2941176 L87.2865255,12.2941176 Z" id="Fill-28"></path>
                <path d="M102.026118,11.6470588 L98.4867373,11.6470588 L102.026118,11.6470588 Z M102.026118,11.6470588 L102.026118,18.9657578 L102.026118,22.2569686 L102.026118,23.0972931 C102.026118,24.2179667 101.991741,25.3386402 102.373467,26.1442824 C102.651347,26.7389402 103.067449,27.229551 103.622492,27.5792647 C104.143874,27.9304235 104.733293,28.1052804 105.357805,28.1052804 C105.913564,28.1052804 106.468607,27.9643833 106.989989,27.6500745 C107.509938,27.3697255 107.926757,26.949202 108.239013,26.4246314 C108.759679,25.5843069 108.690209,24.4282284 108.690209,23.2728725 L108.690209,22.8877539 L108.690209,18.9310755 L108.690209,11.6470588 L112.265399,11.6470588 L112.265399,18.9310755 L112.265399,22.8877539 L112.265399,23.2728725 C112.265399,24.9188392 112.265399,26.5640833 111.292821,28.2447324 C110.634648,29.3307235 109.800294,30.171048 108.759679,30.7657059 C107.753441,31.3618088 106.607546,31.6768402 105.357805,31.6768402 C104.004934,31.6768402 102.78957,31.3264039 101.679485,30.590849 C100.534307,29.8560167 99.735762,28.9102 99.1463426,27.6847569 C98.3821744,26.1088775 98.4516443,24.5684029 98.4516443,23.0626108 C98.4867373,22.7829843 98.4867373,22.5026353 98.4867373,22.2569686 L98.4867373,18.9657578 L98.4867373,11.6470588 L102.026118,11.6470588 Z" id="Fill-30"></path>
                <path d="M109.317857,11.6470588 L113.247558,11.6470588 L109.317857,11.6470588 Z M113.247558,11.6470588 L118.722784,23.1182471 L124.127108,11.6470588 L128.057525,11.6470588 L120.337062,27.9679961 L118.722784,31.4029941 L117.073412,27.9679961 L109.317857,11.6470588 L113.247558,11.6470588 Z" id="Fill-32"></path>
            </g>
        </g>
    </g>
</svg>